<!--?xml version="1.0" standalone="no"?-->
              <svg id="sw-js-blob-svg" viewBox="0 0 100 100" xmlns="http://www.w3.org/2000/svg" version="1.1">
                    <defs> 
                        <linearGradient id="sw-gradient" x1="0" x2="1" y1="1" y2="0">
                            <stop id="stop1" stop-color="rgba(36, 30, 78, 0.53)" offset="0%"></stop>
                            <stop id="stop2" stop-color="rgba(36, 30, 78, 0.99)" offset="100%"></stop>
                        </linearGradient>
                    </defs>
                <path fill="none" d="M15.8,-30.9C17.3,-26.6,13,-15.8,15.2,-9.6C17.4,-3.4,26,-1.7,29.7,2.2C33.5,6,32.3,12,27.6,13.8C22.8,15.5,14.5,13.1,9.3,17.1C4.1,21.2,2,31.8,-0.2,32.1C-2.4,32.5,-4.9,22.6,-6.2,16.3C-7.4,9.9,-7.5,7.2,-11,5C-14.6,2.9,-21.6,1.5,-25.1,-2C-28.5,-5.4,-28.4,-10.9,-27.3,-17.3C-26.2,-23.7,-24.2,-31.1,-19.5,-33.6C-14.8,-36.1,-7.4,-33.8,-0.1,-33.6C7.2,-33.4,14.4,-35.3,15.8,-30.9Z" width="100%" height="100%" transform="translate(50 50)" stroke-width="1" style="transition: all 0.3s ease 0s;" stroke="url(#sw-gradient)"></path>
              </svg>