<!--?xml version="1.0" standalone="no"?-->
              <svg id="sw-js-blob-svg" viewBox="0 0 100 100" xmlns="http://www.w3.org/2000/svg" version="1.1">
                    <defs> 
                        <linearGradient id="sw-gradient" x1="0" x2="1" y1="1" y2="0">
                            <stop id="stop1" stop-color="rgba(36, 30, 78, 0.53)" offset="0%"></stop>
                            <stop id="stop2" stop-color="rgba(36, 30, 78, 0.99)" offset="100%"></stop>
                        </linearGradient>
                    </defs>
                <path fill="url(#sw-gradient)" d="M10.3,-16.9C16.1,-14.4,25.6,-17.3,29.6,-15.4C33.6,-13.5,32.1,-6.7,33,0.5C34,7.8,37.3,15.6,33.4,17.8C29.6,19.9,18.5,16.4,11.7,18.7C5,21,2.5,29.2,-1.2,31.3C-4.9,33.5,-9.9,29.6,-14.2,25.8C-18.5,22.1,-22.2,18.5,-22,14.2C-21.9,9.9,-18,5,-16.8,0.6C-15.7,-3.7,-17.4,-7.4,-18.8,-13.7C-20.1,-20,-21,-29,-17.8,-33.1C-14.6,-37.1,-7.3,-36.2,-2.6,-31.8C2.2,-27.4,4.4,-19.4,10.3,-16.9Z" width="100%" height="100%" transform="translate(50 50)" stroke-width="0" style="transition: all 0.3s ease 0s;" stroke="url(#sw-gradient)"></path>
              </svg>