<?xml version="1.0" encoding="UTF-8" standalone="no"?>
<!DOCTYPE svg PUBLIC "-//W3C//DTD SVG 1.1//EN" "http://www.w3.org/Graphics/SVG/1.1/DTD/svg11.dtd">
<!-- Created with Vectornator (http://vectornator.io/) -->
<svg height="100%" stroke-miterlimit="10" style="fill-rule:nonzero;clip-rule:evenodd;stroke-linecap:round;stroke-linejoin:round;" version="1.1" viewBox="0 0 100 100" width="100%" xml:space="preserve" xmlns="http://www.w3.org/2000/svg" xmlns:vectornator="http://vectornator.io" xmlns:xlink="http://www.w3.org/1999/xlink">
<defs>
<filter color-interpolation-filters="sRGB" filterUnits="userSpaceOnUse" height="55.1469" id="Filter" width="64.1246" x="13.7618" y="25.9245">
<feDropShadow dx="-0.991855" dy="-0.127373" flood-color="#5a5959" flood-opacity="1" in="SourceGraphic" result="Shadow" stdDeviation="0.291096"/>
</filter>
<filter color-interpolation-filters="sRGB" filterUnits="userSpaceOnUse" height="79.5123" id="Filter_2" width="93.0599" x="4.21438" y="10.8184">
<feDropShadow dx="-0.773515" dy="-0.633778" flood-color="#000000" flood-opacity="0.376126" in="SourceGraphic" result="Shadow" stdDeviation="1.23288"/>
</filter>
<filter color-interpolation-filters="sRGB" filterUnits="userSpaceOnUse" height="61.641" id="Filter_3" width="73.0113" x="13.7618" y="20.5046">
<feDropShadow dx="-0.991855" dy="-0.127373" flood-color="#5a5959" flood-opacity="1" in="SourceGraphic" result="Shadow" stdDeviation="0.291096"/>
</filter>
<filter color-interpolation-filters="sRGB" filterUnits="userSpaceOnUse" height="43.477" id="Filter_4" width="51.0875" x="20.2803" y="31.7595">
<feDropShadow dx="-0.991855" dy="-0.127373" flood-color="#5a5959" flood-opacity="1" in="SourceGraphic" result="Shadow" stdDeviation="0.291096"/>
</filter>
</defs>
<g id="Sans-titre" vectornator:layerName="Sans titre">
<path d="M72.5107 59.145C66.3583 63.4345 61.8056 68.2288 58.8524 73.5276C55.8993 78.8265 51.7156 80.7189 46.3015 79.205C40.8874 77.691 34.7351 76.4294 27.8444 75.4201C20.9537 74.4108 17.1392 70.3735 16.4009 63.3084C15.6627 56.2432 17.5084 50.5659 21.9381 46.2763C26.3678 41.9867 30.4284 38.8327 34.1198 36.814C37.8113 34.7954 42.1179 32.2721 47.0398 29.2442C51.9617 26.2163 55.8993 27.2256 58.8524 32.2721C61.8056 37.3187 66.3583 41.9867 72.5107 46.2763C78.6631 50.5659 78.6631 54.8554 72.5107 59.145Z" fill="none" filter="url(#Filter)" stroke="#241f4c" stroke-linecap="butt" stroke-linejoin="miter" stroke-width="1.52278" vectornator:layerName="path 2" vectornator:shadowAngle="3.26931" vectornator:shadowColor="#5a5959" vectornator:shadowOffset="1" vectornator:shadowOpacity="1" vectornator:shadowRadius="0.582192"/>
<path d="M86.5 58.5C78.1667 64.1667 72 70.5 68 77.5C64 84.5 58.3333 87 51 85C43.6667 83 35.3333 81.3333 26 80C16.6667 78.6667 11.5 73.3333 10.5 64C9.5 54.6667 12 47.1667 18 41.5C24 35.8333 29.5 31.6667 34.5 29C39.5 26.3333 45.3333 23 52 19C58.6667 15 64 16.3333 68 23C72 29.6667 78.1667 35.8333 86.5 41.5C94.8333 47.1667 94.8333 52.8333 86.5 58.5Z" fill="none" filter="url(#Filter_2)" stroke="#241f4c" stroke-linecap="butt" stroke-linejoin="miter" stroke-width="4.43125" vectornator:layerName="path" vectornator:shadowAngle="3.82802" vectornator:shadowColor="#000000" vectornator:shadowOffset="1" vectornator:shadowOpacity="0.376126" vectornator:shadowRadius="2.46575"/>
<path d="M80.7239 57.6592C73.6735 62.4828 68.4562 67.8738 65.072 73.8323C61.6878 79.7908 56.8935 81.9188 50.6891 80.2164C44.4847 78.514 37.4343 77.0953 29.5378 75.9603C21.6414 74.8254 17.2701 70.2856 16.424 62.3409C15.578 54.3963 17.6931 48.0122 22.7694 43.1886C27.8457 38.3651 32.499 34.8184 36.7293 32.5485C40.9595 30.2786 45.8948 27.4412 51.5351 24.0363C57.1755 20.6315 61.6878 21.7664 65.072 27.4412C68.4562 33.1159 73.6735 38.3651 80.7239 43.1886C87.7743 48.0122 87.7743 52.8357 80.7239 57.6592Z" fill="none" filter="url(#Filter_3)" stroke="#241f4c" stroke-linecap="butt" stroke-linejoin="miter" stroke-width="1.52278" vectornator:layerName="path 1" vectornator:shadowAngle="3.26931" vectornator:shadowColor="#5a5959" vectornator:shadowOffset="1" vectornator:shadowOpacity="1" vectornator:shadowRadius="0.582192"/>
<path d="M66.9802 57.9103C62.1453 61.2403 58.5675 64.962 56.2467 69.0756C53.9259 73.1891 50.6382 74.6582 46.3834 73.4829C42.1287 72.3076 37.2937 71.3282 31.8786 70.5447C26.4635 69.7611 23.4658 66.627 22.8856 61.1423C22.3054 55.6576 23.7559 51.2503 27.2371 47.9202C30.7182 44.5902 33.9093 42.1417 36.8102 40.5747C39.7112 39.0076 43.0957 37.0488 46.9636 34.6982C50.8316 32.3476 53.9259 33.1311 56.2467 37.0488C58.5675 40.9664 62.1453 44.5902 66.9802 47.9202C71.8152 51.2503 71.8152 54.5803 66.9802 57.9103Z" fill="none" filter="url(#Filter_4)" stroke="#241f4c" stroke-linecap="butt" stroke-linejoin="miter" stroke-width="1.52278" vectornator:layerName="path 3" vectornator:shadowAngle="3.26931" vectornator:shadowColor="#5a5959" vectornator:shadowOffset="1" vectornator:shadowOpacity="1" vectornator:shadowRadius="0.582192"/>
</g>
</svg>
