<?xml version="1.0" encoding="UTF-8" standalone="no"?>
<!DOCTYPE svg PUBLIC "-//W3C//DTD SVG 1.1//EN" "http://www.w3.org/Graphics/SVG/1.1/DTD/svg11.dtd">
<!-- Created with Vectornator (http://vectornator.io/) -->
<svg height="100%" stroke-miterlimit="10" style="fill-rule:nonzero;clip-rule:evenodd;stroke-linecap:round;stroke-linejoin:round;" version="1.1" viewBox="0 0 600 600" width="100%" xml:space="preserve" xmlns="http://www.w3.org/2000/svg" xmlns:vectornator="http://vectornator.io" xmlns:xlink="http://www.w3.org/1999/xlink">
<defs/>
<g id="Calque-1" vectornator:layerName="Calque 1">
<path d="M227.175 43.875C235.371 57.535 240.607 68.2353 242.884 75.976C245.161 83.7167 246.299 92.8233 246.299 103.296C246.299 113.769 243.112 126.746 236.737 142.227C230.362 157.708 227.403 172.962 227.858 187.988C228.313 203.014 229.452 210.982 231.273 211.893C232.184 212.348 233.094 212.804 234.005 213.259C233.55 212.576 233.094 211.893 232.639 211.21C231.728 209.844 231.501 205.974 231.956 199.599C232.411 193.224 234.005 185.711 236.737 177.06C239.469 168.409 243.112 161.123 247.665 155.204C252.218 149.285 256.089 142.91 259.276 136.08C262.463 129.25 264.512 120.826 265.423 110.809C266.334 100.792 266.334 93.734 265.423 89.636C264.512 85.538 260.87 77.7973 254.495 66.414C248.12 55.0307 240.607 45.0133 231.956 36.362C223.305 27.7107 218.296 23.385 216.93 23.385C216.247 23.385 215.564 23.385 214.881 23.385C218.979 30.215 223.077 37.045 227.175 43.875ZM232.639 45.241C233.777 45.924 234.916 46.607 236.054 47.29C238.331 48.656 242.884 55.0307 249.714 66.414C256.544 77.7973 260.414 89.1807 261.325 100.564C262.236 111.947 261.097 121.509 257.91 129.25C254.723 136.991 250.852 143.593 246.299 149.057C241.746 154.521 238.103 160.896 235.371 168.181C234.005 171.824 232.639 175.466 231.273 179.109C231.273 176.832 231.273 174.556 231.273 172.279C231.273 167.726 233.777 159.985 238.786 149.057C243.795 138.129 246.982 129.933 248.348 124.469C249.714 119.005 250.397 111.72 250.397 102.613C250.397 93.5063 249.714 85.9933 248.348 80.074C246.982 74.1547 244.022 66.8693 239.469 58.218C237.192 53.8923 234.916 49.5667 232.639 45.241ZM206.002 87.587C209.189 93.9617 210.783 101.019 210.783 108.76C210.783 116.501 208.051 128.112 202.587 143.593C197.123 159.074 194.391 171.141 194.391 179.792C194.391 188.443 195.529 195.956 197.806 202.331C200.083 208.706 202.359 212.804 204.636 214.625C205.774 215.536 206.913 216.446 208.051 217.357C207.823 212.576 207.596 207.795 207.368 203.014C206.913 193.452 207.823 184.345 210.1 175.694C212.377 167.043 215.336 159.985 218.979 154.521C222.622 149.057 224.898 141.772 225.809 132.665C226.72 123.558 224.898 113.996 220.345 103.979C215.792 93.9617 212.149 87.1317 209.417 83.489C206.685 79.8463 204.636 78.025 203.27 78.025C202.587 78.025 201.904 78.025 201.221 78.025C202.815 81.2123 204.408 84.3997 206.002 87.587ZM214.881 101.247C216.247 103.751 217.613 106.256 218.979 108.76C221.711 113.769 223.305 119.005 223.76 124.469C224.215 129.933 223.76 134.942 222.394 139.495C221.028 144.048 218.296 149.74 214.198 156.57C210.1 163.4 206.913 172.962 204.636 185.256C203.498 191.403 202.359 197.55 201.221 203.697C200.766 202.331 200.31 200.965 199.855 199.599C198.944 196.867 198.489 190.72 198.489 181.158C198.489 171.596 200.993 160.44 206.002 147.691C211.011 134.942 213.743 124.014 214.198 114.907C214.426 110.354 214.653 105.8 214.881 101.247ZM269.521 144.276C268.61 150.195 264.968 157.481 258.593 166.132C252.218 174.783 249.031 182.752 249.031 190.037C249.031 197.322 247.893 201.42 245.616 202.331C244.478 202.786 243.339 203.242 242.201 203.697C242.656 204.38 243.112 205.063 243.567 205.746C244.478 207.112 245.844 207.795 247.665 207.795C249.486 207.795 251.08 206.884 252.446 205.063C253.812 203.242 256.772 201.193 261.325 198.916C265.878 196.639 269.976 192.769 273.619 187.305C277.262 181.841 279.083 174.1 279.083 164.083C279.083 154.066 278.4 146.78 277.034 142.227C275.668 137.674 274.302 135.397 272.936 135.397C271.57 135.397 270.432 138.357 269.521 144.276ZM273.619 151.789C274.074 151.789 274.53 151.789 274.985 151.789C274.985 155.887 274.985 159.985 274.985 164.083C274.985 172.279 272.708 179.337 268.155 185.256C263.602 191.175 259.959 194.59 257.227 195.501C255.861 195.956 254.495 196.412 253.129 196.867C253.129 194.363 253.129 191.858 253.129 189.354C253.129 184.345 256.089 177.971 262.008 170.23C267.927 162.489 271.115 157.481 271.57 155.204C272.025 152.927 272.708 151.789 273.619 151.789ZM150.679 231.7C106.967 234.887 78.7365 237.847 65.9871 240.579C53.2378 243.311 44.3588 246.043 39.3501 248.775C34.3415 251.507 32.7478 260.841 34.5691 276.778C36.3905 292.715 39.1225 309.334 42.7651 326.637C46.4078 343.94 48.4568 358.283 48.9121 369.666C49.3675 381.049 51.8718 397.897 56.4251 420.208C60.9785 442.519 66.6701 459.822 73.5001 472.116C80.3301 484.41 86.2495 493.061 91.2581 498.07C96.2668 503.079 99.6818 507.404 101.503 511.047C103.324 514.69 107.65 519.698 114.48 526.073C117.895 529.26 121.31 532.448 124.725 535.635C105.373 535.407 86.0218 535.18 66.6701 534.952C47.3185 534.724 27.9668 534.497 8.61513 534.269C8.61513 539.278 8.61513 544.286 8.61513 549.295C8.61513 554.304 8.61513 559.312 8.61513 564.321C9.52579 564.321 10.4365 564.321 11.3471 564.321C12.2578 564.321 13.1685 564.321 14.0791 564.321C13.8515 560.223 13.6238 556.125 13.3961 552.027C13.1685 547.929 12.9408 543.831 12.7131 539.733C33.4308 539.733 54.1485 539.733 74.8661 539.733C95.5838 539.733 116.301 539.733 137.019 539.733C136.791 539.05 136.564 538.367 136.336 537.684C135.881 536.318 131.555 532.448 123.359 526.073C115.163 519.698 109.244 513.551 105.601 507.632C101.958 501.713 96.9498 495.338 90.5751 488.508C84.2005 481.678 78.9641 474.62 74.8661 467.335C70.7681 460.05 66.2148 444.796 61.2061 421.574C56.1975 398.352 53.4655 381.505 53.0101 371.032C52.5548 360.559 49.8228 340.297 44.8141 310.245C42.3098 295.219 39.8055 280.193 37.3011 265.167C42.3098 266.761 47.3185 268.354 52.3271 269.948C62.3445 273.135 76.0045 275.867 93.3071 278.144C110.61 280.421 136.791 282.47 171.852 284.291C206.913 286.112 248.348 286.795 296.158 286.34C343.968 285.885 378.801 284.746 400.657 282.925C422.513 281.104 443.231 278.144 462.81 274.046C472.6 271.997 482.389 269.948 492.179 267.899C490.358 274.046 488.536 280.193 486.715 286.34C483.072 298.634 481.251 307.058 481.251 311.611C481.251 313.888 481.251 316.164 481.251 318.441C480.568 318.441 479.885 318.441 479.202 318.441C478.519 318.441 477.836 318.441 477.153 318.441C477.153 319.352 477.153 320.262 477.153 321.173C477.153 322.994 484.211 325.043 498.326 327.32C512.441 329.597 523.825 332.784 532.476 336.882C541.127 340.98 548.185 345.078 553.649 349.176C559.113 353.274 564.577 358.51 570.041 364.885C575.505 371.26 579.603 377.634 582.335 384.009C585.067 390.384 586.661 398.352 587.116 407.914C587.571 417.476 587.344 423.851 586.433 427.038C585.522 430.225 582.107 436.372 576.188 445.479C570.269 454.586 561.39 462.782 549.551 470.067C537.712 477.352 525.874 482.361 514.035 485.093C502.196 487.825 491.496 489.191 481.934 489.191C472.372 489.191 463.948 488.28 456.663 486.459C449.378 484.638 442.775 488.508 436.856 498.07C430.937 507.632 423.196 516.966 413.634 526.073C408.853 530.626 404.072 535.18 399.291 539.733C424.107 539.961 448.922 540.188 473.738 540.416C498.554 540.644 523.369 540.871 548.185 541.099C548.185 544.969 548.185 548.84 548.185 552.71C548.185 556.58 548.185 560.451 548.185 564.321C547.73 563.866 547.274 563.41 546.819 562.955C545.908 562.044 537.712 561.589 522.231 561.589C506.75 561.589 425.017 562.272 277.034 563.638C129.051 565.004 47.5461 565.915 32.5201 566.37C17.4941 566.825 9.52579 567.508 8.61513 568.419C8.15979 568.874 7.70446 569.33 7.24913 569.785C81.6961 569.785 156.143 569.785 230.59 569.785C379.484 569.785 469.185 569.557 499.692 569.102C530.199 568.647 545.908 567.964 546.819 567.053C547.274 566.598 547.73 566.142 548.185 565.687C547.957 566.825 547.73 567.964 547.502 569.102C547.047 571.379 547.502 573.2 548.868 574.566C549.551 575.249 550.234 575.932 550.917 576.615C551.372 575.704 551.828 574.794 552.283 573.883C553.194 572.062 553.194 565.232 552.283 553.393C551.372 541.554 527.24 535.863 479.885 536.318C456.208 536.546 432.53 536.773 408.853 537.001C412.268 533.586 415.683 530.171 419.098 526.756C425.928 519.926 432.303 511.958 438.222 502.851C444.141 493.744 454.614 489.874 469.64 491.24C484.666 492.606 499.464 491.695 514.035 488.508C528.606 485.321 540.9 480.767 550.917 474.848C560.934 468.929 568.447 463.237 573.456 457.773C578.465 452.309 582.335 446.845 585.067 441.381C587.799 435.917 589.848 430.225 591.214 424.306C592.58 418.387 593.035 412.24 592.58 405.865C592.125 399.49 591.214 394.026 589.848 389.473C588.482 384.92 585.522 379 580.969 371.715C576.416 364.43 572.09 358.738 567.992 354.64C563.894 350.542 557.975 345.989 550.234 340.98C542.493 335.971 533.614 331.646 523.597 328.003C513.58 324.36 504.473 321.856 496.277 320.49C492.179 319.807 488.081 319.124 483.983 318.441C485.577 311.156 487.17 303.87 488.764 296.585C491.951 282.014 495.594 272.225 499.692 267.216C503.79 262.207 505.611 258.565 505.156 256.288C504.701 254.011 503.335 251.962 501.058 250.141C498.781 248.32 493.773 246.271 486.032 243.994C478.291 241.717 464.859 239.213 445.735 236.481C426.611 233.749 399.974 231.472 365.824 229.651C331.674 227.83 298.207 226.919 265.423 226.919C232.639 226.919 194.391 228.513 150.679 231.7ZM271.57 232.383C309.363 232.383 340.781 233.066 365.824 234.432C390.867 235.798 414.317 237.847 436.173 240.579C458.029 243.311 473.055 245.815 481.251 248.092C489.447 250.369 494.456 252.418 496.277 254.239C497.188 255.15 498.098 256.06 499.009 256.971C497.871 258.109 496.732 259.248 495.594 260.386C493.317 262.663 487.626 264.939 478.519 267.216C469.412 269.493 449.605 272.225 419.098 275.412C388.591 278.599 348.749 280.648 299.573 281.559C250.397 282.47 208.279 282.014 173.218 280.193C138.157 278.372 112.203 276.323 95.3561 274.046C78.5088 271.769 65.7595 269.493 57.1081 267.216C48.4568 264.939 42.9928 263.118 40.7161 261.752C38.4395 260.386 37.3011 258.792 37.3011 256.971C37.3011 255.15 38.2118 253.784 40.0331 252.873C41.8545 251.962 46.8631 250.369 55.0591 248.092C63.2551 245.815 76.0045 243.539 93.3071 241.262C110.61 238.985 135.198 236.936 167.071 235.115C198.944 233.294 233.777 232.383 271.57 232.383ZM468.274 394.254C463.265 421.119 460.761 437.283 460.761 442.747C460.761 445.479 460.761 448.211 460.761 450.943C463.948 450.488 467.136 450.032 470.323 449.577C476.698 448.666 483.3 446.845 490.13 444.113C496.96 441.381 503.562 437.283 509.937 431.819C516.312 426.355 520.865 420.891 523.597 415.427C526.329 409.963 527.695 404.271 527.695 398.352C527.695 392.433 526.557 387.196 524.28 382.643C522.003 378.09 517.905 373.764 511.986 369.666C506.067 365.568 499.009 362.836 490.813 361.47C482.617 360.104 478.064 358.51 477.153 356.689C476.698 355.778 476.242 354.868 475.787 353.957C473.283 367.389 470.778 380.822 468.274 394.254ZM478.519 363.519C481.934 364.202 485.349 364.885 488.764 365.568C495.594 366.934 501.058 368.755 505.156 371.032C509.254 373.309 513.124 376.951 516.767 381.96C520.41 386.969 522.231 392.205 522.231 397.669C522.231 403.133 521.093 408.142 518.816 412.695C516.539 417.248 513.58 421.346 509.937 424.989C506.294 428.632 502.196 431.819 497.643 434.551C493.09 437.283 486.715 439.56 478.519 441.381C474.421 442.292 470.323 443.202 466.225 444.113C468.274 430.681 470.323 417.248 472.372 403.816C474.421 390.384 476.47 376.951 478.519 363.519Z" fill="#000000" fill-rule="nonzero" opacity="1" stroke="none" vectornator:layerName="Courbe 1"/>
</g>
</svg>
