<?xml version="1.0" encoding="UTF-8" standalone="no"?>
<!DOCTYPE svg PUBLIC "-//W3C//DTD SVG 1.1//EN" "http://www.w3.org/Graphics/SVG/1.1/DTD/svg11.dtd">
<!-- Created with Vectornator (http://vectornator.io/) -->
<svg height="100%" stroke-miterlimit="10" style="fill-rule:nonzero;clip-rule:evenodd;stroke-linecap:round;stroke-linejoin:round;" version="1.1" viewBox="0 0 600 600" width="100%" xml:space="preserve" xmlns="http://www.w3.org/2000/svg" xmlns:vectornator="http://vectornator.io" xmlns:xlink="http://www.w3.org/1999/xlink">
<defs/>
<g id="Calque-1" vectornator:layerName="Calque 1">
<path d="M154.626 5.464C153.715 9.10667 155.764 14.5707 160.773 21.856C165.782 29.1413 167.148 34.833 164.871 38.931C162.594 43.029 161.684 48.493 162.139 55.323C162.594 62.153 164.871 67.3893 168.969 71.032C173.067 74.6747 178.531 76.0407 185.361 75.13C188.776 74.6747 192.191 74.2193 195.606 73.764C192.191 76.7237 188.776 79.6833 185.361 82.643C178.531 88.5623 173.295 94.7093 169.652 101.084C166.009 107.459 163.277 114.061 161.456 120.891C159.635 127.721 158.724 134.551 158.724 141.381C158.724 148.211 159.179 153.22 160.09 156.407C161.001 159.594 162.822 161.188 165.554 161.188C168.286 161.188 175.799 159.139 188.093 155.041C194.24 152.992 200.387 150.943 206.534 148.894C205.851 150.488 205.168 152.081 204.485 153.675C203.119 156.862 201.298 167.107 199.021 184.41C196.744 201.713 195.606 214.69 195.606 223.341C195.606 231.992 197.427 242.01 201.07 253.393C204.713 264.776 209.038 274.111 214.047 281.396C219.056 288.681 224.975 295.511 231.805 301.886C238.635 308.261 242.961 311.676 244.782 312.131C246.603 312.586 249.108 314.408 252.295 317.595C255.482 320.782 263.906 325.108 277.566 330.572C291.226 336.036 299.65 341.045 302.837 345.598C306.024 350.151 307.39 376.788 306.935 425.509C306.48 474.23 304.203 501.094 300.105 506.103C296.007 511.112 286.217 515.893 270.736 520.446C255.255 524.999 246.603 528.642 244.782 531.374C242.961 534.106 242.278 537.293 242.733 540.936C243.188 544.579 245.237 548.221 248.88 551.864C252.523 555.507 260.263 559.149 272.102 562.792C283.941 566.435 299.877 568.256 319.912 568.256C339.947 568.256 354.745 566.89 364.307 564.158C373.869 561.426 381.382 558.011 386.846 553.913C392.31 549.815 395.497 546.628 396.408 544.351C397.319 542.074 397.546 539.342 397.091 536.155C396.636 532.968 393.221 529.553 386.846 525.91C380.471 522.267 372.503 519.535 362.941 517.714C353.379 515.893 347.004 514.071 343.817 512.25C340.63 510.429 338.353 508.38 336.987 506.103C335.621 503.826 334.483 477.189 333.572 426.192C332.661 375.195 334.483 347.647 339.036 343.549C343.589 339.451 350.419 335.581 359.526 331.938C368.633 328.295 376.829 324.197 384.114 319.644C391.399 315.091 399.14 308.944 407.336 301.203C415.532 293.462 422.59 285.266 428.509 276.615C434.428 267.964 438.754 259.085 441.486 249.978C444.218 240.871 445.584 230.854 445.584 219.926C445.584 208.998 443.99 195.338 440.803 178.946C437.616 162.554 433.745 147.528 429.192 133.868C424.639 120.208 421.907 112.923 420.996 112.012C420.085 111.101 415.532 110.418 407.336 109.963C399.14 109.508 377.739 109.052 343.134 108.597C308.529 108.142 290.315 106.093 288.494 102.45C286.673 98.8073 283.485 94.4817 278.932 89.473C274.379 84.4643 268.004 79.6833 259.808 75.13C251.612 70.5767 242.05 68.0723 231.122 67.617C220.194 67.1617 211.543 68.0723 205.168 70.349C201.981 71.4873 198.793 72.6257 195.606 73.764C197.655 71.715 199.704 69.666 201.753 67.617C205.851 63.519 207.445 58.5103 206.534 52.591C205.623 46.6717 202.664 41.663 197.655 37.565C192.646 33.467 188.093 31.418 183.995 31.418C179.897 31.418 174.888 26.4093 168.969 16.392C163.05 6.37467 159.407 1.13833 158.041 0.683C157.358 0.455333 156.675 0.227667 155.992 0C155.537 1.82133 155.081 3.64267 154.626 5.464ZM154.626 4.098C155.309 4.098 155.992 4.098 156.675 4.098C158.041 4.098 161.456 8.879 166.92 18.441C169.652 23.222 172.384 28.003 175.116 32.784C174.433 33.0117 173.75 33.2393 173.067 33.467C171.701 33.9223 170.563 33.6947 169.652 32.784C168.741 31.8733 166.009 26.8647 161.456 17.758C159.179 13.2047 156.903 8.65133 154.626 4.098ZM185.361 34.833C189.459 35.2883 193.785 38.0203 198.338 43.029C202.891 48.0377 204.94 52.8187 204.485 57.372C204.03 61.9253 200.842 65.7957 194.923 68.983C189.004 72.1703 183.767 73.3087 179.214 72.398C174.661 71.4873 171.246 69.666 168.969 66.934C166.692 64.202 165.326 61.6977 164.871 59.421C164.416 57.1443 164.871 53.7293 166.237 49.176C167.603 44.6227 170.107 40.98 173.75 38.248C177.393 35.516 181.263 34.3777 185.361 34.833ZM233.854 71.032C242.961 71.9427 250.929 74.2193 257.759 77.862C264.589 81.5047 270.964 86.741 276.883 93.571C282.802 100.401 286.673 106.32 288.494 111.329C289.405 113.833 290.315 116.338 291.226 118.842C290.543 118.614 289.86 118.387 289.177 118.159C287.811 117.704 285.762 114.744 283.03 109.28C280.298 103.816 274.606 97.4413 265.955 90.156C257.304 82.8707 250.246 78.3173 244.782 76.496C239.318 74.6747 231.577 73.9917 221.56 74.447C211.543 74.9023 204.257 76.2683 199.704 78.545C195.151 80.8217 189.459 86.058 182.629 94.254C175.799 102.45 171.473 109.735 169.652 116.11C167.831 122.485 167.148 131.136 167.603 142.064C168.058 152.992 167.603 158.684 166.237 159.139C164.871 159.594 163.733 158.684 162.822 156.407C161.911 154.13 161.456 149.349 161.456 142.064C161.456 134.779 163.277 126.127 166.92 116.11C170.563 106.093 176.027 97.4413 183.312 90.156C190.597 82.8707 198.566 77.6343 207.217 74.447C215.868 71.2597 224.747 70.1213 233.854 71.032ZM223.609 77.862C230.439 77.862 237.497 79.228 244.782 81.96C252.067 84.692 258.67 88.5623 264.589 93.571C270.508 98.5797 275.289 104.499 278.932 111.329C280.753 114.744 282.575 118.159 284.396 121.574C281.664 122.94 278.932 124.306 276.2 125.672C270.736 128.404 267.321 129.542 265.955 129.087C265.272 128.859 264.589 128.632 263.906 128.404C265.5 127.038 267.093 125.672 268.687 124.306C271.874 121.574 273.696 119.07 274.151 116.793C274.606 114.516 273.696 111.329 271.419 107.231C269.142 103.133 266.41 100.629 263.223 99.718C260.036 98.8073 256.848 99.9457 253.661 103.133C250.474 106.32 247.514 110.418 244.782 115.427C243.416 117.931 242.05 120.436 240.684 122.94C240.456 122.257 240.229 121.574 240.001 120.891C239.546 119.525 240.456 116.338 242.733 111.329C245.01 106.32 246.148 101.312 246.148 96.303C246.148 91.2943 244.782 87.8793 242.05 86.058C239.318 84.2367 235.22 82.643 229.756 81.277C224.292 79.911 220.422 79.911 218.145 81.277C215.868 82.643 214.502 84.2367 214.047 86.058C213.592 87.8793 214.73 91.9773 217.462 98.352C218.828 101.539 220.194 104.727 221.56 107.914C218.828 104.271 216.096 100.629 213.364 96.986C207.9 89.7007 203.119 86.741 199.021 88.107C194.923 89.473 191.28 91.9773 188.093 95.62C184.906 99.2627 183.312 102.678 183.312 105.865C183.312 109.052 185.361 112.24 189.459 115.427C191.508 117.021 193.557 118.614 195.606 120.208C193.557 119.98 191.508 119.753 189.459 119.525C185.361 119.07 182.401 119.297 180.58 120.208C178.759 121.119 176.937 125.217 175.116 132.502C173.295 139.787 173.522 144.113 175.799 145.479C178.076 146.845 182.401 147.756 188.776 148.211C191.963 148.439 195.151 148.666 198.338 148.894C194.012 150.26 189.687 151.626 185.361 152.992C181.035 154.358 176.71 155.724 172.384 157.09C171.929 152.764 171.473 148.439 171.018 144.113C170.107 135.462 171.018 126.583 173.75 117.476C176.482 108.369 180.58 100.856 186.044 94.937C191.508 89.0177 197.427 84.692 203.802 81.96C210.177 79.228 216.779 77.862 223.609 77.862ZM231.805 86.741C239.546 89.0177 242.278 95.1647 240.001 105.182C238.863 110.191 237.724 115.199 236.586 120.208C235.448 119.753 234.309 119.297 233.171 118.842C230.894 117.931 229.073 116.338 227.707 114.061C226.341 111.784 224.292 107.231 221.56 100.401C218.828 93.571 217.917 89.0177 218.828 86.741C219.739 84.4643 224.064 84.4643 231.805 86.741ZM203.119 90.839C205.396 91.2943 208.811 94.937 213.364 101.767C215.641 105.182 217.917 108.597 220.194 112.012C220.649 111.557 221.105 111.101 221.56 110.646C222.015 110.191 222.471 109.735 222.926 109.28C223.154 109.963 223.381 110.646 223.609 111.329C224.064 112.695 223.837 113.606 222.926 114.061C222.471 114.289 222.015 114.516 221.56 114.744C222.243 115.427 222.926 116.11 223.609 116.793C224.975 118.159 230.439 120.891 240.001 124.989C249.563 129.087 259.125 131.819 268.687 133.185C278.249 134.551 292.364 135.234 311.033 135.234C329.702 135.234 345.866 134.096 359.526 131.819C373.186 129.542 386.163 126.127 398.457 121.574C410.751 117.021 417.581 115.427 418.947 116.793C420.313 118.159 424.411 131.136 431.241 155.724C438.071 180.312 441.714 199.891 442.169 214.462C442.624 229.033 441.941 239.278 440.12 245.197C438.299 251.116 435.111 258.174 430.558 266.37C426.005 274.566 419.858 282.762 412.117 290.958C404.376 299.154 396.408 306.212 388.212 312.131C380.016 318.05 369.543 323.97 356.794 329.889C344.045 335.808 336.076 341.045 332.889 345.598C329.702 350.151 328.791 377.471 330.157 427.558C331.523 477.645 332.889 504.054 334.255 506.786C335.621 509.518 337.898 511.795 341.085 513.616C344.272 515.437 351.558 517.714 362.941 520.446C374.324 523.178 382.293 525.91 386.846 528.642C391.399 531.374 393.904 534.334 394.359 537.521C394.814 540.708 394.587 542.985 393.676 544.351C392.765 545.717 389.806 548.221 384.797 551.864C379.788 555.507 373.869 558.466 367.039 560.743C360.209 563.02 347.687 564.613 329.474 565.524C311.261 566.435 297.145 565.979 287.128 564.158C277.111 562.337 268.915 560.06 262.54 557.328C256.165 554.596 251.84 552.092 249.563 549.815C247.286 547.538 245.92 544.579 245.465 540.936C245.01 537.293 245.465 534.561 246.831 532.74C248.197 530.919 257.076 527.504 273.468 522.495C289.86 517.486 299.877 512.478 303.52 507.469C307.163 502.46 309.439 475.596 310.35 426.875C311.261 378.154 310.805 351.517 308.984 346.964C307.163 342.411 298.739 336.947 283.713 330.572C268.687 324.197 258.214 318.961 252.295 314.863C246.376 310.765 240.456 305.984 234.537 300.52C228.618 295.056 222.926 288.454 217.462 280.713C211.998 272.972 207.672 264.321 204.485 254.759C201.298 245.197 199.476 236.546 199.021 228.805C198.566 221.064 199.704 207.404 202.436 187.825C205.168 168.246 207.217 155.724 208.583 150.26C209.949 144.796 211.087 141.836 211.998 141.381C212.909 140.926 214.047 136.372 215.413 127.721C216.096 123.395 216.779 119.07 217.462 114.744C216.324 115.882 215.185 117.021 214.047 118.159C211.77 120.436 208.128 120.663 203.119 118.842C198.11 117.021 194.012 114.744 190.825 112.012C187.638 109.28 186.272 106.776 186.727 104.499C187.182 102.222 189.459 99.2627 193.557 95.62C197.655 91.9773 200.842 90.3837 203.119 90.839ZM263.223 105.182C266.41 107.003 268.232 109.735 268.687 113.378C269.142 117.021 267.549 120.208 263.906 122.94C260.263 125.672 256.393 126.583 252.295 125.672C250.246 125.217 248.197 124.761 246.148 124.306C246.831 122.257 247.514 120.208 248.197 118.159C249.563 114.061 251.612 110.418 254.344 107.231C257.076 104.044 260.036 103.361 263.223 105.182ZM292.592 110.646C312.171 111.329 331.751 112.012 351.33 112.695C370.909 113.378 390.489 114.061 410.068 114.744C405.287 116.338 400.506 117.931 395.725 119.525C386.163 122.712 376.373 125.217 366.356 127.038C356.339 128.859 341.996 130.225 323.327 131.136C304.658 132.047 291.681 132.274 284.396 131.819C277.111 131.364 273.468 130.681 273.468 129.77C273.468 128.859 277.111 127.038 284.396 124.306C291.681 121.574 294.869 118.614 293.958 115.427C293.503 113.833 293.047 112.24 292.592 110.646ZM201.07 121.574C202.891 122.029 204.713 122.485 206.534 122.94C210.177 123.851 211.998 124.989 211.998 126.355C211.998 127.038 211.998 127.721 211.998 128.404C210.177 127.266 208.355 126.127 206.534 124.989C204.713 123.851 202.891 122.712 201.07 121.574ZM187.41 122.94C191.053 122.94 195.834 124.078 201.753 126.355C207.672 128.632 210.177 131.591 209.266 135.234C208.355 138.877 205.851 141.381 201.753 142.747C197.655 144.113 192.419 144.568 186.044 144.113C179.669 143.658 176.482 141.836 176.482 138.649C176.482 135.462 177.393 132.047 179.214 128.404C181.035 124.761 183.767 122.94 187.41 122.94ZM304.886 165.969C303.065 167.335 302.154 168.929 302.154 170.75C302.154 172.571 300.56 176.442 297.373 182.361C294.186 188.28 290.315 191.012 285.762 190.557C281.209 190.102 278.704 188.736 278.249 186.459C277.794 184.182 276.428 182.133 274.151 180.312C271.874 178.491 263.678 178.718 249.563 180.995C235.448 183.272 226.569 185.321 222.926 187.142C219.283 188.963 215.641 191.695 211.998 195.338C208.355 198.981 206.989 208.315 207.9 223.341C208.811 238.367 212.909 252.255 220.194 265.004C227.479 277.753 236.586 288.681 247.514 297.788C258.442 306.895 266.183 312.586 270.736 314.863C275.289 317.14 283.485 319.644 295.324 322.376C307.163 325.108 319.912 325.791 333.572 324.425C347.232 323.059 359.526 319.644 370.454 314.18C381.382 308.716 392.31 300.292 403.238 288.909C414.166 277.526 421.907 265.232 426.46 252.027C431.013 238.822 433.062 225.162 432.607 211.047C432.152 196.932 428.737 188.508 422.362 185.776C415.987 183.044 407.336 181.45 396.408 180.995C385.48 180.54 378.195 181.223 374.552 183.044C372.731 183.955 370.909 184.865 369.088 185.776C376.146 185.548 383.203 185.321 390.261 185.093C404.376 184.638 414.166 185.548 419.63 187.825C422.362 188.963 425.094 190.102 427.826 191.24C422.817 192.378 417.809 193.517 412.8 194.655C402.783 196.932 385.025 202.623 359.526 211.73C334.027 220.837 311.716 225.162 292.592 224.707C273.468 224.252 255.938 221.064 240.001 215.145C224.064 209.226 215.185 205.583 213.364 204.217C211.543 202.851 211.315 201.03 212.681 198.753C214.047 196.476 216.551 194.2 220.194 191.923C223.837 189.646 228.39 188.053 233.854 187.142C236.586 186.687 239.318 186.231 242.05 185.776C240.456 187.37 238.863 188.963 237.269 190.557C234.082 193.744 232.716 196.021 233.171 197.387C233.399 198.07 233.626 198.753 233.854 199.436C236.131 196.932 238.407 194.427 240.684 191.923C245.237 186.914 251.384 183.727 259.125 182.361C266.866 180.995 271.647 181.223 273.468 183.044C275.289 184.865 276.428 187.37 276.883 190.557C277.338 193.744 278.477 196.704 280.298 199.436C282.119 202.168 282.575 204.445 281.664 206.266C280.753 208.087 278.477 209.681 274.834 211.047C271.191 212.413 267.093 213.096 262.54 213.096C257.987 213.096 255.482 212.641 255.027 211.73C254.572 210.819 251.612 209.681 246.148 208.315C240.684 206.949 237.497 205.583 236.586 204.217C235.675 202.851 234.765 202.396 233.854 202.851C233.399 203.079 232.943 203.306 232.488 203.534C233.399 204.445 234.309 205.355 235.22 206.266C237.041 208.087 241.139 210.136 247.514 212.413C253.889 214.69 259.808 215.828 265.272 215.828C270.736 215.828 276.2 214.234 281.664 211.047C287.128 207.86 290.315 204.217 291.226 200.119C292.137 196.021 294.641 189.874 298.739 181.678C302.837 173.482 306.024 168.701 308.301 167.335C310.578 165.969 317.635 165.969 329.474 167.335C341.313 168.701 348.598 171.661 351.33 176.214C354.062 180.767 357.022 184.182 360.209 186.459C363.396 188.736 365.218 191.012 365.673 193.289C366.128 195.566 365.901 197.615 364.99 199.436C364.079 201.257 360.664 203.762 354.745 206.949C348.826 210.136 340.174 213.096 328.791 215.828C323.099 217.194 317.408 218.56 311.716 219.926C312.854 217.194 313.993 214.462 315.131 211.73C317.408 206.266 318.546 202.168 318.546 199.436C318.546 198.07 318.546 196.704 318.546 195.338C317.18 198.298 315.814 201.257 314.448 204.217C311.716 210.136 310.35 214.69 310.35 217.877C310.35 219.471 310.35 221.064 310.35 222.658C307.163 220.609 303.975 218.56 300.788 216.511C294.413 212.413 290.771 210.364 289.86 210.364C289.405 210.364 288.949 210.364 288.494 210.364C288.949 211.275 289.405 212.185 289.86 213.096C290.771 214.917 294.413 217.194 300.788 219.926C307.163 222.658 316.042 222.658 327.425 219.926C338.808 217.194 347.004 214.234 352.013 211.047C357.022 207.86 360.209 206.494 361.575 206.949C362.941 207.404 364.535 205.128 366.356 200.119C368.177 195.11 365.673 188.508 358.843 180.312C352.013 172.116 341.768 167.335 328.108 165.969C314.448 164.603 306.707 164.603 304.886 165.969ZM315.814 176.897C319.457 181.906 321.961 184.638 323.327 185.093C324.01 185.321 324.693 185.548 325.376 185.776C325.148 184.865 324.921 183.955 324.693 183.044C324.238 181.223 321.733 178.491 317.18 174.848C314.903 173.027 312.627 171.205 310.35 169.384C312.171 171.888 313.993 174.393 315.814 176.897ZM263.223 184.41C261.857 185.321 261.174 186.687 261.174 188.508C261.174 189.419 261.174 190.329 261.174 191.24C262.54 190.102 263.906 188.963 265.272 187.825C266.638 186.687 268.004 185.548 269.37 184.41C268.687 184.182 268.004 183.955 267.321 183.727C265.955 183.272 264.589 183.499 263.223 184.41ZM329.474 185.776C329.474 186.687 333.572 188.053 341.768 189.874C345.866 190.785 349.964 191.695 354.062 192.606C354.062 192.151 354.062 191.695 354.062 191.24C354.062 190.329 352.924 189.419 350.647 188.508C348.37 187.597 344.272 186.687 338.353 185.776C335.393 185.321 332.434 184.865 329.474 184.41C329.474 184.865 329.474 185.321 329.474 185.776ZM251.612 193.289C249.791 194.655 247.742 195.338 245.465 195.338C243.188 195.338 241.822 196.021 241.367 197.387C241.139 198.07 240.912 198.753 240.684 199.436C243.416 198.525 246.148 197.615 248.88 196.704C251.612 195.793 254.344 194.883 257.076 193.972C256.621 193.517 256.165 193.061 255.71 192.606C254.799 191.695 253.433 191.923 251.612 193.289ZM281.664 192.606C283.03 193.061 284.396 193.517 285.762 193.972C288.494 194.883 289.405 197.159 288.494 200.802C288.039 202.623 287.583 204.445 287.128 206.266C286.217 203.989 285.307 201.713 284.396 199.436C283.485 197.159 282.575 194.883 281.664 192.606ZM427.826 193.972C428.054 201.03 428.281 208.087 428.509 215.145C428.964 229.26 427.371 241.554 423.728 252.027C420.085 262.5 412.8 273.655 401.872 285.494C390.944 297.333 382.52 305.073 376.601 308.716C370.682 312.359 364.079 315.546 356.794 318.278C349.509 321.01 338.808 322.376 324.693 322.376C310.578 322.376 297.601 320.555 285.762 316.912C273.923 313.269 262.312 306.895 250.929 297.788C239.546 288.681 231.122 279.575 225.658 270.468C220.194 261.361 216.324 253.621 214.047 247.246C211.77 240.871 210.404 232.448 209.949 221.975C209.721 216.739 209.494 211.502 209.266 206.266C217.234 209.453 225.203 212.641 233.171 215.828C249.108 222.203 264.817 226.073 280.298 227.439C295.779 228.805 304.431 230.626 306.252 232.903C308.073 235.18 310.805 237.001 314.448 238.367C318.091 239.733 321.733 240.416 325.376 240.416C329.019 240.416 332.206 239.733 334.938 238.367C337.67 237.001 341.54 233.131 346.549 226.756C351.558 220.381 356.794 216.283 362.258 214.462C364.99 213.551 367.722 212.641 370.454 211.73C368.177 216.056 365.901 220.381 363.624 224.707C359.071 233.358 357.705 239.505 359.526 243.148C361.347 246.791 363.852 250.206 367.039 253.393C370.226 256.58 376.601 258.629 386.163 259.54C395.725 260.451 402.327 257.946 405.97 252.027C409.613 246.108 411.889 240.871 412.8 236.318C413.711 231.765 412.117 227.211 408.019 222.658C403.921 218.105 397.774 214.69 389.578 212.413C385.48 211.275 381.382 210.136 377.284 208.998C381.382 207.404 385.48 205.811 389.578 204.217C397.774 201.03 406.198 198.525 414.849 196.704C419.175 195.793 423.5 194.883 427.826 193.972ZM266.638 202.851C268.004 205.355 269.37 207.86 270.736 210.364C270.508 208.998 270.281 207.632 270.053 206.266C269.598 203.534 268.232 201.03 265.955 198.753C264.817 197.615 263.678 196.476 262.54 195.338C263.906 197.842 265.272 200.347 266.638 202.851ZM386.846 214.462C395.042 216.283 400.961 219.015 404.604 222.658C408.247 226.301 410.068 230.171 410.068 234.269C410.068 238.367 408.247 243.376 404.604 249.295C400.961 255.214 394.587 257.719 385.48 256.808C376.373 255.897 369.771 252.71 365.673 247.246C361.575 241.782 362.03 234.497 367.039 225.39C372.048 216.283 378.65 212.641 386.846 214.462ZM347.232 220.609C347.687 220.837 348.143 221.064 348.598 221.292C348.143 221.975 347.687 222.658 347.232 223.341C346.321 224.707 343.362 227.439 338.353 231.537C333.344 235.635 326.742 236.546 318.546 234.269C310.35 231.992 306.252 230.399 306.252 229.488C306.252 229.033 306.252 228.577 306.252 228.122C308.984 228.122 311.716 228.122 314.448 228.122C319.912 228.122 326.514 226.756 334.255 224.024C341.996 221.292 346.321 220.154 347.232 220.609ZM389.578 227.439C390.489 228.805 393.221 229.943 397.774 230.854C400.051 231.309 402.327 231.765 404.604 232.22C401.872 231.082 399.14 229.943 396.408 228.805C393.676 227.667 390.944 226.528 388.212 225.39C388.667 226.073 389.123 226.756 389.578 227.439ZM253.661 236.318C249.563 242.693 248.425 250.661 250.246 260.223C252.067 269.785 255.255 275.021 259.808 275.932C264.361 276.843 270.281 277.07 277.566 276.615C284.851 276.16 289.632 273.655 291.909 269.102C294.186 264.549 295.324 259.312 295.324 253.393C295.324 247.474 294.641 242.465 293.275 238.367C291.909 234.269 286.445 231.765 276.883 230.854C267.321 229.943 262.085 229.033 261.174 228.122C260.719 227.667 260.263 227.211 259.808 226.756C257.759 229.943 255.71 233.131 253.661 236.318ZM274.151 232.903C278.932 233.131 283.713 233.358 288.494 233.586C287.583 235.18 286.673 236.773 285.762 238.367C284.851 239.961 283.941 241.554 283.03 243.148C284.396 242.237 285.762 241.327 287.128 240.416C288.494 239.505 289.86 238.595 291.226 237.684C291.681 241.327 292.137 244.969 292.592 248.612C293.503 255.897 292.592 262.044 289.86 267.053C287.128 272.062 280.526 274.111 270.053 273.2C259.58 272.289 253.661 267.736 252.295 259.54C250.929 251.344 251.84 244.742 255.027 239.733C258.214 234.724 264.589 232.448 274.151 232.903ZM374.552 238.367C372.731 241.554 371.82 244.286 371.82 246.563C371.82 247.701 371.82 248.84 371.82 249.978C372.958 248.384 374.097 246.791 375.235 245.197C377.512 242.01 378.878 239.278 379.333 237.001C379.561 235.863 379.788 234.724 380.016 233.586C379.561 233.586 379.105 233.586 378.65 233.586C377.739 233.586 376.373 235.18 374.552 238.367ZM355.428 243.148C355.428 243.603 355.428 244.059 355.428 244.514C350.875 244.514 346.321 244.514 341.768 244.514C332.661 244.514 322.644 248.157 311.716 255.442C300.788 262.727 295.324 267.736 295.324 270.468C295.324 273.2 297.601 281.396 302.154 295.056C306.707 308.716 313.993 316.457 324.01 318.278C334.027 320.099 340.174 319.872 342.451 317.595C344.728 315.318 350.192 311.903 358.843 307.35C367.494 302.797 370.909 294.145 369.088 281.396C367.267 268.647 364.99 258.857 362.258 252.027C359.526 245.197 357.705 241.782 356.794 241.782C356.339 241.782 355.883 241.782 355.428 241.782C355.428 242.237 355.428 242.693 355.428 243.148ZM253.661 248.612C254.116 249.523 255.938 250.206 259.125 250.661C262.312 251.116 266.638 251.116 272.102 250.661C277.566 250.206 280.298 249.523 280.298 248.612C280.298 248.157 280.298 247.701 280.298 247.246C275.745 247.246 271.191 247.246 266.638 247.246C262.085 247.246 257.531 247.246 252.978 247.246C253.206 247.701 253.433 248.157 253.661 248.612ZM351.33 247.929C355.883 248.384 360.209 256.808 364.307 273.2C368.405 289.592 365.218 301.203 354.745 308.033C344.272 314.863 334.255 317.595 324.693 316.229C315.131 314.863 308.301 306.439 304.203 290.958C300.105 275.477 302.609 264.549 311.716 258.174C320.823 251.799 328.563 248.384 334.938 247.929C341.313 247.474 346.777 247.474 351.33 247.929ZM341.085 258.174C336.987 260.906 334.71 262.955 334.255 264.321C334.027 265.004 333.8 265.687 333.572 266.37C335.849 265.232 338.125 264.093 340.402 262.955C344.955 260.678 347.687 259.085 348.598 258.174C349.053 257.719 349.509 257.263 349.964 256.808C349.509 256.353 349.053 255.897 348.598 255.442C347.687 254.531 345.183 255.442 341.085 258.174ZM282.347 264.321C282.802 268.419 283.485 270.468 284.396 270.468C284.851 270.468 285.307 270.468 285.762 270.468C285.534 268.419 285.307 266.37 285.079 264.321C284.624 260.223 283.941 258.174 283.03 258.174C282.575 258.174 282.119 258.174 281.664 258.174C281.892 260.223 282.119 262.272 282.347 264.321ZM306.935 268.419C308.301 269.785 311.261 270.468 315.814 270.468C318.091 270.468 320.367 270.468 322.644 270.468C322.189 269.785 321.733 269.102 321.278 268.419C320.367 267.053 317.408 266.37 312.399 266.37C309.895 266.37 307.39 266.37 304.886 266.37C305.569 267.053 306.252 267.736 306.935 268.419ZM332.889 288.226C333.344 294.601 334.255 298.471 335.621 299.837C336.304 300.52 336.987 301.203 337.67 301.886C337.442 299.382 337.215 296.877 336.987 294.373C336.532 289.364 335.621 285.494 334.255 282.762C333.572 281.396 332.889 280.03 332.206 278.664C332.434 281.851 332.661 285.039 332.889 288.226ZM326.742 335.353C322.189 336.719 317.408 336.947 312.399 336.036C307.39 335.125 304.658 335.125 304.203 336.036C303.975 336.491 303.748 336.947 303.52 337.402C306.707 337.857 309.895 338.313 313.082 338.768C319.457 339.679 325.148 339.451 330.157 338.085C335.166 336.719 337.67 335.581 337.67 334.67C337.67 334.215 337.67 333.759 337.67 333.304C336.987 333.304 336.304 333.304 335.621 333.304C334.255 333.304 331.295 333.987 326.742 335.353ZM330.157 505.42C331.523 509.973 334.71 514.527 339.719 519.08C342.223 521.357 344.728 523.633 347.232 525.91C345.183 523.633 343.134 521.357 341.085 519.08C336.987 514.527 333.8 509.973 331.523 505.42C330.385 503.143 329.246 500.867 328.108 498.59C328.791 500.867 329.474 503.143 330.157 505.42ZM308.301 505.42C306.935 509.063 304.886 512.25 302.154 514.982C299.422 517.714 295.324 519.991 289.86 521.812C284.396 523.633 281.664 524.999 281.664 525.91C281.664 526.365 281.664 526.821 281.664 527.276C284.851 526.138 288.039 524.999 291.226 523.861C297.601 521.584 302.382 518.625 305.569 514.982C308.756 511.339 310.35 507.924 310.35 504.737C310.35 503.143 310.35 501.55 310.35 499.956C309.667 501.777 308.984 503.599 308.301 505.42ZM375.235 545.034C368.405 550.498 360.892 554.141 352.696 555.962C344.5 557.783 331.978 558.466 315.131 558.011C298.284 557.556 286.445 555.962 279.615 553.23C272.785 550.498 268.232 547.994 265.955 545.717C264.817 544.579 263.678 543.44 262.54 542.302C262.085 542.757 261.629 543.213 261.174 543.668C260.719 544.123 260.263 544.579 259.808 545.034C263.906 547.311 268.004 549.587 272.102 551.864C280.298 556.417 294.413 559.149 314.448 560.06C334.483 560.971 348.598 560.288 356.794 558.011C364.99 555.734 372.048 552.319 377.967 547.766C383.886 543.213 386.618 540.253 386.163 538.887C385.935 538.204 385.708 537.521 385.48 536.838C382.065 539.57 378.65 542.302 375.235 545.034Z" fill="#000000" fill-rule="nonzero" opacity="1" stroke="none" vectornator:layerName="Courbe 1"/>
</g>
</svg>
