<?xml version="1.0" encoding="UTF-8" standalone="no"?>
<!DOCTYPE svg PUBLIC "-//W3C//DTD SVG 1.1//EN" "http://www.w3.org/Graphics/SVG/1.1/DTD/svg11.dtd">
<!-- Created with Vectornator (http://vectornator.io/) -->
<svg height="100%" stroke-miterlimit="10" style="fill-rule:nonzero;clip-rule:evenodd;stroke-linecap:round;stroke-linejoin:round;" version="1.1" viewBox="0 0 600 600" width="100%" xml:space="preserve" xmlns="http://www.w3.org/2000/svg" xmlns:vectornator="http://vectornator.io" xmlns:xlink="http://www.w3.org/1999/xlink">
<defs/>
<g id="Calque-1" vectornator:layerName="Calque 1">
<path d="M393.236 39.1059C392.275 42.6658 391.314 46.2258 390.352 49.7858C389.712 49.5315 389.071 49.2772 388.43 49.0229C387.148 48.5143 386.187 45.7172 385.546 40.6316C385.226 38.0887 384.906 35.5459 384.585 33.0031C383.945 33.2574 383.304 33.5117 382.663 33.7659C381.381 34.2745 381.702 39.6144 383.624 49.7858C385.546 59.9571 384.906 66.5684 381.702 69.6198C378.498 72.6712 375.614 78.2654 373.051 86.4025C371.769 90.471 370.488 94.5395 369.206 98.608C369.847 98.608 370.488 98.608 371.129 98.608C372.41 98.608 375.294 93.5224 379.779 83.3511C384.265 73.1798 393.236 67.8398 406.693 67.3313C420.15 66.8227 426.878 65.8056 426.878 64.2799C426.878 63.517 426.878 62.7542 426.878 61.9913C426.237 62.4999 425.596 63.0085 424.956 63.517C423.674 64.5342 419.829 64.7884 413.421 64.2799C410.217 64.0256 407.013 63.7713 403.809 63.517C407.654 61.2285 411.499 58.9399 415.344 56.6514C419.188 54.3628 423.033 52.0743 426.878 49.7858C422.072 51.3114 417.266 52.8371 412.46 54.3628C407.654 55.8885 402.848 57.4142 398.042 58.9399C401.566 56.1428 405.091 53.3457 408.615 50.5486C412.14 47.7515 415.664 44.9544 419.188 42.1573C418.227 42.1573 417.266 42.1573 416.305 42.1573C414.382 42.1573 410.858 44.1915 405.732 48.2601C403.168 50.2943 400.605 52.3286 398.042 54.3628C400.605 50.2943 403.168 46.2258 405.732 42.1573C408.295 38.0887 410.858 34.0202 413.421 29.9517C412.78 29.9517 412.14 29.9517 411.499 29.9517C410.217 29.9517 407.013 33.2574 401.887 39.8687C399.324 43.1744 396.76 46.4801 394.197 49.7858C394.518 46.2258 394.838 42.6658 395.158 39.1059C395.479 35.5459 395.799 31.986 396.12 28.426C395.158 31.986 394.197 35.5459 393.236 39.1059ZM224.065 68.0941C225.027 76.7397 225.988 85.3853 226.949 94.031C222.784 87.4196 218.619 80.8083 214.454 74.1969C206.123 60.9742 200.997 53.8543 199.074 52.8371C198.113 52.3286 197.152 51.82 196.191 51.3114C196.511 53.0914 196.832 54.8714 197.152 56.6514C197.793 60.2113 200.676 65.8056 205.803 73.4341C210.929 81.0625 213.172 85.6396 212.531 87.1653C212.211 87.9282 211.89 88.691 211.57 89.4539C205.482 83.3511 199.395 77.2483 193.307 71.1455C187.22 65.0427 181.132 58.9399 175.044 52.8371C176.967 56.1428 178.889 59.4485 180.812 62.7542C184.656 69.3655 192.026 77.5026 202.919 87.1653C208.366 91.9967 213.813 96.8281 219.259 101.659C211.89 97.5909 204.521 93.5224 197.152 89.4539C182.414 81.3168 173.122 76.4854 169.277 74.9597C165.432 73.4341 162.549 72.9255 160.626 73.4341C159.665 73.6883 158.704 73.9426 157.743 74.1969C164.792 78.5197 171.84 82.8425 178.889 87.1653C192.987 95.8109 204.201 101.659 212.531 104.711C220.861 107.762 225.027 113.356 225.027 121.493C225.027 129.631 224.706 135.225 224.065 138.276C223.745 139.802 223.425 141.328 223.104 142.853C221.823 142.599 220.541 142.345 219.259 142.09C217.978 141.836 216.696 141.582 215.415 141.328C216.055 144.379 216.696 147.43 217.337 150.482C218.619 156.585 218.939 160.399 218.298 161.924C217.978 162.687 217.657 163.45 217.337 164.213C216.376 163.704 215.415 163.196 214.454 162.687C213.492 162.179 212.531 161.67 211.57 161.162C211.89 162.687 212.211 164.213 212.531 165.739C213.172 168.79 216.696 172.35 223.104 176.419C229.512 180.487 238.483 183.538 250.018 185.573C261.552 187.607 267.96 199.304 269.242 220.664C270.523 242.024 266.358 253.721 256.746 255.755C247.134 257.789 240.406 253.975 236.561 244.312C232.716 234.649 227.59 225.495 221.182 216.85C214.774 208.204 210.288 203.118 207.725 201.593C205.162 200.067 203.88 192.184 203.88 177.944C203.88 163.704 203.24 154.55 201.958 150.482C200.676 146.413 199.395 143.87 198.113 142.853C197.472 142.345 196.832 141.836 196.191 141.328C196.191 145.142 196.191 148.956 196.191 152.77C196.191 156.585 196.191 160.399 196.191 164.213C192.666 156.585 189.142 148.956 185.618 141.328C182.093 133.699 178.569 126.071 175.044 118.442C174.404 118.951 173.763 119.459 173.122 119.968C171.84 120.985 175.044 131.156 182.734 150.482C186.579 160.144 190.424 169.807 194.268 179.47C190.424 174.639 186.579 169.807 182.734 164.976C175.044 155.313 168.316 148.447 162.549 144.379C156.782 140.31 151.335 137.513 146.209 135.988C143.645 135.225 141.082 134.462 138.519 133.699C142.043 135.733 145.568 137.768 149.092 139.802C156.141 143.87 163.51 151.245 171.2 161.924C175.044 167.264 178.889 172.604 182.734 177.944C174.724 173.367 166.714 168.79 158.704 164.213C142.684 155.059 133.713 150.227 131.791 149.719C130.829 149.465 129.868 149.21 128.907 148.956C128.907 149.465 128.907 149.973 128.907 150.482C128.907 151.499 139.801 158.619 161.588 171.841C172.481 178.453 183.375 185.064 194.268 191.676C187.54 190.404 180.812 189.133 174.083 187.861C160.626 185.318 149.413 181.25 140.441 175.656C131.47 170.062 126.344 167.519 125.062 168.027C124.421 168.282 123.781 168.536 123.14 168.79C127.946 172.096 132.752 175.401 137.558 178.707C147.17 185.318 159.665 189.896 175.044 192.438C190.424 194.981 201.317 200.067 207.725 207.695C214.133 215.324 221.182 226.512 228.871 241.261C236.561 256.009 237.843 264.655 232.716 267.198C227.59 269.74 222.143 274.063 216.376 280.166C210.609 286.269 206.123 294.66 202.919 305.34C199.715 316.02 198.113 325.428 198.113 333.565C198.113 341.702 199.074 347.297 200.997 350.348C202.919 353.399 193.628 360.011 173.122 370.182C152.617 380.353 137.237 384.676 126.985 383.15C116.732 381.625 106.479 381.116 96.2263 381.625C91.0999 381.879 85.9736 382.133 80.8472 382.388C81.1676 382.896 81.488 383.405 81.8084 383.913C82.4492 384.93 90.4591 385.439 105.838 385.439C113.528 385.439 121.217 385.439 128.907 385.439C128.907 385.948 128.907 386.456 128.907 386.965C128.907 387.982 122.499 389.508 109.683 391.542C96.8671 393.576 87.2552 396.119 80.8472 399.17C74.4392 402.222 70.9148 404.51 70.274 406.036C69.9536 406.799 69.6332 407.562 69.3128 408.324C73.478 406.544 77.6432 404.765 81.8084 402.985C90.1387 399.425 100.071 396.627 111.605 394.593C117.373 393.576 123.14 392.559 128.907 391.542C122.179 395.102 115.45 398.662 108.722 402.222C95.2651 409.342 87.2552 413.919 84.692 415.953C82.1288 417.987 81.1676 419.513 81.8084 420.53C82.1288 421.039 82.4492 421.547 82.7696 422.056C91.4203 417.479 100.071 412.902 108.722 408.324C117.373 403.747 126.023 399.17 134.674 394.593C127.946 401.459 121.217 408.324 114.489 415.19C101.032 428.921 94.9447 436.296 96.2263 437.313C96.8671 437.821 97.5079 438.33 98.1487 438.838C105.197 431.464 112.246 424.09 119.295 416.716C126.344 409.342 133.393 401.967 140.441 394.593C138.839 399.17 137.237 403.747 135.635 408.324C132.431 417.479 128.587 425.616 124.101 432.736C121.858 436.296 119.615 439.856 117.373 443.415C119.615 441.127 121.858 438.838 124.101 436.55C128.587 431.973 133.393 429.684 138.519 429.684C141.082 429.684 143.645 429.684 146.209 429.684C145.888 431.21 145.568 432.736 145.247 434.261C144.927 435.787 144.607 437.313 144.286 438.838C145.247 437.313 146.209 435.787 147.17 434.261C149.092 431.21 152.937 429.684 158.704 429.684C164.471 429.684 169.277 430.447 173.122 431.973C175.044 432.736 176.967 433.498 178.889 434.261C174.083 435.024 169.277 435.787 164.471 436.55C154.859 438.076 145.247 440.873 135.635 444.941C126.023 449.01 120.577 451.807 119.295 453.333C118.654 454.095 118.013 454.858 117.373 455.621C118.654 455.621 119.936 455.621 121.217 455.621C123.781 455.621 129.548 453.333 138.519 448.755C147.49 444.178 156.141 441.381 164.471 440.364C168.636 439.856 172.802 439.347 176.967 438.838C171.2 442.144 165.432 445.45 159.665 448.755C148.131 455.367 139.48 461.47 133.713 467.064C130.829 469.861 127.946 472.658 125.062 475.455C126.023 475.455 126.985 475.455 127.946 475.455C129.868 475.455 132.431 473.675 135.635 470.115C138.839 466.555 147.49 460.961 161.588 453.333C168.636 449.518 175.685 445.704 182.734 441.89C181.132 444.433 179.53 446.975 177.928 449.518C174.724 454.604 169.598 459.944 162.549 465.538C155.5 471.132 150.053 476.472 146.209 481.558C144.286 484.101 142.364 486.644 140.441 489.186C146.209 484.609 151.976 480.032 157.743 475.455C169.277 466.301 176.967 458.927 180.812 453.333C182.734 450.535 184.656 447.738 186.579 444.941C185.618 448.501 184.656 452.061 183.695 455.621C181.773 462.741 178.248 470.624 173.122 479.269C167.996 487.915 165.432 492.746 165.432 493.763C165.432 494.272 165.432 494.781 165.432 495.289C166.394 494.781 167.355 494.272 168.316 493.763C170.238 492.746 174.724 484.609 181.773 469.352C185.297 461.724 188.822 454.095 192.346 446.467C192.346 450.027 192.346 453.587 192.346 457.147C192.346 464.267 191.064 468.589 188.501 470.115C187.22 470.878 185.938 471.641 184.656 472.404C185.938 472.404 187.22 472.404 188.501 472.404C189.783 472.404 191.064 472.404 192.346 472.404C192.026 474.184 191.705 475.964 191.385 477.744C191.064 479.524 190.744 481.304 190.424 483.084C191.064 483.084 191.705 483.084 192.346 483.084C193.628 483.084 194.589 480.795 195.23 476.218C195.87 471.641 199.715 468.335 206.764 466.301C213.813 464.267 219.259 463.504 223.104 464.012C225.027 464.267 226.949 464.521 228.871 464.775C224.386 467.318 219.9 469.861 215.415 472.404C206.444 477.489 197.793 484.355 189.462 493.001C185.297 497.323 181.132 501.646 176.967 505.969C181.132 502.409 185.297 498.849 189.462 495.289C197.793 488.169 206.444 482.066 215.415 476.981C219.9 474.438 224.386 471.895 228.871 469.352C225.027 473.675 221.182 477.998 217.337 482.321C209.648 490.966 204.201 498.086 200.997 503.681C197.793 509.275 196.832 512.326 198.113 512.835C199.395 513.343 203.56 508.258 210.609 497.578C217.657 486.898 223.425 479.524 227.91 475.455C230.153 473.421 232.396 471.387 234.639 469.352C232.075 477.489 229.512 485.626 226.949 493.763C224.386 501.901 221.823 510.038 219.259 518.175C221.182 515.632 223.104 513.089 225.027 510.546C228.871 505.46 232.396 497.832 235.6 487.661C237.202 482.575 238.804 477.489 240.406 472.404C240.406 481.049 240.406 489.695 240.406 498.341C240.406 506.986 240.406 515.632 240.406 524.277C241.367 523.515 242.328 522.752 243.289 521.989C245.212 520.463 245.853 511.818 245.212 496.052C244.891 488.169 244.571 480.286 244.251 472.404C246.173 475.455 248.095 478.507 250.018 481.558C253.863 487.661 255.785 493.001 255.785 497.578C255.785 499.866 255.785 502.155 255.785 504.443C257.707 500.375 259.63 496.306 261.552 492.238C265.397 484.101 268.921 478.507 272.125 475.455C273.727 473.929 275.329 472.404 276.931 470.878C275.329 475.964 273.727 481.049 272.125 486.135C268.921 496.306 267.319 503.426 267.319 507.495C267.319 511.563 267.96 514.106 269.242 515.123C269.883 515.632 270.523 516.14 271.164 516.649C271.485 512.835 271.805 509.02 272.125 505.206C272.766 497.578 275.009 488.932 278.854 479.269C280.776 474.438 282.698 469.607 284.621 464.775C284.3 470.369 283.98 475.964 283.66 481.558C283.019 492.746 283.339 502.409 284.621 510.546C285.902 518.683 287.184 522.752 288.466 522.752C289.106 522.752 289.747 522.752 290.388 522.752C290.068 513.852 289.747 504.952 289.427 496.052C289.106 487.152 288.786 478.252 288.466 469.352C293.272 477.744 298.078 486.135 302.884 494.526C307.69 502.918 312.496 511.309 317.302 519.7C316.02 515.378 314.738 511.055 313.457 506.732C310.894 498.086 307.369 489.949 302.884 482.321C300.641 478.507 298.398 474.692 296.155 470.878C300.32 474.438 304.486 477.998 308.651 481.558C316.981 488.678 323.069 495.035 326.914 500.629C330.758 506.223 333.321 508.766 334.603 508.258C335.244 508.003 335.885 507.749 336.525 507.495C334.283 504.189 332.04 500.883 329.797 497.578C325.312 490.966 319.224 484.101 311.534 476.981C307.69 473.421 303.845 469.861 300 466.301C305.126 468.335 310.253 470.369 315.379 472.404C325.632 476.472 333.001 480.286 337.487 483.846C341.972 487.406 344.535 490.966 345.176 494.526C345.817 498.086 347.099 500.629 349.021 502.155C349.982 502.918 350.943 503.681 351.905 504.443C351.264 502.918 350.623 501.392 349.982 499.866C348.701 496.815 348.38 487.406 349.021 471.641C349.341 463.758 349.662 455.875 349.982 447.993C349.982 451.553 349.982 455.112 349.982 458.672C349.982 465.792 351.905 473.421 355.749 481.558C359.594 489.695 363.439 495.798 367.284 499.866C369.206 501.901 371.129 503.935 373.051 505.969C370.167 500.375 367.284 494.781 364.4 489.186C358.633 477.998 355.429 470.115 354.788 465.538C354.468 463.25 354.147 460.961 353.827 458.672C357.672 464.012 361.517 469.352 365.361 474.692C373.051 485.372 378.177 491.983 380.741 494.526C383.304 497.069 385.226 498.086 386.508 497.578C387.148 497.323 387.789 497.069 388.43 496.815C383.945 491.729 379.459 486.644 374.973 481.558C366.002 471.387 360.555 464.012 358.633 459.435C357.672 457.147 356.711 454.858 355.749 452.57C359.915 454.604 364.08 456.638 368.245 458.672C376.575 462.741 385.546 468.589 395.158 476.218C404.77 483.846 410.538 487.406 412.46 486.898C413.421 486.644 414.382 486.389 415.344 486.135C411.178 482.829 407.013 479.524 402.848 476.218C394.518 469.607 384.906 463.25 374.012 457.147C368.565 454.095 363.119 451.044 357.672 447.993C362.478 449.264 367.284 450.535 372.09 451.807C381.702 454.35 391.954 458.164 402.848 463.25C408.295 465.792 413.742 468.335 419.188 470.878C418.868 470.115 418.548 469.352 418.227 468.589C417.586 467.064 412.78 464.012 403.809 459.435C394.838 454.858 385.546 451.298 375.935 448.755C371.129 447.484 366.323 446.213 361.517 444.941C367.925 444.687 374.333 444.433 380.741 444.178C393.556 443.67 402.207 443.924 406.693 444.941C411.178 445.958 415.984 449.518 421.111 455.621C426.237 461.724 430.402 468.844 433.606 476.981C436.81 485.118 440.014 496.052 443.218 509.783C446.422 523.515 448.345 536.992 448.985 550.214C449.626 563.437 450.587 570.303 451.869 570.811C452.51 571.065 453.151 571.32 453.791 571.574C454.753 562.928 455.714 554.283 456.675 545.637C458.597 528.346 459.238 513.343 458.597 500.629C457.957 487.915 454.753 474.692 448.985 460.961C443.218 447.23 437.451 437.313 431.684 431.21C428.8 428.159 425.917 425.107 423.033 422.056C428.48 424.853 433.927 427.65 439.374 430.447C450.267 436.041 457.316 439.347 460.52 440.364C463.724 441.381 465.646 441.381 466.287 440.364C466.928 439.347 461.161 436.041 448.985 430.447C436.81 424.853 428.8 420.53 424.956 417.479C423.033 415.953 421.111 414.427 419.188 412.902C429.121 414.427 439.053 415.953 448.985 417.479C458.918 419.004 468.85 420.53 478.783 422.056C474.297 420.53 469.811 419.004 465.326 417.479C456.355 414.427 445.461 411.884 432.645 409.85C426.237 408.833 419.829 407.816 413.421 406.799C421.431 406.544 429.441 406.29 437.451 406.036C453.471 405.527 465.967 406.29 474.938 408.324C479.423 409.342 483.909 410.359 488.395 411.376C488.395 410.867 488.395 410.359 488.395 409.85C488.395 408.833 484.229 407.307 475.899 405.273C467.569 403.239 456.355 401.967 442.257 401.459C435.208 401.205 428.16 400.95 421.111 400.696C427.198 398.916 433.286 397.136 439.374 395.356C451.549 391.796 460.199 391.796 465.326 395.356C470.452 398.916 474.617 400.95 477.821 401.459C479.423 401.713 481.025 401.967 482.627 402.222C479.423 399.933 476.219 397.645 473.015 395.356C469.811 393.067 466.607 390.779 463.403 388.49C468.53 388.999 473.656 389.508 478.783 390.016C483.909 390.525 489.035 391.033 494.162 391.542C489.356 390.016 484.55 388.49 479.744 386.965C470.132 383.913 462.122 380.353 455.714 376.285C452.51 374.251 449.306 372.216 446.102 370.182C453.151 370.945 460.199 371.708 467.248 372.471C481.346 373.996 491.919 374.759 498.968 374.759C502.492 374.759 506.016 374.759 509.541 374.759C509.541 374.251 509.541 373.742 509.541 373.233C509.541 372.216 502.492 371.453 488.395 370.945C474.297 370.436 463.403 369.673 455.714 368.656C448.024 367.639 443.218 366.368 441.296 364.842C440.335 364.079 439.374 363.316 438.412 362.554C449.626 361.282 460.84 360.011 472.054 358.739C494.482 356.196 506.337 354.417 507.618 353.399C508.259 352.891 508.9 352.382 509.541 351.874C506.016 351.874 502.492 351.874 498.968 351.874C491.919 351.874 480.705 353.145 465.326 355.688C457.636 356.959 449.947 358.231 442.257 359.502C444.82 357.468 447.383 355.434 449.947 353.399C455.073 349.331 462.763 345.262 473.015 341.194C478.142 339.16 483.268 337.125 488.395 335.091C487.433 334.837 486.472 334.582 485.511 334.328C483.589 333.82 479.423 334.582 473.015 336.617C466.607 338.651 459.238 342.465 450.908 348.059C446.743 350.857 442.577 353.654 438.412 356.451C440.014 354.162 441.616 351.874 443.218 349.585C446.422 345.008 452.51 339.668 461.481 333.565C465.967 330.514 470.452 327.463 474.938 324.411C472.054 325.428 469.171 326.445 466.287 327.463C460.52 329.497 452.51 335.6 442.257 345.771C432.004 355.942 415.664 358.485 393.236 353.399C370.808 348.314 359.594 340.94 359.594 331.277C359.594 321.614 358.633 312.714 356.711 304.577C354.788 296.44 362.157 284.489 378.818 268.723C395.479 252.958 413.101 247.363 431.684 251.941C440.975 254.229 450.267 256.518 459.559 258.806C457.316 262.366 455.073 265.926 452.83 269.486C448.345 276.606 446.102 283.726 446.102 290.846C446.102 297.966 443.859 302.543 439.374 304.577C434.888 306.611 420.79 309.154 397.081 312.206C373.371 315.257 361.517 317.291 361.517 318.308C361.517 318.817 361.517 319.325 361.517 319.834C367.925 319.325 374.333 318.817 380.741 318.308C393.556 317.291 407.654 315.257 423.033 312.206C438.412 309.154 450.587 309.917 459.559 314.494C468.53 319.071 480.385 322.885 495.123 325.937C502.492 327.463 509.861 328.988 517.23 330.514C517.23 330.005 517.23 329.497 517.23 328.988C517.23 327.971 511.143 326.191 498.968 323.648C486.793 321.105 477.501 318.308 471.093 315.257C467.889 313.731 464.685 312.206 461.481 310.68C469.811 311.443 478.142 312.206 486.472 312.968C503.133 314.494 514.667 314.748 521.075 313.731C527.483 312.714 530.687 311.697 530.687 310.68C530.687 310.171 530.687 309.663 530.687 309.154C523.318 309.663 515.949 310.171 508.58 310.68C493.841 311.697 481.987 311.188 473.015 309.154C468.53 308.137 464.044 307.12 459.559 306.103C465.967 305.086 472.375 304.069 478.783 303.051C491.599 301.017 501.531 298.729 508.58 296.186C515.628 293.643 519.794 291.609 521.075 290.083C521.716 289.32 522.357 288.557 522.998 287.794C516.59 289.829 510.182 291.863 503.774 293.897C490.958 297.966 479.744 300.509 470.132 301.526C465.326 302.034 460.52 302.543 455.714 303.051C464.685 297.966 473.656 292.88 482.627 287.794C491.599 282.709 500.57 277.623 509.541 272.537C507.298 272.792 505.055 273.046 502.812 273.3C498.327 273.809 489.356 277.877 475.899 285.506C469.171 289.32 462.442 293.134 455.714 296.949C458.277 293.643 460.84 290.337 463.403 287.032C468.53 280.42 475.579 273.809 484.55 267.198C489.035 263.892 493.521 260.586 498.006 257.28C497.045 257.026 496.084 256.772 495.123 256.518C493.201 256.009 487.754 259.315 478.783 266.435C469.811 273.555 462.442 280.42 456.675 287.032C453.791 290.337 450.908 293.643 448.024 296.949C449.306 292.372 450.587 287.794 451.869 283.217C454.432 274.063 456.995 267.706 459.559 264.146C462.122 260.586 465.005 258.298 468.209 257.28C469.811 256.772 471.413 256.263 473.015 255.755C468.85 255.501 464.685 255.246 460.52 254.992C452.189 254.483 443.539 252.703 434.568 249.652C430.082 248.126 425.596 246.601 421.111 245.075C428.8 244.566 436.49 244.058 444.179 243.549C459.559 242.532 470.452 241.006 476.86 238.972C483.268 236.938 486.472 235.412 486.472 234.395C486.472 233.886 486.472 233.378 486.472 232.869C481.025 234.141 475.579 235.412 470.132 236.684C459.238 239.226 447.704 240.498 435.529 240.498C429.441 240.498 423.354 240.498 417.266 240.498C427.198 236.684 437.131 232.869 447.063 229.055C456.995 225.241 466.928 221.427 476.86 217.612C476.54 217.104 476.219 216.595 475.899 216.087C475.579 215.578 475.258 215.07 474.938 214.561C465.646 218.121 456.355 221.681 447.063 225.241C437.772 228.801 428.48 232.361 419.188 235.921C427.198 229.309 435.208 222.698 443.218 216.087C451.228 209.475 459.238 202.864 467.248 196.253C463.724 198.033 460.199 199.813 456.675 201.593C449.626 205.153 440.655 211.51 429.762 220.664C424.315 225.241 418.868 229.818 413.421 234.395C415.664 229.818 417.907 225.241 420.15 220.664C424.635 211.51 430.082 203.881 436.49 197.778C439.694 194.727 442.898 191.676 446.102 188.624C445.141 188.624 444.179 188.624 443.218 188.624C441.296 188.624 438.412 190.658 434.568 194.727C430.723 198.795 426.878 201.338 423.033 202.355C421.111 202.864 419.188 203.373 417.266 203.881C418.227 202.101 419.188 200.321 420.15 198.541C422.072 194.981 422.392 192.693 421.111 191.676C420.47 191.167 419.829 190.658 419.188 190.15C420.79 189.387 422.392 188.624 423.994 187.861C425.596 187.098 427.198 186.336 428.8 185.573C428.16 185.064 427.519 184.556 426.878 184.047C425.596 183.03 420.79 185.573 412.46 191.676C404.13 197.778 396.44 202.355 389.391 205.407C385.867 206.933 382.343 208.458 378.818 209.984C382.663 205.915 386.508 201.847 390.352 197.778C398.042 189.641 403.809 182.521 407.654 176.419C411.499 170.316 412.78 166.756 411.499 165.739C410.858 165.23 410.217 164.722 409.576 164.213C406.693 168.536 403.809 172.859 400.926 177.181C395.158 185.827 389.071 193.201 382.663 199.304C379.459 202.355 376.255 205.407 373.051 208.458C374.653 202.355 376.255 196.253 377.857 190.15C381.061 177.944 385.226 167.519 390.352 158.873C392.916 154.55 395.479 150.227 398.042 145.905C396.44 147.176 394.838 148.447 393.236 149.719C390.032 152.262 387.789 155.059 386.508 158.11C385.226 161.162 381.702 163.45 375.935 164.976C373.051 165.739 370.167 166.502 367.284 167.264C366.963 165.23 366.643 163.196 366.323 161.162C365.682 157.093 367.925 153.279 373.051 149.719C378.177 146.159 381.702 143.108 383.624 140.565C385.546 138.022 386.187 135.988 385.546 134.462C385.226 133.699 384.906 132.936 384.585 132.173C381.702 135.225 378.818 138.276 375.935 141.328C370.167 147.43 360.876 153.533 348.06 159.636C341.652 162.687 335.244 165.739 328.836 168.79C333.642 163.959 338.448 159.127 343.254 154.296C352.866 144.633 359.594 136.75 363.439 130.648C365.361 127.596 367.284 124.545 369.206 121.493C362.157 128.359 355.109 135.225 348.06 142.09C341.011 148.956 333.962 155.822 326.914 162.687C328.195 158.619 329.477 154.55 330.758 150.482C333.321 142.345 336.846 134.462 341.331 126.833C345.817 119.205 348.06 114.882 348.06 113.865C348.06 113.356 348.06 112.848 348.06 112.339C347.419 112.594 346.778 112.848 346.137 113.102C344.856 113.611 341.011 121.239 334.603 135.988C328.195 150.736 324.35 158.11 323.069 158.11C322.428 158.11 321.787 158.11 321.146 158.11C322.108 149.973 323.069 141.836 324.03 133.699C324.991 125.562 325.952 117.425 326.914 109.288C326.273 109.288 325.632 109.288 324.991 109.288C323.71 109.288 322.428 110.814 321.146 113.865C319.865 116.916 318.904 125.562 318.263 139.802C317.942 146.922 317.622 154.042 317.302 161.162C315.059 154.296 312.816 147.43 310.573 140.565C308.33 133.699 306.088 126.833 303.845 119.968C304.165 124.799 304.486 129.631 304.806 134.462C305.447 144.125 307.69 152.262 311.534 158.873C315.379 165.484 316.981 169.807 316.34 171.841C315.7 173.876 316.02 175.147 317.302 175.656C318.583 176.164 316.661 181.504 311.534 191.676C306.408 201.847 301.922 214.815 298.078 230.581C294.233 246.346 289.427 253.975 283.66 253.466C277.892 252.958 274.688 241.261 274.048 218.375C273.407 195.49 276.29 178.707 282.698 168.027C289.106 157.347 292.631 149.719 293.272 145.142C293.592 142.853 293.912 140.565 294.233 138.276C293.592 138.276 292.951 138.276 292.31 138.276C291.029 138.276 288.466 142.09 284.621 149.719C282.698 153.533 280.776 157.347 278.854 161.162C279.815 155.567 280.776 149.973 281.737 144.379C283.66 133.191 283.339 125.308 280.776 120.731C279.494 118.442 278.213 116.154 276.931 113.865C277.252 117.425 277.572 120.985 277.892 124.545C278.533 131.665 277.572 140.056 275.009 149.719C273.727 154.55 272.446 159.382 271.164 164.213C269.562 159.89 267.96 155.567 266.358 151.245C263.154 142.599 259.63 135.479 255.785 129.885C251.94 124.291 248.736 120.731 246.173 119.205C244.891 118.442 243.61 117.679 242.328 116.916C245.532 122.765 248.736 128.613 251.94 134.462C258.348 146.159 262.513 156.076 264.436 164.213C266.358 172.35 266.679 176.927 265.397 177.944C264.756 178.453 264.115 178.961 263.475 179.47C257.707 170.57 251.94 161.67 246.173 152.77C234.639 134.97 229.192 123.019 229.833 116.916C230.473 110.814 233.998 104.965 240.406 99.3709C246.814 93.7767 251.94 87.9282 255.785 81.8254C259.63 75.7226 261.873 70.6369 262.513 66.5684C262.834 64.5342 263.154 62.4999 263.475 60.4656C259.63 65.5513 255.785 70.6369 251.94 75.7226C248.095 80.8083 244.251 85.8939 240.406 90.9796C241.687 87.1653 242.969 83.3511 244.251 79.5368C246.814 71.9084 247.775 65.0427 247.134 58.9399C246.814 55.8885 246.493 52.8371 246.173 49.7858C245.212 54.1086 244.251 58.4314 243.289 62.7542C241.367 71.3998 238.804 78.5197 235.6 84.1139C233.998 86.911 232.396 89.7081 230.794 92.5053C230.794 86.911 230.794 81.3168 230.794 75.7226C230.794 64.5342 230.153 56.3971 228.871 51.3114C227.59 46.2258 225.988 43.4287 224.065 42.9201C223.104 42.6658 222.143 42.4116 221.182 42.1573C222.143 50.8029 223.104 59.4485 224.065 68.0941ZM226.949 132.173C231.755 139.293 236.561 146.413 241.367 153.533C246.173 160.653 250.979 167.773 255.785 174.893C250.659 171.079 245.532 167.264 240.406 163.45C230.153 155.822 225.347 148.702 225.988 142.09C226.308 138.785 226.629 135.479 226.949 132.173ZM363.439 156.585C363.439 158.364 363.439 160.144 363.439 161.924C363.439 165.484 360.555 167.773 354.788 168.79C351.905 169.299 349.021 169.807 346.137 170.316C346.778 169.044 347.419 167.773 348.06 166.502C349.341 163.959 352.225 161.67 356.711 159.636C358.953 158.619 361.196 157.602 363.439 156.585ZM223.104 158.11C229.833 162.687 236.561 167.264 243.289 171.841C250.018 176.419 256.746 180.996 263.475 185.573C256.426 183.284 249.377 180.996 242.328 178.707C228.231 174.13 221.502 169.553 222.143 164.976C222.463 162.687 222.784 160.399 223.104 158.11ZM380.741 164.213C378.818 171.333 376.896 178.453 374.973 185.573C373.051 192.693 371.129 199.813 369.206 206.933C368.886 201.338 368.565 195.744 368.245 190.15C367.604 178.961 366.643 173.367 365.361 173.367C364.08 173.367 363.119 179.216 362.478 190.913C362.157 196.761 361.837 202.61 361.517 208.458C359.594 204.898 357.672 201.338 355.749 197.778C351.905 190.658 349.662 184.81 349.021 180.233C348.38 175.656 351.584 172.859 358.633 171.841C365.682 170.824 371.129 169.299 374.973 167.264C376.896 166.247 378.818 165.23 380.741 164.213ZM333.642 174.893C340.691 174.893 345.176 178.707 347.099 186.336C349.021 193.964 351.905 200.067 355.749 204.644C359.594 209.221 361.837 213.035 362.478 216.087C363.119 219.138 359.915 224.987 352.866 233.632C345.817 242.278 339.089 249.398 332.681 254.992C326.273 260.586 322.108 263.383 320.185 263.383C318.263 263.383 313.777 262.112 306.728 259.569C299.68 257.026 296.155 254.992 296.155 253.466C296.155 251.941 298.398 243.041 302.884 226.767C307.369 210.492 311.855 197.778 316.34 188.624C320.826 179.47 326.593 174.893 333.642 174.893ZM417.266 191.676C416.946 193.964 416.625 196.253 416.305 198.541C415.664 203.118 410.217 206.678 399.964 209.221C394.838 210.492 389.712 211.764 384.585 213.035C390.032 209.475 395.479 205.915 400.926 202.355C406.372 198.795 411.819 195.235 417.266 191.676ZM423.033 203.881C423.354 204.39 423.674 204.898 423.994 205.407C424.635 206.424 423.033 209.221 419.188 213.798C417.266 216.087 415.344 218.375 413.421 220.664C413.742 218.63 414.062 216.595 414.382 214.561C415.023 210.492 416.625 207.695 419.188 206.17C420.47 205.407 421.752 204.644 423.033 203.881ZM408.615 209.984C409.576 209.984 410.538 209.984 411.499 209.984C410.538 213.544 409.576 217.104 408.615 220.664C406.693 227.784 406.052 232.615 406.693 235.158C407.334 237.701 402.528 242.786 392.275 250.415C382.022 258.043 372.41 266.689 363.439 276.352C358.953 281.183 354.468 286.014 349.982 290.846C345.817 286.523 341.652 282.2 337.487 277.877C329.156 269.232 328.515 262.112 335.564 256.518C342.613 250.923 349.662 243.295 356.711 233.632C363.759 223.969 373.692 217.612 386.508 214.561C399.324 211.51 406.693 209.984 408.615 209.984ZM275.97 261.095C284.3 261.603 292.951 263.383 301.922 266.435C310.894 269.486 319.224 274.063 326.914 280.166C334.603 286.269 340.05 292.117 343.254 297.711C346.458 303.306 348.38 310.934 349.021 320.597C349.662 330.26 348.38 339.16 345.176 347.297C341.972 355.434 339.409 359.502 337.487 359.502C336.525 359.502 335.564 359.502 334.603 359.502C334.923 360.519 335.244 361.536 335.564 362.554C336.205 364.588 334.283 367.639 329.797 371.708C325.312 375.776 323.389 378.319 324.03 379.336C324.671 380.353 321.467 383.15 314.418 387.728C307.369 392.305 297.116 393.83 283.66 392.305C270.203 390.779 258.989 388.236 250.018 384.676C241.047 381.116 232.716 375.776 225.027 368.656C217.337 361.536 212.211 355.434 209.648 350.348C207.084 345.262 206.444 337.38 207.725 326.7C209.007 316.02 211.57 306.357 215.415 297.711C219.259 289.066 225.667 281.437 234.639 274.826C243.61 268.215 250.659 264.146 255.785 262.62C260.911 261.095 267.64 260.586 275.97 261.095ZM353.827 347.297C363.439 349.839 373.051 352.382 382.663 354.925C401.887 360.011 414.703 362.808 421.111 363.316C427.519 363.825 434.247 368.148 441.296 376.285C444.82 380.353 448.345 384.422 451.869 388.49C448.024 389.253 444.179 390.016 440.335 390.779C432.645 392.305 424.315 395.102 415.344 399.17C406.372 403.239 392.595 398.916 374.012 386.202C355.429 373.488 347.419 363.825 349.982 357.214C351.264 353.908 352.545 350.602 353.827 347.297ZM217.337 370.182C226.308 378.319 227.269 387.473 220.221 397.645C213.172 407.816 206.123 416.462 199.074 423.581C192.026 430.701 185.618 432.99 179.85 430.447C174.083 427.904 167.996 426.379 161.588 425.87C155.18 425.361 151.976 421.039 151.976 412.902C151.976 404.765 151.015 398.407 149.092 393.83C147.17 389.253 155.821 382.133 175.044 372.471C194.268 362.808 208.366 362.045 217.337 370.182ZM342.293 368.656C346.458 371.708 350.623 374.759 354.788 377.811C358.953 380.862 363.119 383.913 367.284 386.965C362.157 384.93 357.031 382.896 351.905 380.862C346.778 378.828 341.652 376.793 336.525 374.759C337.487 373.742 338.448 372.725 339.409 371.708C340.37 370.691 341.331 369.673 342.293 368.656ZM444.179 374.759C448.024 376.793 451.869 378.828 455.714 380.862C459.559 382.896 463.403 384.93 467.248 386.965C465.646 386.965 464.044 386.965 462.442 386.965C459.238 386.965 455.393 384.93 450.908 380.862C448.665 378.828 446.422 376.793 444.179 374.759ZM332.681 380.862C345.497 391.033 358.313 401.205 371.129 411.376C383.945 421.547 396.76 431.718 409.576 441.89C403.809 441.381 398.042 440.873 392.275 440.364C380.741 439.347 370.808 439.347 362.478 440.364C354.147 441.381 345.497 433.498 336.525 416.716C327.554 399.933 324.671 389.762 327.875 386.202C329.477 384.422 331.079 382.642 332.681 380.862ZM232.716 385.439C236.241 386.71 239.765 387.982 243.289 389.253C250.338 391.796 251.62 403.747 247.134 425.107C242.649 446.467 235.92 457.655 226.949 458.672C217.978 459.69 210.609 461.215 204.842 463.25C201.958 464.267 199.074 465.284 196.191 466.301C195.55 460.961 194.909 455.621 194.268 450.281C192.987 439.601 197.152 429.43 206.764 419.767C216.376 410.104 223.104 401.967 226.949 395.356C228.871 392.05 230.794 388.745 232.716 385.439ZM349.982 385.439C358.313 389.762 366.643 394.085 374.973 398.407C391.634 407.053 405.411 416.207 416.305 425.87C427.198 435.533 435.529 446.213 441.296 457.91C447.063 469.607 450.267 482.575 450.908 496.815C451.228 503.935 451.549 511.055 451.869 518.175C449.947 511.055 448.024 503.935 446.102 496.815C442.257 482.575 438.412 471.895 434.568 464.775C430.723 457.655 423.674 448.755 413.421 438.076C403.168 427.396 390.032 415.953 374.012 403.747C366.002 397.645 357.992 391.542 349.982 385.439ZM317.302 393.067C321.787 400.442 326.273 407.816 330.758 415.19C339.729 429.938 344.215 445.195 344.215 460.961C344.215 468.844 344.215 476.727 344.215 484.609C340.691 482.066 337.166 479.524 333.642 476.981C326.593 471.895 319.544 468.081 312.496 465.538C305.447 462.995 300 461.724 296.155 461.724C294.233 461.724 292.31 461.724 290.388 461.724C290.388 460.961 290.388 460.198 290.388 459.435C290.388 458.672 290.388 457.91 290.388 457.147C289.427 457.401 288.466 457.655 287.504 457.91C286.543 458.164 285.582 458.418 284.621 458.672C285.262 449.518 285.902 440.364 286.543 431.21C287.825 412.902 287.504 403.493 285.582 402.985C284.621 402.73 283.66 402.476 282.698 402.222C282.378 412.393 282.058 422.564 281.737 432.736C281.096 453.078 278.854 464.521 275.009 467.064C271.164 469.607 267.319 473.929 263.475 480.032C261.552 483.084 259.63 486.135 257.707 489.186C256.746 486.644 255.785 484.101 254.824 481.558C252.901 476.472 250.338 472.149 247.134 468.589C243.93 465.03 244.571 454.604 249.057 437.313C253.542 420.021 255.785 408.833 255.785 403.747C255.785 401.205 255.785 398.662 255.785 396.119C263.154 397.136 270.523 398.153 277.892 399.17C292.631 401.205 302.884 400.696 308.651 397.645C311.534 396.119 314.418 394.593 317.302 393.067ZM144.286 396.119C144.607 400.95 144.927 405.782 145.247 410.613C145.888 420.276 143.966 425.361 139.48 425.87C137.237 426.124 134.995 426.379 132.752 426.633C134.674 421.547 136.597 416.462 138.519 411.376C140.441 406.29 142.364 401.205 144.286 396.119Z" fill="#000000" fill-rule="nonzero" opacity="1" stroke="none" vectornator:layerName="Courbe 1"/>
</g>
</svg>
