<?xml version="1.0" encoding="UTF-8" standalone="no"?>
<!DOCTYPE svg PUBLIC "-//W3C//DTD SVG 1.1//EN" "http://www.w3.org/Graphics/SVG/1.1/DTD/svg11.dtd">
<!-- Created with Vectornator (http://vectornator.io/) -->
<svg height="100%" stroke-miterlimit="10" style="fill-rule:nonzero;clip-rule:evenodd;stroke-linecap:round;stroke-linejoin:round;" version="1.1" viewBox="0 0 1000 1000" width="100%" xml:space="preserve" xmlns="http://www.w3.org/2000/svg" xmlns:vectornator="http://vectornator.io" xmlns:xlink="http://www.w3.org/1999/xlink">
<defs/>
<g id="Calque-1" vectornator:layerName="Calque 1">
<path d="M431.273 30.9498C430.818 41.4224 431.045 47.3417 431.956 48.7077C432.411 49.3908 432.867 50.0738 433.322 50.7568C433.55 45.0651 433.777 39.3734 434.005 33.6818C434.46 22.2984 434.233 16.3791 433.322 15.9237C432.867 15.6961 432.411 15.4684 431.956 15.2407C431.728 20.4771 431.501 25.7134 431.273 30.9498ZM355.46 58.9527C362.745 67.1488 367.299 71.4744 369.12 71.9298C370.031 72.1574 370.941 72.3851 371.852 72.6128C370.258 70.3361 368.665 68.0594 367.071 65.7828C363.884 61.2294 359.33 56.9038 353.411 52.8058C350.451 50.7568 347.492 48.7077 344.532 46.6587C348.175 50.7568 351.817 54.8548 355.46 58.9527ZM502.988 58.2697C495.703 65.0998 492.06 69.1977 492.06 70.5638C492.06 71.2468 492.06 71.9298 492.06 72.6128C495.93 69.4254 499.801 66.2381 503.671 63.0508C511.412 56.6761 515.737 52.5781 516.648 50.7568C517.103 49.8461 517.559 48.9354 518.014 48.0247C517.331 48.0247 516.648 48.0247 515.965 48.0247C514.599 48.0247 510.273 51.4398 502.988 58.2697ZM409.417 61.6848C398.944 64.4168 390.748 68.0594 384.829 72.6128C378.91 77.1661 373.446 83.9961 368.437 93.1028C363.428 102.209 360.696 111.316 360.241 120.423C359.786 129.529 360.696 137.27 362.973 143.645C365.25 150.019 369.803 158.215 376.633 168.233C383.463 178.25 388.016 185.991 390.293 191.455C392.57 196.919 393.708 207.619 393.708 223.556C393.708 239.492 395.302 248.371 398.489 250.193C401.676 252.014 403.498 254.518 403.953 257.706C404.408 260.893 406.23 263.625 409.417 265.902C412.604 268.178 421.483 269.317 436.054 269.317C450.625 269.317 459.048 267.495 461.325 263.853C463.602 260.21 464.74 257.25 464.74 254.974C464.74 252.697 466.334 251.103 469.521 250.193C472.708 249.282 474.757 240.175 475.668 222.873C476.579 205.57 478.4 193.504 481.132 186.674C483.864 179.844 486.824 174.835 490.011 171.648C493.198 168.46 496.613 163.452 500.256 156.622C503.899 149.792 505.948 140.913 506.403 129.985C506.858 119.057 506.403 111.316 505.037 106.763C503.671 102.209 501.394 97.4284 498.207 92.4198C495.02 87.4111 490.011 81.9471 483.181 76.0278C476.351 70.1084 469.293 65.7828 462.008 63.0508C454.723 60.3188 446.754 58.7251 438.103 58.2697C429.452 57.8144 419.89 58.9527 409.417 61.6848ZM434.005 61.6848C442.656 61.6848 451.08 63.2784 459.276 66.4658C467.472 69.6531 474.757 73.9788 481.132 79.4427C487.507 84.9068 492.515 90.8261 496.158 97.2008C499.801 103.575 502.077 108.812 502.988 112.91C503.899 117.008 504.126 123.382 503.671 132.034C503.216 140.685 501.85 147.515 499.573 152.524C497.296 157.532 493.881 162.541 489.328 167.55C484.775 172.558 481.587 176.884 479.766 180.527C477.945 184.169 476.351 190.772 474.985 200.334C473.619 209.896 464.968 214.904 449.031 215.36C433.094 215.815 420.345 215.587 410.783 214.677C401.221 213.766 395.985 209.44 395.074 201.7C394.163 193.959 388.927 182.348 379.365 166.867C369.803 151.385 364.567 139.319 363.656 130.668C362.745 122.016 362.745 115.414 363.656 110.861C364.567 106.307 366.388 101.526 369.12 96.5178C371.852 91.5091 376.178 86.0451 382.097 80.1257C388.016 74.2064 395.985 69.6531 406.002 66.4658C416.019 63.2784 425.354 61.6848 434.005 61.6848ZM317.895 122.472C315.846 122.699 313.797 122.927 311.748 123.155C312.431 123.838 313.114 124.521 313.797 125.204C315.163 126.57 321.31 126.797 332.238 125.887C343.166 124.976 348.63 124.065 348.63 123.155C348.63 122.699 348.63 122.244 348.63 121.789C344.532 121.789 340.434 121.789 336.336 121.789C328.14 121.789 321.993 122.016 317.895 122.472ZM518.697 123.838C516.42 124.293 515.282 124.976 515.282 125.887C515.282 126.342 515.282 126.797 515.282 127.253C521.884 127.025 528.487 126.797 535.089 126.57C548.294 126.114 554.896 125.431 554.896 124.521C554.896 124.065 554.896 123.61 554.896 123.155C549.432 123.155 543.968 123.155 538.504 123.155C527.576 123.155 520.974 123.382 518.697 123.838ZM362.29 182.576C356.826 186.674 352.273 190.999 348.63 195.553C346.809 197.829 344.987 200.106 343.166 202.383C343.849 202.383 344.532 202.383 345.215 202.383C346.581 202.383 350.679 198.968 357.509 192.138C364.339 185.308 368.665 181.665 370.486 181.21C372.307 180.754 373.446 179.844 373.901 178.478C374.129 177.795 374.356 177.112 374.584 176.429C373.901 176.429 373.218 176.429 372.535 176.429C371.169 176.429 367.754 178.478 362.29 182.576ZM492.743 179.161C492.288 180.071 493.881 181.665 497.524 183.942C501.167 186.218 504.582 189.633 507.769 194.187C510.956 198.74 513.233 201.244 514.599 201.7C515.965 202.155 516.876 201.927 517.331 201.017C517.786 200.106 517.103 198.285 515.282 195.553C513.461 192.821 509.363 189.178 502.988 184.625C499.801 182.348 496.613 180.071 493.426 177.795C493.198 178.25 492.971 178.705 492.743 179.161ZM396.44 216.043C405.091 216.726 413.743 217.409 422.394 218.092C439.697 219.458 452.446 219.913 460.642 219.458C464.74 219.23 468.838 219.002 472.936 218.775C472.936 221.051 472.936 223.328 472.936 225.605C472.936 227.881 472.936 230.158 472.936 232.435C459.959 232.435 446.982 232.435 434.005 232.435C421.028 232.435 408.051 232.435 395.074 232.435C395.302 229.703 395.529 226.971 395.757 224.239C395.985 221.507 396.212 218.775 396.44 216.043ZM434.005 235.167C446.527 235.167 459.048 235.167 471.57 235.167C471.57 237.216 471.57 239.265 471.57 241.314C471.57 245.412 469.976 247.916 466.789 248.827C463.602 249.737 451.763 250.193 431.273 250.193C410.783 250.193 399.627 248.827 397.806 246.095C395.985 243.363 395.302 240.858 395.757 238.582C396.212 236.305 408.962 235.167 434.005 235.167ZM461.325 254.291C461.78 256.112 460.87 258.616 458.593 261.804C456.316 264.991 449.259 266.585 437.42 266.585C425.581 266.585 418.068 266.129 414.881 265.219C411.694 264.308 409.417 262.942 408.051 261.121C406.685 259.299 406.002 257.478 406.002 255.657C406.002 253.835 415.109 252.697 433.322 252.242C451.535 251.786 460.87 252.469 461.325 254.291ZM703.79 254.974C701.969 257.25 700.375 261.121 699.009 266.585C697.643 272.049 696.277 280.7 694.911 292.539C693.545 304.377 693.09 312.346 693.545 316.444C694 320.542 691.496 323.729 686.032 326.006C680.568 328.282 676.698 330.787 674.421 333.519C672.144 336.251 671.234 342.625 671.689 352.643C672.144 362.66 674.193 369.718 677.836 373.816C681.479 377.914 684.666 382.695 687.398 388.159C690.13 393.623 691.724 400.453 692.179 408.649C692.634 416.845 691.724 421.17 689.447 421.626C687.17 422.081 686.032 422.992 686.032 424.358C686.032 425.724 687.17 433.237 689.447 446.897C691.724 460.557 693.773 478.998 695.594 502.22C697.415 525.442 699.92 544.566 703.107 559.592C706.294 574.618 707.888 583.497 707.888 586.229C707.888 587.595 707.888 588.961 707.888 590.327C706.294 590.099 704.701 589.871 703.107 589.644C699.92 589.188 697.871 590.327 696.96 593.059C696.049 595.791 687.17 595.791 670.323 593.059C653.476 590.327 641.409 586.229 634.124 580.765C626.839 575.301 618.643 570.52 609.536 566.422C600.429 562.324 581.078 559.592 551.481 558.226C521.884 556.86 503.443 552.989 496.158 546.615C488.873 540.24 485.002 535.914 484.547 533.638C484.092 531.361 487.734 526.352 495.475 518.612C503.216 510.871 507.997 505.179 509.818 501.537C511.639 497.894 512.778 494.024 513.233 489.926C513.688 485.828 516.193 481.047 520.746 475.583C525.299 470.119 528.487 465.11 530.308 460.557C532.129 456.003 532.585 450.995 531.674 445.531C530.763 440.067 529.17 436.424 526.893 434.603C524.616 432.781 522.34 432.326 520.063 433.237C518.925 433.692 517.786 434.147 516.648 434.603C516.876 431.188 517.103 427.773 517.331 424.358C517.786 417.528 519.835 410.015 523.478 401.819C527.121 393.623 528.942 385.427 528.942 377.231C528.942 369.035 527.348 362.66 524.161 358.107C520.974 353.553 520.063 349.911 521.429 347.179C522.795 344.447 523.25 341.259 522.795 337.617C522.34 333.974 519.38 328.51 513.916 321.225C508.452 313.939 503.443 308.931 498.89 306.199C494.337 303.467 485.913 300.279 473.619 296.637C461.325 292.994 450.625 291.4 441.518 291.856C432.411 292.311 423.305 294.132 414.198 297.32C405.091 300.507 397.806 304.377 392.342 308.931C386.878 313.484 380.048 315.761 371.852 315.761C363.656 315.761 357.281 316.899 352.728 319.176C348.175 321.452 343.849 324.867 339.751 329.421C335.653 333.974 332.693 340.576 330.872 349.228C329.051 357.879 331.1 374.726 337.019 399.77C339.979 412.291 342.938 424.813 345.898 437.335C344.987 436.652 344.077 435.969 343.166 435.286C341.345 433.92 339.068 433.464 336.336 433.92C333.604 434.375 331.555 436.196 330.189 439.384C328.823 442.571 328.14 446.441 328.14 450.995C328.14 455.548 328.823 459.418 330.189 462.606C331.555 465.793 335.425 470.346 341.8 476.266C348.175 482.185 352.728 489.243 355.46 497.439C358.192 505.635 361.835 511.782 366.388 515.88C370.941 519.978 373.446 524.303 373.901 528.857C374.129 531.133 374.356 533.41 374.584 535.687C373.901 535.459 373.218 535.231 372.535 535.004C371.169 534.548 370.031 534.776 369.12 535.687C368.209 536.597 365.705 540.24 361.607 546.615C357.509 552.989 354.549 556.177 352.728 556.177C350.907 556.177 332.921 563.69 298.771 578.716C264.621 593.742 240.261 604.897 225.69 612.183C211.119 619.468 201.785 625.16 197.687 629.258C193.589 633.356 191.768 636.771 192.223 639.503C192.678 642.235 186.759 692.777 174.465 791.129C162.171 889.481 155.569 945.942 154.658 960.513C154.203 967.798 153.747 975.083 153.292 982.369C153.747 982.141 154.203 981.913 154.658 981.686C155.569 981.23 156.707 975.766 158.073 965.294C159.439 954.821 165.814 898.36 177.197 795.91C188.58 693.46 194.955 642.235 196.321 642.235C197.004 642.235 197.687 642.235 198.37 642.235C197.687 641.324 197.004 640.413 196.321 639.503C194.955 637.681 196.093 634.949 199.736 631.307C203.379 627.664 213.624 621.745 230.471 613.549C247.318 605.353 271.679 594.425 303.552 580.765C319.489 573.935 335.425 567.105 351.362 560.275C351.134 561.185 350.907 562.096 350.679 563.007C350.224 564.828 354.322 579.171 362.973 606.036C371.624 632.9 376.405 646.56 377.316 647.016C378.227 647.471 382.78 643.145 390.976 634.039C395.074 629.485 399.172 624.932 403.27 620.379C406.685 624.477 410.1 628.575 413.515 632.673C420.345 640.869 417.841 688.223 406.002 774.737C394.163 861.25 395.985 911.337 411.466 924.997C426.947 938.657 436.282 944.576 439.469 942.755C442.656 940.933 449.259 933.193 459.276 919.533C469.293 905.873 469.293 856.241 459.276 770.639C449.259 685.036 447.21 638.137 453.129 629.941C456.089 625.843 459.048 621.745 462.008 617.647C466.789 621.745 471.57 625.843 476.351 629.941C485.913 638.137 491.605 642.007 493.426 641.552C495.247 641.096 499.118 629.713 505.037 607.402C510.956 585.09 514.144 571.886 514.599 567.788C515.054 563.69 514.827 561.185 513.916 560.275C513.461 559.819 513.005 559.364 512.55 558.909C525.072 559.364 537.593 559.819 550.115 560.275C575.158 561.185 593.372 563.917 604.755 568.471C616.138 573.024 625.245 577.805 632.075 582.814C638.905 587.822 649.15 591.693 662.81 594.425C676.47 597.157 685.577 598.75 690.13 599.206C694.683 599.661 697.643 598.523 699.009 595.791C700.375 593.059 702.196 591.693 704.473 591.693C706.75 591.693 708.116 594.425 708.571 599.889C709.026 605.353 710.62 611.5 713.352 618.33C716.084 625.16 718.133 628.802 719.499 629.258C720.182 629.485 720.865 629.713 721.548 629.941C721.548 629.485 721.548 629.03 721.548 628.575C721.548 627.664 719.954 624.021 716.767 617.647C713.58 611.272 711.986 606.036 711.986 601.938C711.986 599.889 711.986 597.84 711.986 595.791C715.856 599.889 719.727 603.987 723.597 608.085C727.467 612.183 731.338 616.281 735.208 620.379C734.525 618.785 733.842 617.191 733.159 615.598C731.793 612.41 727.695 607.402 720.865 600.572C714.035 593.742 709.709 583.041 707.888 568.471C706.067 553.9 704.473 544.793 703.107 541.151C701.741 537.508 701.058 532.272 701.058 525.442C701.058 518.612 699.237 501.537 695.594 474.217C691.951 446.897 690.585 431.415 691.496 427.773C692.407 424.13 700.147 421.398 714.718 419.577C729.289 417.755 739.989 417.072 746.819 417.528C753.649 417.983 757.747 418.894 759.113 420.26C760.479 421.626 774.822 456.459 802.142 524.759C829.462 593.059 843.35 629.03 843.805 632.673C844.26 636.315 843.805 640.186 842.439 644.284C841.073 648.382 837.43 652.252 831.511 655.895C825.592 659.537 808.517 664.318 780.286 670.238C752.055 676.157 718.361 684.125 679.202 694.143C640.043 704.16 619.098 709.169 616.366 709.169C615 709.169 613.634 709.169 612.268 709.169C613.406 704.388 614.545 699.607 615.683 694.826C617.96 685.264 619.781 680.255 621.147 679.8C622.513 679.344 624.562 675.929 627.294 669.555C630.026 663.18 635.49 654.756 643.686 644.284C651.882 633.811 655.525 628.119 654.614 627.209C654.159 626.753 653.703 626.298 653.248 625.843C651.882 627.209 650.516 628.575 649.15 629.941C646.418 632.673 641.865 638.82 635.49 648.382C629.115 657.944 625.245 664.774 623.879 668.872C623.196 670.921 622.513 672.97 621.83 675.019C622.285 672.287 622.741 669.555 623.196 666.823C624.107 661.359 624.107 657.944 623.196 656.578C622.741 655.895 622.285 655.212 621.83 654.529C620.692 660.903 619.553 667.278 618.415 673.653C616.138 686.402 611.813 702.794 605.438 722.829C599.063 742.863 595.421 756.979 594.51 765.175C593.599 773.371 592.461 811.391 591.095 879.236C589.729 947.08 540.098 981.003 442.201 981.003C344.304 981.003 293.307 950.495 289.209 889.481C285.111 828.466 280.33 785.437 274.866 760.394C269.402 735.35 264.393 717.365 259.84 706.437C255.287 695.509 253.01 688.679 253.01 685.947C253.01 684.581 253.01 683.215 253.01 681.849C252.555 681.849 252.099 681.849 251.644 681.849C251.189 681.849 250.733 681.849 250.278 681.849C250.278 683.215 250.278 684.581 250.278 685.947C250.278 688.679 251.644 692.777 254.376 698.241C257.108 703.705 260.068 712.128 263.255 723.512C266.442 734.895 267.808 741.27 267.353 742.636C267.125 743.319 266.898 744.002 266.67 744.685C265.532 742.408 264.393 740.131 263.255 737.855C260.978 733.301 259.157 730.342 257.791 728.976C256.425 727.61 255.287 727.154 254.376 727.61C253.921 727.837 253.465 728.065 253.01 728.293C256.197 733.074 259.385 737.855 262.572 742.636C268.947 752.198 273.272 762.898 275.549 774.737C277.826 786.575 278.964 795.227 278.964 800.691C278.964 806.155 276.46 817.766 271.451 835.524C266.442 853.282 259.612 881.512 250.961 920.216C242.31 958.919 237.756 978.954 237.301 980.32C236.846 981.686 224.096 982.141 199.053 981.686C174.01 981.23 160.805 981.458 159.439 982.369C158.756 982.824 158.073 983.279 157.39 983.735C159.211 983.962 161.033 984.19 162.854 984.418C166.497 984.873 180.157 984.873 203.834 984.418C227.511 983.962 246.18 955.049 259.84 897.677C266.67 868.991 273.5 840.305 280.33 811.619C281.696 826.417 283.062 841.215 284.428 856.014C287.16 885.61 288.981 914.069 289.892 941.389C290.803 968.709 341.345 982.596 441.518 983.052C541.691 983.507 592.461 969.392 593.827 940.706C595.193 912.02 595.876 877.642 595.876 837.573C595.876 797.503 596.559 772.688 597.925 763.126C599.291 753.564 601.795 742.863 605.438 731.025C609.081 719.186 646.646 705.071 718.133 688.679C789.62 672.287 826.73 663.635 829.462 662.725C832.194 661.814 835.154 659.765 838.341 656.578C841.528 653.39 843.805 649.748 845.171 645.65C846.537 641.552 846.992 637.454 846.537 633.356C846.082 629.258 832.194 592.831 804.874 524.076C777.554 455.32 762.528 419.804 759.796 417.528C757.064 415.251 754.787 411.381 752.966 405.917C751.145 400.453 749.551 397.493 748.185 397.038C747.502 396.81 746.819 396.582 746.136 396.355C747.957 393.623 749.779 390.891 751.6 388.159C755.243 382.695 757.519 377.458 758.43 372.45C759.341 367.441 760.707 364.937 762.528 364.937C764.349 364.937 766.171 363.798 767.992 361.522C769.813 359.245 772.09 355.147 774.822 349.228C777.554 343.308 778.92 338.755 778.92 335.568C778.92 332.38 778.009 329.876 776.188 328.055C774.367 326.233 772.09 325.778 769.358 326.689C767.992 327.144 766.626 327.599 765.26 328.055C764.805 326.233 764.349 324.412 763.894 322.591C762.983 318.948 761.617 316.444 759.796 315.078C757.975 313.712 755.926 313.256 753.649 313.712C751.372 314.167 750.006 313.484 749.551 311.663C749.096 309.841 747.502 308.248 744.77 306.882C742.038 305.516 739.078 305.06 735.891 305.516C732.704 305.971 730.199 308.248 728.378 312.346C726.557 316.444 724.735 318.72 722.914 319.176C722.003 319.403 721.093 319.631 720.182 319.859C719.499 316.899 718.816 313.939 718.133 310.98C716.767 305.06 716.539 294.588 717.45 279.562C718.361 264.536 718.133 256.112 716.767 254.291C715.401 252.469 713.352 251.559 710.62 251.559C707.888 251.559 705.611 252.697 703.79 254.974ZM710.62 254.291C712.441 254.291 713.807 254.974 714.718 256.34C715.629 257.706 716.084 268.634 716.084 289.124C716.084 309.614 712.897 320.086 706.522 320.542C703.335 320.769 700.147 320.997 696.96 321.225C696.96 316.444 696.96 311.663 696.96 306.882C696.96 297.32 698.098 287.075 700.375 276.147C702.652 265.219 704.473 258.844 705.839 257.023C707.205 255.201 708.799 254.291 710.62 254.291ZM443.567 295.271C452.218 295.271 462.463 297.092 474.302 300.735C486.141 304.377 494.564 307.792 499.573 310.98C504.582 314.167 508.907 318.493 512.55 323.957C516.193 329.421 518.242 333.974 518.697 337.617C519.152 341.259 518.697 344.447 517.331 347.179C516.648 348.545 515.965 349.911 515.282 351.277C515.737 351.277 516.193 351.277 516.648 351.277C517.559 351.277 519.38 353.781 522.112 358.79C524.844 363.798 526.21 369.945 526.21 377.231C526.21 384.516 524.161 392.94 520.063 402.502C515.965 412.064 513.916 420.715 513.916 428.456C513.916 432.326 513.916 436.196 513.916 440.067C510.501 430.277 507.086 420.487 503.671 410.698C496.841 391.118 489.1 381.329 480.449 381.329C471.798 381.329 464.285 380.646 457.91 379.28C451.535 377.914 445.616 374.954 440.152 370.401C434.688 365.847 431.501 363.571 430.59 363.571C430.135 363.571 429.679 363.571 429.224 363.571C429.452 365.62 429.679 367.669 429.907 369.718C430.362 373.816 429.452 376.092 427.175 376.548C424.898 377.003 420.8 375.409 414.881 371.767C408.962 368.124 404.864 364.937 402.587 362.205C400.31 359.473 398.489 358.107 397.123 358.107C395.757 358.107 393.708 361.749 390.976 369.035C388.244 376.32 383.008 383.378 375.267 390.208C367.526 397.038 362.062 401.136 358.875 402.502C355.688 403.868 354.549 411.381 355.46 425.041C355.915 431.871 356.371 438.701 356.826 445.531C355.688 445.531 354.549 445.531 353.411 445.531C351.134 445.531 347.036 433.009 341.117 407.966C335.198 382.922 332.238 366.758 332.238 359.473C332.238 352.187 332.921 346.723 334.287 343.081C335.653 339.438 337.702 336.023 340.434 332.836C343.166 329.648 347.264 326.461 352.728 323.274C358.192 320.086 365.477 318.493 374.584 318.493C383.691 318.493 388.699 317.354 389.61 315.078C390.521 312.801 392.797 310.524 396.44 308.248C400.083 305.971 406.685 303.239 416.247 300.052C425.809 296.864 434.916 295.271 443.567 295.271ZM740.672 308.931C744.315 309.841 746.136 312.573 746.136 317.127C746.136 321.68 744.315 327.599 740.672 334.885C737.029 342.17 733.159 346.04 729.061 346.496C727.012 346.723 724.963 346.951 722.914 347.179C722.914 344.219 722.914 341.259 722.914 338.3C722.914 332.38 724.963 325.778 729.061 318.493C733.159 311.207 737.029 308.02 740.672 308.931ZM755.698 318.493C759.341 319.403 761.39 321.68 761.845 325.323C762.3 328.965 761.617 332.153 759.796 334.885C757.975 337.617 756.381 341.715 755.015 347.179C753.649 352.643 751.372 355.83 748.185 356.741C744.998 357.651 742.266 357.424 739.989 356.058C737.712 354.692 736.574 353.326 736.574 351.96C736.574 350.594 738.851 344.447 743.404 333.519C747.957 322.591 752.055 317.582 755.698 318.493ZM718.816 321.225C720.182 321.225 721.548 321.225 722.914 321.225C722.231 323.957 721.548 326.689 720.865 329.421C719.499 334.885 716.084 338.527 710.62 340.349C705.156 342.17 702.196 343.764 701.741 345.13C701.286 346.496 702.424 347.862 705.156 349.228C707.888 350.594 710.392 353.326 712.669 357.424C714.946 361.522 715.856 365.392 715.401 369.035C715.173 370.856 714.946 372.677 714.718 374.499C715.401 374.043 716.084 373.588 716.767 373.133C718.133 372.222 718.816 370.401 718.816 367.669C718.816 364.937 718.133 361.977 716.767 358.79C715.401 355.602 713.124 352.415 709.937 349.228C708.343 347.634 706.75 346.04 705.156 344.447C707.205 343.764 709.254 343.081 711.303 342.398C715.401 341.032 718.361 342.17 720.182 345.813C722.003 349.455 724.735 351.049 728.378 350.594C730.199 350.366 732.021 350.138 733.842 349.911C733.842 350.821 733.842 351.732 733.842 352.643C733.842 354.464 734.525 356.058 735.891 357.424C737.257 358.79 739.534 359.928 742.721 360.839C745.908 361.749 748.413 361.522 750.234 360.156C751.145 359.473 752.055 358.79 752.966 358.107C753.649 359.928 754.332 361.749 755.015 363.571C756.381 367.213 756.381 371.084 755.015 375.182C753.649 379.28 751.145 383.833 747.502 388.842C743.859 393.85 734.297 396.81 718.816 397.721C703.335 398.631 694.683 397.265 692.862 393.623C691.951 391.801 691.041 389.98 690.13 388.159C690.813 389.069 691.496 389.98 692.179 390.891C692.862 391.801 693.545 392.712 694.228 393.623C694.683 393.167 695.139 392.712 695.594 392.257C696.505 391.346 693.317 386.793 686.032 378.597C678.747 370.401 674.876 361.977 674.421 353.326C673.966 344.674 674.649 338.983 676.47 336.251C678.291 333.519 681.479 331.014 686.032 328.738C690.585 326.461 696.505 324.64 703.79 323.274C711.075 321.908 716.084 321.225 718.816 321.225ZM772.09 328.738C773.911 329.193 775.05 331.242 775.505 334.885C775.96 338.527 774.367 343.764 770.724 350.594C767.081 357.424 764.122 361.066 761.845 361.522C760.707 361.749 759.568 361.977 758.43 362.205C758.202 359.928 757.975 357.651 757.747 355.375C757.292 350.821 757.975 346.04 759.796 341.032C761.617 336.023 763.666 332.608 765.943 330.787C768.22 328.965 770.269 328.282 772.09 328.738ZM396.44 362.205C401.221 365.164 406.002 368.124 410.783 371.084C420.345 377.003 426.492 379.507 429.224 378.597C431.956 377.686 433.55 375.865 434.005 373.133C434.233 371.767 434.46 370.401 434.688 369.035C436.965 370.856 439.241 372.677 441.518 374.499C446.071 378.141 450.397 380.19 454.495 380.646C456.544 380.873 458.593 381.101 460.642 381.329C458.365 382.467 456.089 383.605 453.812 384.744C451.535 385.882 449.259 387.02 446.982 388.159C447.665 389.297 448.348 390.435 449.031 391.574C450.397 393.85 453.812 394.533 459.276 393.623C464.74 392.712 471.342 394.078 479.083 397.721C486.824 401.363 491.377 402.274 492.743 400.453C494.109 398.631 492.971 396.127 489.328 392.94C485.685 389.752 482.043 387.476 478.4 386.11C476.579 385.427 474.757 384.744 472.936 384.061C476.123 384.288 479.311 384.516 482.498 384.744C488.873 385.199 495.475 395.216 502.305 414.796C509.135 434.375 512.55 448.263 512.55 456.459C512.55 464.655 511.867 473.761 510.501 483.779C509.135 493.796 505.492 502.675 499.573 510.416C496.613 514.286 493.654 518.156 490.694 522.027C491.149 513.603 491.605 505.179 492.06 496.756C492.971 479.908 492.971 469.891 492.06 466.704C491.149 463.516 483.636 459.874 469.521 455.776C455.406 451.678 448.12 440.75 447.665 422.992C447.21 405.234 446.527 396.355 445.616 396.355C445.161 396.355 444.705 396.355 444.25 396.355C444.25 397.948 444.25 399.542 444.25 401.136C444.25 404.323 444.705 413.43 445.616 428.456C446.071 435.969 446.527 443.482 446.982 450.995C441.746 449.856 436.509 448.718 431.273 447.58C426.037 446.441 420.8 445.303 415.564 444.165C416.475 445.075 417.385 445.986 418.296 446.897C419.207 447.807 420.117 448.718 421.028 449.629C417.841 450.312 414.653 450.995 411.466 451.678C405.091 453.044 397.578 456.231 388.927 461.24C380.276 466.248 375.95 472.851 375.95 481.047C375.95 489.243 376.633 496.528 377.999 502.903C379.365 509.277 381.869 515.88 385.512 522.71C387.333 526.125 389.155 529.54 390.976 532.955C385.967 528.629 380.959 524.303 375.95 519.978C365.933 511.326 359.786 504.269 357.509 498.805C355.232 493.341 353.639 484.689 352.728 472.851C351.817 461.012 351.362 453.954 351.362 451.678C351.362 450.539 351.362 449.401 351.362 448.263C352.728 448.263 354.094 448.263 355.46 448.263C356.826 448.263 358.192 448.263 359.558 448.263C359.103 441.205 358.647 434.147 358.192 427.09C357.281 412.974 358.192 405.461 360.924 404.551C363.656 403.64 368.892 399.77 376.633 392.94C384.374 386.11 389.61 379.28 392.342 372.45C393.708 369.035 395.074 365.62 396.44 362.205ZM392.342 388.842C386.878 391.118 383.235 394.078 381.414 397.721C380.503 399.542 379.593 401.363 378.682 403.185C380.048 403.412 381.414 403.64 382.78 403.868C385.512 404.323 388.016 403.412 390.293 401.136C392.57 398.859 398.034 397.493 406.685 397.038C415.336 396.582 420.345 395.899 421.711 394.989C423.077 394.078 423.988 392.94 424.443 391.574C424.898 390.208 424.443 388.842 423.077 387.476C421.711 386.11 417.613 385.427 410.783 385.427C403.953 385.427 397.806 386.565 392.342 388.842ZM466.106 386.793C473.391 387.703 479.538 389.98 484.547 393.623C487.051 395.444 489.556 397.265 492.06 399.087C491.605 399.314 491.149 399.542 490.694 399.77C489.783 400.225 487.279 399.087 483.181 396.355C479.083 393.623 474.985 391.801 470.887 390.891C466.789 389.98 462.463 389.98 457.91 390.891C455.633 391.346 453.357 391.801 451.08 392.257C451.08 391.574 451.08 390.891 451.08 390.208C451.08 388.842 451.763 387.703 453.129 386.793C454.495 385.882 458.821 385.882 466.106 386.793ZM410.1 388.159C416.475 388.159 419.89 388.842 420.345 390.208C420.573 390.891 420.8 391.574 421.028 392.257C416.475 392.712 411.921 393.167 407.368 393.623C398.261 394.533 392.797 395.899 390.976 397.721C389.155 399.542 387.106 400.68 384.829 401.136C383.691 401.363 382.552 401.591 381.414 401.819C382.78 400.225 384.146 398.631 385.512 397.038C388.244 393.85 391.431 391.574 395.074 390.208C398.717 388.842 403.725 388.159 410.1 388.159ZM744.77 397.721C746.591 397.721 748.413 400.453 750.234 405.917C751.145 408.649 752.055 411.381 752.966 414.113C743.404 414.796 733.842 415.479 724.28 416.162C705.156 417.528 695.139 415.479 694.228 410.015C693.773 407.283 693.317 404.551 692.862 401.819C701.058 401.136 709.254 400.453 717.45 399.77C733.842 398.404 742.949 397.721 744.77 397.721ZM463.374 412.747C462.463 413.657 462.008 416.162 462.008 420.26C462.008 424.358 462.919 426.862 464.74 427.773C466.561 428.683 467.927 428.683 468.838 427.773C469.749 426.862 470.204 424.585 470.204 420.943C470.204 417.3 469.293 414.796 467.472 413.43C465.651 412.064 464.285 411.836 463.374 412.747ZM397.806 420.26C397.806 422.764 397.806 425.268 397.806 427.773C398.717 427.773 399.627 427.773 400.538 427.773C402.359 427.773 403.498 425.951 403.953 422.309C404.408 418.666 403.498 416.162 401.221 414.796C400.083 414.113 398.944 413.43 397.806 412.747C397.806 415.251 397.806 417.755 397.806 420.26ZM474.985 433.92C471.115 435.513 467.244 437.107 463.374 438.701C467.472 437.79 471.57 436.879 475.668 435.969C483.864 434.147 488.417 432.781 489.328 431.871C489.783 431.415 490.239 430.96 490.694 430.505C490.011 430.277 489.328 430.049 488.645 429.822C487.279 429.366 482.726 430.732 474.985 433.92ZM388.244 434.603C392.797 436.424 396.668 437.335 399.855 437.335C401.449 437.335 403.042 437.335 404.636 437.335C403.27 436.652 401.904 435.969 400.538 435.286C397.806 433.92 393.936 433.009 388.927 432.554C386.423 432.326 383.918 432.098 381.414 431.871C383.691 432.781 385.967 433.692 388.244 434.603ZM524.844 437.335C527.576 439.156 529.17 442.116 529.625 446.214C530.08 450.312 529.397 454.637 527.576 459.191C525.755 463.744 523.023 468.07 519.38 472.168C517.559 474.217 515.737 476.266 513.916 478.315C514.144 471.94 514.371 465.565 514.599 459.191C515.054 446.441 516.193 439.156 518.014 437.335C519.835 435.513 522.112 435.513 524.844 437.335ZM338.385 436.652C340.662 437.107 342.938 438.928 345.215 442.116C347.492 445.303 348.858 452.588 349.313 463.972C349.541 469.663 349.768 475.355 349.996 481.047C347.036 477.859 344.077 474.672 341.117 471.485C335.198 465.11 332.01 459.191 331.555 453.727C331.1 448.263 331.555 443.937 332.921 440.75C334.287 437.562 336.108 436.196 338.385 436.652ZM436.054 452.361C442.429 454.182 446.754 454.637 449.031 453.727C451.308 452.816 457.682 453.727 468.155 456.459C478.628 459.191 485.002 461.923 487.279 464.655C489.556 467.387 490.922 471.94 491.377 478.315C491.832 484.689 490.922 494.251 488.645 507.001C486.368 519.75 482.498 528.629 477.034 533.638C471.57 538.646 466.334 542.289 461.325 544.566C456.316 546.842 449.714 548.436 441.518 549.347C433.322 550.257 426.72 550.485 421.711 550.03C416.702 549.574 412.149 548.436 408.051 546.615C403.953 544.793 399.627 540.695 395.074 534.321C390.521 527.946 386.878 521.116 384.146 513.831C381.414 506.545 379.593 500.171 378.682 494.707C377.771 489.243 377.544 483.551 377.999 477.632C378.454 471.712 383.008 466.476 391.659 461.923C400.31 457.369 408.279 454.182 415.564 452.361C422.849 450.539 429.679 450.539 436.054 452.361ZM427.175 463.289C416.702 466.021 408.506 469.436 402.587 473.534C396.668 477.632 393.936 482.64 394.391 488.56C394.846 494.479 396.212 500.398 398.489 506.318C400.766 512.237 403.725 517.018 407.368 520.661C411.011 524.303 415.564 526.125 421.028 526.125C426.492 526.125 430.135 524.986 431.956 522.71C433.777 520.433 434.916 517.473 435.371 513.831C435.826 510.188 437.42 508.367 440.152 508.367C442.884 508.367 444.933 510.416 446.299 514.514C447.665 518.612 449.031 521.116 450.397 522.027C451.763 522.937 454.723 523.165 459.276 522.71C463.829 522.254 467.472 520.205 470.204 516.563C472.936 512.92 474.985 508.139 476.351 502.22C477.717 496.3 478.172 489.698 477.717 482.413C477.262 475.127 474.985 470.119 470.887 467.387C466.789 464.655 461.097 462.606 453.812 461.24C446.527 459.874 437.648 460.557 427.175 463.289ZM445.616 463.289C451.991 463.289 458.365 464.882 464.74 468.07C471.115 471.257 474.53 476.266 474.985 483.096C475.44 489.926 475.213 495.617 474.302 500.171C473.391 504.724 471.57 509.05 468.838 513.148C466.106 517.246 463.374 519.75 460.642 520.661C457.91 521.571 455.633 521.571 453.812 520.661C451.991 519.75 451.08 518.156 451.08 515.88C451.08 513.603 450.169 511.326 448.348 509.05C446.527 506.773 443.795 505.635 440.152 505.635C436.509 505.635 434.005 508.139 432.639 513.148C431.273 518.156 428.541 521.344 424.443 522.71C420.345 524.076 416.475 523.62 412.832 521.344C409.189 519.067 406.457 516.107 404.636 512.465C402.815 508.822 400.993 503.358 399.172 496.073C397.351 488.787 396.668 484.006 397.123 481.73C397.578 479.453 400.083 476.949 404.636 474.217C409.189 471.485 415.564 468.98 423.76 466.704C431.956 464.427 439.241 463.289 445.616 463.289ZM458.593 477.632C454.495 479.908 446.754 481.047 435.371 481.047C429.679 481.047 423.988 481.047 418.296 481.047C418.296 481.502 418.296 481.957 418.296 482.413C418.296 483.323 423.532 484.006 434.005 484.462C444.478 484.917 452.674 484.006 458.593 481.73C464.512 479.453 467.7 477.632 468.155 476.266C468.383 475.583 468.61 474.9 468.838 474.217C468.155 474.217 467.472 474.217 466.789 474.217C465.423 474.217 462.691 475.355 458.593 477.632ZM375.95 526.125C379.137 528.174 382.325 530.223 385.512 532.272C391.887 536.37 396.44 540.012 399.172 543.2C401.904 546.387 405.547 548.664 410.1 550.03C414.653 551.396 420.117 552.306 426.492 552.762C432.867 553.217 439.697 552.762 446.982 551.396C454.267 550.03 460.187 548.208 464.74 545.932C469.293 543.655 472.936 541.151 475.668 538.419C477.034 537.053 478.4 535.687 479.766 534.321C480.221 536.142 480.677 537.963 481.132 539.785C482.043 543.427 475.44 553.445 461.325 569.837C447.21 586.229 438.331 595.791 434.688 598.523C431.045 601.255 420.8 593.969 403.953 576.667C387.106 559.364 378.227 546.615 377.316 538.419C376.861 534.321 376.405 530.223 375.95 526.125ZM372.535 538.419C373.218 538.419 373.901 538.419 374.584 538.419C374.584 540.468 374.584 542.517 374.584 544.566C374.584 548.664 382.325 558.453 397.806 573.935C413.287 589.416 414.198 604.67 400.538 619.696C386.878 634.722 379.593 642.235 378.682 642.235C377.771 642.235 373.446 629.941 365.705 605.353C357.964 580.765 354.094 567.332 354.094 565.056C354.094 562.779 356.826 557.77 362.29 550.03C367.754 542.289 371.169 538.419 372.535 538.419ZM485.23 541.151C489.783 544.793 494.337 548.436 498.89 552.079C507.997 559.364 509.363 575.756 502.988 601.255C499.801 614.004 496.613 626.753 493.426 639.503C485.002 632.217 476.579 624.932 468.155 617.647C459.731 610.361 451.308 603.076 442.884 595.791C449.942 587.595 456.999 579.399 464.057 571.203C478.172 554.811 485.23 545.704 485.23 543.883C485.23 542.972 485.23 542.061 485.23 541.151ZM440.152 597.157C443.567 600.116 446.982 603.076 450.397 606.036C457.227 611.955 457.227 619.923 450.397 629.941C446.982 634.949 443.567 639.958 440.152 644.967C440.607 645.194 441.063 645.422 441.518 645.65C442.429 646.105 443.112 647.926 443.567 651.114C444.022 654.301 448.803 696.192 457.91 776.786C467.017 857.38 465.651 905.19 453.812 920.216C447.893 927.729 441.973 935.242 436.054 942.755C428.541 935.925 421.028 929.095 413.515 922.265C398.489 908.605 390.976 901.092 390.976 899.726C390.976 898.36 396.895 856.469 408.734 774.054C420.573 691.638 426.492 649.292 426.492 647.016C426.492 644.739 423.305 639.73 416.93 631.99C410.555 624.249 407.368 619.696 407.368 618.33C407.368 616.964 409.872 613.549 414.881 608.085C419.89 602.621 423.988 601.027 427.175 603.304C430.362 605.58 433.322 605.125 436.054 601.938C437.42 600.344 438.786 598.75 440.152 597.157ZM630.709 629.941C628.432 638.137 627.977 642.918 629.343 644.284C630.026 644.967 630.709 645.65 631.392 646.333C632.303 642.235 633.213 638.137 634.124 634.039C635.945 625.843 636.856 621.062 636.856 619.696C636.856 619.013 636.856 618.33 636.856 617.647C636.401 617.647 635.945 617.647 635.49 617.647C634.579 617.647 632.986 621.745 630.709 629.941ZM240.033 666.823C239.578 667.733 240.033 669.327 241.399 671.604C242.765 673.88 244.131 675.246 245.497 675.702C246.18 675.929 246.863 676.157 247.546 676.385C247.318 675.246 247.091 674.108 246.863 672.97C246.408 670.693 245.269 668.872 243.448 667.506C242.537 666.823 241.627 666.14 240.716 665.457C240.488 665.912 240.261 666.367 240.033 666.823ZM233.203 694.143C238.895 701.428 244.586 708.713 250.278 715.999C248.912 713.039 247.546 710.079 246.18 707.12C243.448 701.2 237.756 693.915 229.105 685.264C224.779 680.938 220.454 676.612 216.128 672.287C221.82 679.572 227.511 686.857 233.203 694.143ZM538.504 869.674C537.138 872.178 535.772 874.682 534.406 877.187C536 875.593 537.593 873.999 539.187 872.406C542.374 869.218 543.74 866.714 543.285 864.893C543.057 863.982 542.83 863.071 542.602 862.161C541.236 864.665 539.87 867.169 538.504 869.674ZM514.599 886.066C510.501 890.164 508.452 892.896 508.452 894.262C508.452 894.945 508.452 895.628 508.452 896.311C510.956 894.034 513.461 891.757 515.965 889.481C518.469 887.204 520.974 884.927 523.478 882.651C523.023 882.195 522.567 881.74 522.112 881.285C521.657 880.829 521.201 880.374 520.746 879.919C518.697 881.968 516.648 884.017 514.599 886.066ZM505.72 916.118C497.979 926.818 490.239 937.518 482.498 948.219C484.775 946.397 487.051 944.576 489.328 942.755C493.881 939.112 500.256 931.827 508.452 920.899C516.648 909.971 522.567 901.547 526.21 895.628C529.853 889.708 531.219 886.293 530.308 885.383C529.853 884.927 529.397 884.472 528.942 884.017C521.201 894.717 513.461 905.417 505.72 916.118ZM479.766 928.412C463.374 947.08 452.674 960.057 447.665 967.343C445.161 970.985 442.656 974.628 440.152 978.271C440.835 978.271 441.518 978.271 442.201 978.271C443.567 978.271 446.982 974.4 452.446 966.66C457.91 958.919 466.334 948.902 477.717 936.608C489.1 924.314 496.613 915.89 500.256 911.337C503.899 906.783 505.492 903.824 505.037 902.458C504.809 901.775 504.582 901.092 504.354 900.409C496.158 909.743 487.962 919.077 479.766 928.412Z" fill="#000000" fill-rule="nonzero" opacity="1" stroke="none" vectornator:layerName="Courbe 1"/>
</g>
</svg>
