<?xml version="1.0" encoding="UTF-8" standalone="no"?>
<!DOCTYPE svg PUBLIC "-//W3C//DTD SVG 1.1//EN" "http://www.w3.org/Graphics/SVG/1.1/DTD/svg11.dtd">
<!-- Created with Vectornator (http://vectornator.io/) -->
<svg height="100%" stroke-miterlimit="10" style="fill-rule:nonzero;clip-rule:evenodd;stroke-linecap:round;stroke-linejoin:round;" version="1.1" viewBox="0 0 600 600" width="100%" xml:space="preserve" xmlns="http://www.w3.org/2000/svg" xmlns:vectornator="http://vectornator.io" xmlns:xlink="http://www.w3.org/1999/xlink">
<defs/>
<g id="Calque-1" vectornator:layerName="Calque 1">
<path d="M507.411 24.9416C507.411 28.4058 497.727 38.7985 478.357 56.1195C458.988 73.4406 450.111 89.6069 451.725 104.618C453.339 119.63 429.935 151.963 381.512 201.616C333.089 251.27 305.649 274.365 299.193 270.901C292.737 267.436 284.397 265.704 274.174 265.704C263.952 265.704 253.191 268.302 241.893 273.499C230.594 278.695 222.254 284.18 216.874 289.954C211.494 295.727 206.921 302.656 203.154 310.739C199.388 318.822 197.505 327.483 197.505 336.721C197.505 345.959 198.043 351.444 199.119 353.176C199.657 354.042 200.195 354.908 200.733 355.774C201.002 349.711 201.271 343.649 201.54 337.587C202.078 325.462 204.23 315.935 207.997 309.007C211.763 302.079 216.874 295.727 223.331 289.954C229.787 284.18 237.05 279.561 245.121 276.097C253.191 272.633 262.338 270.901 272.56 270.901C282.783 270.901 290.584 272.055 295.965 274.365C298.655 275.52 301.345 276.674 304.035 277.829C296.234 286.201 288.432 294.573 280.631 302.945C265.028 319.688 258.303 330.37 260.455 334.989C262.607 339.607 265.835 341.917 270.139 341.917C272.291 341.917 274.444 341.917 276.596 341.917C276.596 341.051 276.596 340.185 276.596 339.319C276.596 337.587 284.397 328.926 300 313.337C315.603 297.748 324.48 290.82 326.633 292.552C328.785 294.284 330.668 297.46 332.282 302.079C333.896 306.697 334.165 315.935 333.089 329.792C332.013 343.649 329.861 353.753 326.633 360.104C323.404 366.455 319.369 372.229 314.527 377.425C309.685 382.621 302.959 387.529 294.351 392.148C285.742 396.767 275.52 399.076 263.683 399.076C251.846 399.076 242.162 396.767 234.629 392.148C227.097 387.529 221.447 382.621 217.681 377.425C213.915 372.229 211.763 368.187 211.225 365.3C210.687 362.414 209.88 360.97 208.804 360.97C208.266 360.97 207.728 360.97 207.19 360.97C207.997 363.568 208.804 366.166 209.611 368.765C211.225 373.961 214.453 379.446 219.295 385.22C224.138 390.993 230.056 395.612 237.05 399.076C244.045 402.541 251.846 404.561 260.455 405.139C269.063 405.716 277.134 404.85 284.666 402.541C292.199 400.231 298.924 397.056 304.842 393.014C310.761 388.972 316.41 383.487 321.79 376.559C327.171 369.631 331.475 361.836 334.703 353.176C337.931 344.515 339.545 334.989 339.545 324.596C339.545 314.203 337.931 304.677 334.703 296.016C331.475 287.356 352.727 259.931 398.46 213.741C444.192 167.552 476.205 145.323 494.498 147.055C512.791 148.787 523.552 148.498 526.78 146.189C528.394 145.034 530.008 143.88 531.623 142.725C531.354 144.457 531.085 146.189 530.816 147.921C530.547 149.653 530.277 151.385 530.008 153.117C531.892 149.365 533.775 145.612 535.658 141.859C539.424 134.353 547.495 124.249 559.869 111.547C566.057 105.196 572.244 98.8448 578.431 92.4937C577.355 91.339 576.279 90.1843 575.203 89.0295C573.051 86.7201 570.899 86.1427 568.747 87.2974C566.595 88.4522 558.524 88.7408 544.535 88.1635C537.541 87.8748 530.547 87.5861 523.552 87.2974C524.628 86.1427 525.704 84.9879 526.78 83.8332C528.932 81.5237 530.547 78.0595 531.623 73.4406C532.699 68.8216 532.43 65.3574 530.816 63.0479C529.201 60.7385 527.049 59.5837 524.359 59.5837C521.669 59.5837 519.517 61.6045 517.903 65.6461C516.289 69.6877 514.944 71.7085 513.868 71.7085C512.791 71.7085 511.984 63.0479 511.446 45.7269C510.908 28.4058 510.101 19.7453 509.025 19.7453C508.487 19.7453 507.949 19.7453 507.411 19.7453C507.411 21.4774 507.411 23.2095 507.411 24.9416ZM505.797 37.0664C506.873 37.0664 507.68 43.7061 508.218 56.9856C508.756 70.265 500.686 85.2766 484.007 102.02C475.667 110.392 467.328 118.764 458.988 127.136C458.181 119.919 457.374 112.702 456.567 105.485C454.953 91.0503 460.333 78.6369 472.708 68.2443C485.083 57.8516 493.422 50.0571 497.727 44.8608C502.031 39.6645 504.721 37.0664 505.797 37.0664ZM526.78 66.5122C527.318 66.5122 527.856 66.5122 528.394 66.5122C528.394 67.9556 528.394 69.399 528.394 70.8424C528.394 73.7293 527.587 76.3274 525.973 78.6369C524.359 80.9464 521.4 83.5445 517.096 86.4314C512.791 89.3182 510.639 91.6277 510.639 93.3598C510.639 95.0919 503.107 103.752 488.042 119.341C472.977 134.93 463.562 143.88 459.795 146.189C456.029 148.498 452.263 152.251 448.497 157.448C444.73 162.644 414.063 194.111 356.493 251.847C298.924 309.584 269.063 337.875 266.911 336.721C264.759 335.566 263.414 334.122 262.876 332.39C262.338 330.658 278.479 312.76 311.299 278.695C344.119 244.63 372.903 214.896 397.653 189.492C422.402 164.087 435.853 151.963 438.005 153.117C440.157 154.272 444.192 151.963 450.111 146.189C456.029 140.415 470.018 125.692 492.077 102.02C514.137 78.3482 525.704 66.5122 526.78 66.5122ZM237.05 86.4314C218.219 89.3182 198.312 95.3806 177.329 104.618C156.346 113.856 138.86 123.96 124.871 134.93C110.882 145.9 99.0452 156.87 89.3607 167.84C79.6761 178.81 71.0676 190.069 63.5351 201.616C56.0027 213.164 50.0844 223.556 45.7801 232.794C41.4758 242.032 37.1716 253.868 32.8673 268.302C28.5631 282.737 25.6039 295.439 23.9898 306.409C22.3757 317.379 21.5687 328.637 21.5687 340.185C21.5687 351.732 23.1828 366.166 26.411 383.487C29.6392 400.809 34.2124 416.398 40.1308 430.254C46.0491 444.111 51.1604 453.926 55.4647 459.7C57.6168 462.587 59.7689 465.474 61.921 468.361C62.1901 467.783 62.4591 467.206 62.7281 466.629C63.2661 465.474 61.114 461.432 56.2717 454.504C51.4294 447.575 46.0491 436.317 40.1308 420.728C34.2124 405.139 30.4462 393.014 28.8321 384.354C27.218 375.693 26.411 361.547 26.411 341.917C26.411 322.286 27.756 305.831 30.4462 292.552C33.1364 279.272 37.7096 264.55 44.166 248.383C50.6224 232.217 56.5407 219.515 61.921 210.277C67.3014 201.039 75.6409 189.78 86.9395 176.501C98.2382 163.221 109.537 151.963 120.835 142.725C132.134 133.487 143.433 125.692 154.731 119.341C166.03 112.99 177.598 107.505 189.435 102.886C201.271 98.2674 214.991 94.5145 230.594 91.6277C246.197 88.7408 259.379 87.2974 270.139 87.2974C280.9 87.2974 293.813 88.7408 308.878 91.6277C323.942 94.5145 339.007 99.4222 354.072 106.351C369.137 113.279 380.705 119.63 388.775 125.404C392.81 128.291 396.846 131.177 400.881 134.064C400.881 132.91 400.881 131.755 400.881 130.6C400.881 128.291 392.003 121.94 374.248 111.547C356.493 101.154 341.697 94.2258 329.861 90.7616C318.024 87.2974 304.304 84.9879 288.701 83.8332C273.098 82.6785 255.881 83.5445 237.05 86.4314ZM543.728 92.4937C552.068 92.4937 560.407 92.4937 568.747 92.4937C561.483 100.866 554.22 109.237 546.956 117.609C532.43 134.353 516.558 142.436 499.341 141.859C490.732 141.57 482.124 141.281 473.515 140.993C481.048 132.91 488.58 124.826 496.112 116.743C511.177 100.577 527.049 92.4937 543.728 92.4937ZM223.331 146.189C208.266 149.653 195.353 153.983 184.592 159.18C173.832 164.376 163.071 171.016 152.31 179.099C141.55 187.182 132.134 195.843 124.064 205.081C115.993 214.319 108.999 223.845 103.08 233.66C97.1621 243.476 91.7818 255.023 86.9395 268.302C82.0972 281.582 78.869 292.263 77.2549 300.346C75.6409 308.43 75.1028 322.286 75.6409 341.917C75.9099 351.732 76.1789 361.547 76.4479 371.363C76.9859 360.393 77.524 349.423 78.062 338.453C79.1381 316.513 81.5592 298.903 85.3254 285.624C89.0916 272.344 95.279 257.91 103.888 242.321C112.496 226.732 121.374 214.03 130.52 204.215C139.667 194.399 148.275 186.605 156.346 180.831C164.416 175.057 176.522 168.706 192.663 161.778C208.804 154.85 227.635 150.519 249.156 148.787C270.677 147.055 289.777 147.921 306.456 151.385C323.135 154.85 340.352 160.912 358.107 169.572C366.985 173.903 375.862 178.233 384.74 182.563C384.74 181.697 384.74 180.831 384.74 179.965C384.74 178.233 383.126 176.212 379.898 173.903C376.669 171.593 366.716 166.686 350.037 159.18C333.358 151.674 319.1 146.766 307.263 144.457C295.427 142.147 282.245 140.993 267.718 140.993C253.191 140.993 238.395 142.725 223.331 146.189ZM469.48 196.42C478.626 209.122 487.235 224.422 495.305 242.321C503.376 260.219 508.756 275.808 511.446 289.088C514.137 302.367 515.482 317.667 515.482 334.989C515.482 352.31 514.406 366.455 512.253 377.425C510.101 388.395 505.797 402.252 499.341 418.996C492.884 435.739 484.545 451.617 474.322 466.629C464.1 481.64 455.222 492.899 447.69 500.405C440.157 507.91 430.204 516.282 417.829 525.52C405.454 534.758 390.12 543.419 371.827 551.502C353.534 559.585 338.2 565.07 325.826 567.957C313.451 570.844 297.31 572.576 277.403 573.153C257.496 573.73 242.162 573.153 231.401 571.421C220.64 569.689 207.459 566.225 191.856 561.028C176.253 555.832 160.65 548.615 145.047 539.377C129.444 530.139 116.8 520.613 107.116 510.797C97.4311 500.982 91.7818 496.074 90.1677 496.074C88.5536 496.074 87.4775 496.94 86.9395 498.673C86.4015 500.405 91.2438 506.178 101.466 515.994C111.689 525.809 124.871 535.624 141.012 545.439C157.153 555.255 171.948 562.472 185.399 567.091C198.85 571.71 212.839 575.174 227.366 577.483C241.893 579.793 258.572 580.659 277.403 580.081C296.234 579.504 312.644 577.483 326.633 574.019C340.621 570.555 356.493 564.781 374.248 556.698C392.003 548.615 407.068 539.954 419.443 530.716C431.818 521.479 443.385 511.086 454.146 499.539C464.907 487.991 474.591 475.289 483.2 461.432C491.808 447.575 498.803 433.43 504.183 418.996C509.563 404.561 513.599 389.55 516.289 373.961C518.979 358.372 520.055 343.36 519.517 328.926C518.979 314.492 516.827 298.903 513.06 282.159C509.294 265.416 503.645 249.249 496.112 233.66C488.58 218.071 481.317 205.658 474.322 196.42C467.328 187.182 462.486 181.697 459.795 179.965C458.45 179.099 457.105 178.233 455.76 177.367C460.333 183.718 464.907 190.069 469.48 196.42ZM238.664 204.215C228.442 207.101 219.564 210.566 212.032 214.607C204.499 218.649 198.043 222.69 192.663 226.732C187.282 230.774 180.826 237.125 173.294 245.785C165.761 254.446 159.843 262.529 155.539 270.035C151.234 277.54 147.199 287.356 143.433 299.48C139.667 311.605 137.514 326.328 136.976 343.649C136.438 360.97 136.707 371.363 137.783 374.827C138.322 376.559 138.86 378.291 139.398 380.023C139.398 372.517 139.398 365.012 139.398 357.506C139.398 342.494 141.012 327.771 144.24 313.337C147.468 298.903 152.041 286.201 157.96 275.231C163.878 264.261 170.603 254.734 178.136 246.651C185.668 238.568 195.084 231.062 206.383 224.134C217.681 217.205 228.711 212.298 239.471 209.411C250.232 206.524 262.069 205.081 274.982 205.081C287.894 205.081 301.614 207.39 316.141 212.009C323.404 214.319 330.668 216.628 337.931 218.937C337.662 217.783 337.393 216.628 337.124 215.473C336.586 213.164 332.551 210.566 325.018 207.679C317.486 204.792 303.766 202.771 283.859 201.616C263.952 200.462 248.887 201.328 238.664 204.215ZM442.847 250.115C452.532 269.746 458.45 286.778 460.602 301.212C462.755 315.647 463.562 328.349 463.024 339.319C462.486 350.289 460.602 361.836 457.374 373.961C454.146 386.086 450.649 396.19 446.883 404.273C443.116 412.356 438.543 420.439 433.163 428.522C427.782 436.605 418.905 446.709 406.53 458.834C394.156 470.959 382.05 480.485 370.213 487.414C358.376 494.342 347.078 499.827 336.317 503.869C325.556 507.91 313.72 511.086 300.807 513.395C287.894 515.705 275.251 516.86 262.876 516.86C250.501 516.86 234.898 514.55 216.067 509.931C197.236 505.312 180.557 498.961 166.03 490.878C151.503 482.795 139.936 474.134 131.327 464.896C122.719 455.659 117.607 450.751 115.993 450.174C115.186 449.885 114.379 449.596 113.572 449.308C113.303 450.462 113.034 451.617 112.765 452.772C112.227 455.081 116.531 460.566 125.678 469.227C134.824 477.887 144.778 485.682 155.539 492.61C166.299 499.539 177.867 505.312 190.242 509.931C202.616 514.55 216.067 518.014 230.594 520.324C245.121 522.633 259.379 523.499 273.367 522.922C287.356 522.345 300.269 520.613 312.106 517.726C323.942 514.839 333.627 511.952 341.159 509.065C348.692 506.178 359.452 500.405 373.441 491.744C387.43 483.084 400.612 472.402 412.987 459.7C425.361 446.998 433.432 437.76 437.198 431.986C440.964 426.213 445.538 417.552 450.918 406.005C456.298 394.457 460.333 383.199 463.024 372.229C465.714 361.259 467.059 346.825 467.059 328.926C467.059 311.028 465.714 296.594 463.024 285.624C460.333 274.654 456.298 263.684 450.918 252.714C445.538 241.744 440.426 233.66 435.584 228.464C433.163 225.866 430.742 223.268 428.321 220.67C433.163 230.485 438.005 240.3 442.847 250.115ZM390.389 276.963C394.156 287.933 396.039 302.079 396.039 319.4C396.039 336.721 393.348 352.598 387.968 367.032C382.588 381.467 377.746 391.859 373.441 398.21C369.137 404.561 363.488 411.201 356.493 418.13C349.499 425.058 340.083 431.986 328.247 438.915C316.41 445.843 302.152 451.04 285.473 454.504C268.794 457.968 253.729 458.834 240.278 457.102C226.828 455.37 214.453 451.906 203.154 446.709C191.856 441.513 185.13 437.76 182.978 435.451C180.826 433.141 178.943 432.275 177.329 432.853C175.715 433.43 174.908 434.585 174.908 436.317C174.908 438.049 177.867 440.936 183.785 444.977C189.704 449.019 198.581 453.06 210.418 457.102C222.254 461.144 235.974 463.453 251.577 464.03C267.18 464.608 281.976 462.876 295.965 458.834C309.954 454.793 323.135 448.73 335.51 440.647C347.885 432.564 359.183 422.171 369.406 409.469C379.629 396.767 387.43 382.91 392.81 367.899C398.191 352.887 400.881 337.009 400.881 320.266C400.881 303.522 399.536 290.82 396.846 282.159C394.156 273.499 391.465 267.725 388.775 264.838C387.43 263.395 386.085 261.951 384.74 260.508C386.623 265.993 388.506 271.478 390.389 276.963ZM467.866 434.585C465.176 439.781 456.298 451.328 441.233 469.227C426.168 487.125 411.911 500.405 398.46 509.065C385.009 517.726 376.131 524.654 371.827 529.85C369.675 532.449 367.523 535.047 365.371 537.645C367.254 537.645 369.137 537.645 371.02 537.645C374.786 537.645 379.629 536.49 385.547 534.181C391.465 531.871 399.805 526.964 410.565 519.458C421.326 511.952 432.356 502.137 443.654 490.012C454.953 477.887 462.486 468.938 466.252 463.164C470.018 457.391 472.977 451.328 475.129 444.977C477.281 438.626 478.088 434.007 477.55 431.12C477.012 428.234 475.936 426.79 474.322 426.79C472.708 426.79 470.556 429.388 467.866 434.585ZM471.901 433.719C471.094 437.183 470.287 440.647 469.48 444.111C467.866 451.04 463.831 458.834 457.374 467.495C450.918 476.155 441.771 486.259 429.935 497.806C418.098 509.354 409.489 516.86 404.109 520.324C398.729 523.788 392.541 526.675 385.547 528.984C382.05 530.139 378.553 531.294 375.055 532.449C382.05 527.541 389.044 522.633 396.039 517.726C410.027 507.91 424.554 494.342 439.619 477.021C454.684 459.7 463.831 448.153 467.059 442.379C468.673 439.492 470.287 436.605 471.901 433.719Z" fill="#000000" fill-rule="nonzero" opacity="1" stroke="none" vectornator:layerName="Courbe 1"/>
</g>
</svg>
