<?xml version="1.0" encoding="UTF-8" standalone="no"?>
<!DOCTYPE svg PUBLIC "-//W3C//DTD SVG 1.1//EN" "http://www.w3.org/Graphics/SVG/1.1/DTD/svg11.dtd">
<!-- Created with Vectornator (http://vectornator.io/) -->
<svg height="100%" stroke-miterlimit="10" style="fill-rule:nonzero;clip-rule:evenodd;stroke-linecap:round;stroke-linejoin:round;" version="1.1" viewBox="0 0 512 512" width="100%" xml:space="preserve" xmlns="http://www.w3.org/2000/svg" xmlns:vectornator="http://vectornator.io" xmlns:xlink="http://www.w3.org/1999/xlink">
<defs/>
<g id="Calque-1" vectornator:layerName="Calque 1">
<path d="M220.5 35.5C207.5 37.8333 195.333 41 184 45C172.667 49 159.333 55.5 144 64.5C128.667 73.5 115.5 83 104.5 93C93.5 103 83.8333 113.5 75.5 124.5C67.1667 135.5 59.3333 148.5 52 163.5C44.6667 178.5 39 194.167 35 210.5C31 226.833 28.8333 242 28.5 256C28.1667 270 29 283.667 31 297C33 310.333 36 322.833 40 334.5C44 346.167 49.5 358.167 56.5 370.5C63.5 382.833 72.5 395.167 83.5 407.5C94.5 419.833 106.333 430.5 119 439.5C131.667 448.5 144.833 456 158.5 462C172.167 468 186 472.5 200 475.5C214 478.5 228.167 480.167 242.5 480.5C256.833 480.833 271.333 479.833 286 477.5C300.667 475.167 311.667 472.833 319 470.5C326.333 468.167 334.833 464.833 344.5 460.5C354.167 456.167 365.667 449.5 379 440.5C392.333 431.5 404 422 414 412C424 402 433.333 390.667 442 378C450.667 365.333 458 351.833 464 337.5C470 323.167 474.333 309.833 477 297.5C479.667 285.167 481.167 270.833 481.5 254.5C481.833 238.167 480.667 222.833 478 208.5C475.333 194.167 470.833 179.5 464.5 164.5C458.167 149.5 451.333 136.667 444 126C436.667 115.333 428.333 105.333 419 96C409.667 86.6667 398.5 77.6667 385.5 69C372.5 60.3333 359.333 53.3333 346 48C332.667 42.6667 319 38.6667 305 36C291 33.3333 276.667 32 262 32C247.333 32 233.5 33.1667 220.5 35.5ZM262 38C275.333 38 289 39.3333 303 42C317 44.6667 330.333 48.5 343 53.5C355.667 58.5 368.333 65.1667 381 73.5C393.667 81.8333 404.833 90.8333 414.5 100.5C424.167 110.167 432.5 120.167 439.5 130.5C446.5 140.833 453 153.167 459 167.5C465 181.833 469.333 196 472 210C474.667 224 475.833 238.667 475.5 254C475.167 269.333 473 285.167 469 301.5C465 317.833 459.667 332.833 453 346.5C446.333 360.167 439 372.333 431 383C423 393.667 413.333 404.167 402 414.5C390.667 424.833 379 433.667 367 441C355 448.333 341.167 454.833 325.5 460.5C309.833 466.167 295.5 470 282.5 472C269.5 474 255.167 474.667 239.5 474C223.833 473.333 208.333 471 193 467C177.667 463 164.167 458.167 152.5 452.5C140.833 446.833 130 440.333 120 433C110 425.667 100.333 417 91 407C81.6667 397 73 385.333 65 372C57 358.667 50.6667 345 46 331C41.3333 317 38.1667 304.333 36.5 293C34.8333 281.667 34.3333 268.167 35 252.5C35.6667 236.833 37.8333 222 41.5 208C45.1667 194 49.8333 181 55.5 169C61.1667 157 68.3333 145 77 133C85.6667 121 94.3333 110.833 103 102.5C111.667 94.1667 121.833 86 133.5 78C145.167 70 158.5 62.8333 173.5 56.5C188.5 50.1667 203.667 45.5 219 42.5C234.333 39.5 248.667 38 262 38ZM148.5 132C144.167 134 140.167 136.5 136.5 139.5C132.833 142.5 129.833 145.333 127.5 148C125.167 150.667 123.333 153.5 122 156.5C120.667 159.5 120.333 192.333 121 255C121.667 317.667 123.333 351.833 126 357.5C128.667 363.167 133.167 368.833 139.5 374.5C145.833 380.167 151 383.667 155 385C159 386.333 166.5 386.833 177.5 386.5C188.5 386.167 195.5 385.333 198.5 384C201.5 382.667 203.5 381.167 204.5 379.5C205.5 377.833 206.333 375.333 207 372C207.667 368.667 207.333 365.667 206 363C204.667 360.333 203 358.167 201 356.5C199 354.833 193.167 354 183.5 354C173.833 354 167.667 353.667 165 353C162.333 352.333 160.333 351.5 159 350.5C157.667 349.5 156.5 347.833 155.5 345.5C154.5 343.167 154 313 154 255C154 197 154.833 167 156.5 165C158.167 163 160.167 161.667 162.5 161C164.833 160.333 171.333 160.167 182 160.5C192.667 160.833 199 160.167 201 158.5C203 156.833 204.333 153.5 205 148.5C205.667 143.5 205.667 139.833 205 137.5C204.333 135.167 202.667 133.167 200 131.5C197.333 129.833 189.167 129 175.5 129C161.833 129 152.833 130 148.5 132ZM175.5 134C187.167 134 193.667 134.167 195 134.5C196.333 134.833 197.5 135.833 198.5 137.5C199.5 139.167 199.833 142.167 199.5 146.5C199.167 150.833 198.167 153.5 196.5 154.5C194.833 155.5 188.5 155.833 177.5 155.5C166.5 155.167 159 156.5 155 159.5C151 162.5 149 194.333 149 255C149 315.667 149.5 347 150.5 349C151.5 351 153.167 353 155.5 355C157.833 357 165.333 358.333 178 359C190.667 359.667 197.833 361.167 199.5 363.5C201.167 365.833 202 367.833 202 369.5C202 371.167 201.333 373.167 200 375.5C198.667 377.833 197.167 379.333 195.5 380C193.833 380.667 187.667 381 177 381C166.333 381 159.833 380.667 157.5 380C155.167 379.333 151 376.5 145 371.5C139 366.5 134.667 361.333 132 356C129.333 350.667 127.667 317.5 127 256.5C126.94 250.976 126.886 245.689 126.839 240.638C126.37 189.911 126.591 163.031 127.5 160C128.5 156.667 131.167 152.833 135.5 148.5C139.833 144.167 144.667 140.667 150 138C155.333 135.333 163.833 134 175.5 134ZM288.5 152.5C284.833 154.167 281.5 156.667 278.5 160C275.5 163.333 273.833 168.667 273.5 176C273.167 183.333 274.167 188.667 276.5 192C278.833 195.333 285.5 202.667 296.5 214C302 219.667 307.5 225.333 313 231C294.333 230.667 275.667 230.333 257 230C219.667 229.333 199.5 229.667 196.5 231C193.5 232.333 191 234.333 189 237C187 239.667 185.667 244.333 185 251C184.333 257.667 185 263.333 187 268C189 272.667 191.833 276.333 195.5 279C199.167 281.667 219.167 283 255.5 283C273.667 283 291.833 283 310 283C304.667 288.667 299.333 294.333 294 300C283.333 311.333 277.167 318.833 275.5 322.5C273.833 326.167 273 329.833 273 333.5C273 337.167 274.333 341.5 277 346.5C279.667 351.5 282.833 355 286.5 357C290.167 359 294.667 360.167 300 360.5C305.333 360.833 309.333 360.333 312 359C314.667 357.667 326.667 346.333 348 325C369.333 303.667 383.667 289.167 391 281.5C398.333 273.833 402.667 268.333 404 265C405.333 261.667 405.167 256.667 403.5 250C401.833 243.333 386.667 226.333 358 199C338.226 180.145 325.113 167.397 318.662 160.756C315.761 157.769 314.207 156.017 314 155.5C313.333 153.833 311.667 152.5 309 151.5C306.333 150.5 303.167 150 299.5 150C295.833 150 292.167 150.833 288.5 152.5ZM301 156.5C305.667 156.833 312.167 161.5 320.5 170.5C328.833 179.5 343.5 193.833 364.5 213.5C385.5 233.167 396.667 245.333 398 250C399.333 254.667 400 258 400 260C400 262 399.167 264 397.5 266C395.833 268 381.333 282.833 354 310.5C326.667 338.167 312 352.5 310 353.5C308 354.5 305.167 355 301.5 355C297.833 355 294.333 354.167 291 352.5C287.667 350.833 284.833 348 282.5 344C280.167 340 279 336.333 279 333C279 329.667 279.667 326.667 281 324C282.333 321.333 289.167 313.667 301.5 301C313.833 288.333 319.667 281 319 279C318.333 277 298.833 276.167 260.5 276.5C222.167 276.833 201.833 276.333 199.5 275C197.167 273.667 195 271 193 267C191 263 190.167 258.167 190.5 252.5C190.833 246.833 192.667 242.5 196 239.5C199.333 236.5 220.833 235 260.5 235C280.333 235 300.167 235 320 235C320 234 320 233 320 232C320 230 314 223.167 302 211.5C290 199.833 283 192.333 281 189C279 185.667 278.167 181.333 278.5 176C278.833 170.667 280 166.833 282 164.5C284 162.167 286.5 160.167 289.5 158.5C292.5 156.833 296.333 156.167 301 156.5Z" fill="#ffffff" fill-rule="nonzero" opacity="1" stroke="#ffffff" stroke-linecap="butt" stroke-linejoin="round" stroke-width="27.5111" vectornator:layerName="Courbe 1"/>
</g>
</svg>
