<?xml version="1.0" encoding="UTF-8" standalone="no"?>
<!DOCTYPE svg PUBLIC "-//W3C//DTD SVG 1.1//EN" "http://www.w3.org/Graphics/SVG/1.1/DTD/svg11.dtd">
<!-- Created with Vectornator (http://vectornator.io/) -->
<svg height="100%" stroke-miterlimit="10" style="fill-rule:nonzero;clip-rule:evenodd;stroke-linecap:round;stroke-linejoin:round;" version="1.1" viewBox="0 0 600 600" width="100%" xml:space="preserve" xmlns="http://www.w3.org/2000/svg" xmlns:vectornator="http://vectornator.io" xmlns:xlink="http://www.w3.org/1999/xlink">
<defs/>
<g id="Calque-1" vectornator:layerName="Calque 1">
<path d="M223.632 20.6953C215.19 23.3402 207.011 27.3076 199.096 32.5975C191.181 37.8874 185.64 42.6482 182.474 46.8801C179.308 51.112 175.351 59.0468 170.602 70.6845C165.853 82.3222 162.423 93.6954 160.312 104.804C158.202 115.913 157.146 124.906 157.146 131.782C157.146 138.659 158.729 145.536 161.895 152.413C165.061 159.29 168.491 164.315 172.185 167.489C175.879 170.663 179.308 172.514 182.474 173.043C185.64 173.572 187.487 178.862 188.015 188.913C188.279 193.938 188.543 198.964 188.806 203.989C180.364 204.254 171.921 204.518 163.478 204.782C146.593 205.311 133.665 207.956 124.695 212.717C115.725 217.478 108.865 224.09 104.116 232.554C99.367 241.018 97.5201 251.333 98.5755 263.5C99.6308 275.667 103.061 285.982 108.865 294.446C114.669 302.909 119.682 308.464 123.903 311.109C128.125 313.754 133.929 315.87 141.316 317.457C148.704 319.044 157.41 319.837 167.436 319.837C172.449 319.837 177.462 319.837 182.474 319.837C181.947 330.417 181.419 340.996 180.891 351.576C179.836 372.736 181.419 390.986 185.64 406.326C189.862 421.667 194.083 432.776 198.304 439.652C202.526 446.529 207.011 452.084 211.76 456.315C216.509 460.547 222.049 463.986 228.381 466.631C234.713 469.276 240.254 470.598 245.003 470.598C247.377 470.598 249.752 470.598 252.126 470.598C251.599 488.584 251.071 506.569 250.543 524.555C249.488 560.526 253.445 579.305 262.416 580.892C271.386 582.479 280.62 583.272 290.118 583.272C299.616 583.272 310.697 582.743 323.361 581.685C336.025 580.627 350.272 578.511 366.102 575.337C381.932 572.163 399.345 566.874 418.341 559.468C437.337 552.062 448.154 513.181 450.793 442.826C452.112 407.649 453.431 372.471 454.75 337.294C457.125 337.558 459.499 337.823 461.874 338.087C466.623 338.616 472.163 337.558 478.495 334.913C484.827 332.268 489.84 329.094 493.534 325.391C497.227 321.688 499.602 316.928 500.657 311.109C501.712 305.29 501.976 299.207 501.449 292.859C500.921 286.511 499.602 280.692 497.491 275.402C495.38 270.112 491.951 266.145 487.202 263.5C482.453 260.855 481.925 248.159 485.619 225.413C489.312 202.667 491.159 184.417 491.159 170.663C491.159 156.909 489.312 145.801 485.619 137.337C481.925 128.873 475.593 120.145 466.623 111.152C457.652 102.159 448.154 96.3403 438.129 93.6954C428.103 91.0505 418.605 89.728 409.635 89.728C400.664 89.728 388.792 83.9091 374.017 72.2715C359.243 60.6338 343.413 49.7895 326.527 39.7388C309.642 29.6881 295.131 23.3402 282.995 20.6953C270.858 18.0504 260.041 16.7279 250.543 16.7279C241.045 16.7279 232.075 18.0504 223.632 20.6953ZM271.914 21.4888C284.05 23.6047 293.812 25.9852 301.199 28.6301C308.587 31.275 326.263 42.6482 354.23 62.7497C382.196 82.8512 402.775 93.1664 415.967 93.6954C429.158 94.2244 438.392 95.5468 443.669 97.6628C448.946 99.7787 455.805 105.069 464.248 113.532C472.691 121.996 478.495 129.931 481.661 137.337C484.827 144.743 486.938 152.677 487.993 161.141C489.048 169.605 487.465 188.119 483.244 216.685C479.023 245.25 479.814 261.913 485.619 266.674C491.423 271.435 495.117 276.196 496.7 280.956C498.283 285.717 499.074 291.007 499.074 296.826C499.074 302.645 498.546 307.67 497.491 311.902C496.436 316.134 493.27 320.366 487.993 324.598C482.716 328.83 478.759 331.475 476.121 332.533C473.482 333.591 468.733 333.855 461.874 333.326C458.444 333.062 455.014 332.797 451.584 332.533C450.265 367.71 448.946 402.888 447.627 438.065C444.988 508.421 437.865 546.508 426.256 552.326C414.647 558.145 398.817 563.435 378.766 568.196C358.715 572.957 337.081 576.131 313.863 577.718C290.646 579.305 274.288 579.04 264.79 576.924C255.292 574.808 251.599 556.029 253.709 520.587C254.765 502.866 255.82 485.145 256.875 467.424C253.182 467.16 249.488 466.895 245.794 466.631C238.407 466.102 232.075 464.515 226.798 461.87C221.522 459.225 216.773 455.786 212.551 451.555C208.33 447.323 204.109 441.504 199.887 434.098C195.666 426.692 191.972 417.435 188.806 406.326C185.64 395.218 183.794 383.315 183.266 370.62C182.738 357.924 183.002 346.815 184.057 337.294C185.113 327.772 185.904 322.482 186.432 321.424C186.96 320.366 197.513 319.572 218.092 319.044C228.381 318.779 238.671 318.515 248.96 318.25C248.96 320.366 248.96 322.482 248.96 324.598C248.96 328.83 249.488 331.475 250.543 332.533C251.599 333.591 256.348 334.649 264.79 335.707C269.012 336.236 273.233 336.765 277.454 337.294C277.19 336.5 276.927 335.707 276.663 334.913C276.135 333.326 272.178 332.268 264.79 331.739C257.403 331.21 253.445 329.359 252.918 326.185C252.39 323.011 253.445 320.895 256.084 319.837C258.722 318.779 285.633 318.25 336.817 318.25C388 318.25 417.022 316.399 423.882 312.696C430.741 308.993 436.282 305.025 440.503 300.793C444.724 296.562 448.418 291.007 451.584 284.13C454.75 277.254 456.333 270.906 456.333 265.087C456.333 259.268 453.959 251.069 449.21 240.489C444.461 229.909 439.975 222.239 435.754 217.478C431.533 212.717 427.575 209.543 423.882 207.956C420.188 206.369 417.022 199.228 414.384 186.532C413.064 180.185 411.745 173.837 410.426 167.489C402.775 169.34 395.124 171.192 387.473 173.043C372.17 176.746 361.881 178.598 356.604 178.598C351.328 178.598 345.259 177.275 338.4 174.63C331.54 171.985 324.153 166.96 316.238 159.554C312.28 155.851 308.323 152.148 304.365 148.445C303.574 149.768 302.782 151.09 301.991 152.413C300.408 155.058 295.923 159.29 288.535 165.109C281.148 170.927 271.914 174.63 260.833 176.217C249.752 177.804 241.045 177.275 234.713 174.63C228.381 171.985 224.16 169.34 222.049 166.695C219.939 164.051 217.828 162.728 215.717 162.728C214.662 162.728 213.607 162.728 212.551 162.728C212.551 163.257 212.551 163.786 212.551 164.315C212.551 165.373 210.441 166.96 206.219 169.076C201.998 171.192 197.777 172.25 193.555 172.25C189.334 172.25 184.057 170.134 177.725 165.902C171.393 161.67 167.172 157.703 165.061 154C162.951 150.297 161.632 144.478 161.104 136.543C160.576 128.608 161.368 118.293 163.478 105.598C165.589 92.9019 169.019 81.2642 173.768 70.6845C178.517 60.1048 182.738 52.4345 186.432 47.6736C190.126 42.9127 196.458 37.8874 205.428 32.5975C214.398 27.3076 224.688 23.6047 236.296 21.4888C247.905 19.3728 259.777 19.3728 271.914 21.4888ZM314.655 162.728C321.514 169.076 328.374 173.837 335.234 177.011C342.093 180.185 348.953 181.772 355.813 181.772C362.672 181.772 372.962 179.92 386.681 176.217C393.541 174.366 400.4 172.514 407.26 170.663C408.579 176.482 409.898 182.301 411.218 188.119C412.537 193.938 413.856 199.757 415.175 205.576C377.711 205.047 340.247 204.518 302.782 203.989C265.318 203.46 227.854 202.931 190.389 202.402C190.389 198.17 190.389 193.938 190.389 189.706C190.389 181.243 192.764 176.746 197.513 176.217C202.262 175.688 206.747 174.101 210.968 171.456C215.19 168.811 221.522 169.869 229.964 174.63C238.407 179.391 245.53 181.772 251.335 181.772C257.139 181.772 263.735 180.714 271.122 178.598C278.51 176.482 285.897 171.721 293.284 164.315C300.672 156.909 307.795 156.38 314.655 162.728ZM245.794 207.163C309.114 207.163 343.413 208.485 348.689 211.13C353.966 213.775 359.506 218.536 365.311 225.413C371.115 232.29 374.809 238.902 376.392 245.25C377.975 251.598 378.238 259.797 377.183 269.848C376.128 279.899 372.962 288.362 367.685 295.239C362.409 302.116 356.604 307.141 350.272 310.315C343.94 313.489 310.961 315.605 251.335 316.663C191.709 317.721 157.41 317.457 148.44 315.87C139.47 314.283 132.61 312.167 127.861 309.522C123.112 306.877 118.363 302.645 113.614 296.826C108.865 291.007 105.699 285.982 104.116 281.75C102.533 277.518 101.478 270.906 100.95 261.913C100.422 252.92 101.478 245.25 104.116 238.902C106.754 232.554 109.656 227.793 112.822 224.619C115.988 221.446 119.682 218.536 123.903 215.891C128.125 213.246 133.665 211.13 140.525 209.543C147.385 207.956 182.474 207.163 245.794 207.163ZM347.106 207.163C357.923 207.163 368.741 207.163 379.558 207.163C401.192 207.163 415.703 209.279 423.09 213.511C430.477 217.743 436.282 222.768 440.503 228.587C444.724 234.406 447.89 241.018 450.001 248.424C452.112 255.83 453.167 261.913 453.167 266.674C453.167 271.435 451.584 276.989 448.418 283.337C445.252 289.685 441.558 294.975 437.337 299.207C433.116 303.438 428.103 307.141 422.299 310.315C416.494 313.489 403.039 315.076 381.932 315.076C371.379 315.076 360.826 315.076 350.272 315.076C354.23 311.638 358.187 308.199 362.145 304.761C370.06 297.884 375.336 290.743 377.975 283.337C380.613 275.931 381.932 269.319 381.932 263.5C381.932 257.681 380.349 250.275 377.183 241.283C374.017 232.29 370.323 225.413 366.102 220.652C361.881 215.891 357.66 212.453 353.438 210.337C351.328 209.279 349.217 208.221 347.106 207.163ZM154.772 211.13C148.968 211.659 142.899 213.246 136.567 215.891C130.235 218.536 124.167 223.033 118.363 229.38C112.559 235.728 108.865 241.283 107.282 246.043C105.699 250.804 105.171 257.681 105.699 266.674C106.227 275.667 107.81 282.279 110.448 286.511C113.086 290.743 118.099 295.768 125.486 301.587C132.874 307.406 142.636 310.844 154.772 311.902C166.908 312.96 199.624 313.489 252.918 313.489C306.212 313.489 336.817 311.638 344.732 307.935C352.647 304.232 358.979 299.207 363.728 292.859C368.477 286.511 371.379 281.221 372.434 276.989C373.489 272.757 373.489 265.616 372.434 255.565C371.379 245.514 366.63 236.257 358.187 227.793C349.745 219.33 343.94 214.569 340.774 213.511C337.608 212.453 307.267 211.659 249.752 211.13C192.236 210.601 160.576 210.601 154.772 211.13ZM191.181 213.511C211.76 213.511 223.105 214.04 225.215 215.098C226.271 215.627 227.326 216.156 228.381 216.685C215.981 232.025 203.581 247.366 191.181 262.706C166.381 293.388 152.925 308.993 150.814 309.522C148.704 310.051 145.802 309.786 142.108 308.728C138.414 307.67 133.665 305.025 127.861 300.793C122.057 296.562 117.308 291.536 113.614 285.717C109.92 279.899 108.073 273.022 108.073 265.087C108.073 257.152 109.393 250.011 112.031 243.663C114.669 237.315 117.571 232.554 120.737 229.38C123.903 226.206 128.916 223.033 135.776 219.859C142.636 216.685 148.44 214.833 153.189 214.304C157.938 213.775 170.602 213.511 191.181 213.511ZM241.837 215.098C245.267 215.098 248.696 215.098 252.126 215.098C251.071 216.685 250.016 218.272 248.96 219.859C246.85 223.033 234.186 238.902 210.968 267.467C187.751 296.033 172.713 310.315 165.853 310.315C162.423 310.315 158.993 310.315 155.563 310.315C168.227 294.446 180.891 278.576 193.555 262.706C218.883 230.967 234.977 215.098 241.837 215.098ZM294.867 215.098C321.251 215.098 336.817 215.891 341.566 217.478C346.315 219.065 351.591 222.768 357.396 228.587C363.2 234.406 366.894 239.431 368.477 243.663C370.06 247.895 371.115 251.862 371.643 255.565C372.17 259.268 371.115 265.88 368.477 275.402C365.838 284.924 362.409 291.801 358.187 296.033C353.966 300.264 349.217 303.703 343.94 306.348C338.664 308.993 309.906 310.315 257.667 310.315C231.547 310.315 205.428 310.315 179.308 310.315C191.972 294.446 204.636 278.576 217.3 262.706C242.628 230.967 268.484 215.098 294.867 215.098ZM191.972 233.348C184.585 241.283 179.572 248.159 176.934 253.978C175.615 256.888 174.296 259.797 172.976 262.706C177.989 257.681 183.002 252.656 188.015 247.63C198.041 237.58 203.581 231.761 204.636 230.174C205.692 228.587 206.219 226.735 206.219 224.619C206.219 223.561 206.219 222.504 206.219 221.446C205.692 221.446 205.164 221.446 204.636 221.446C203.581 221.446 199.36 225.413 191.972 233.348ZM260.041 228.587C257.931 231.232 257.139 233.612 257.667 235.728C257.931 236.786 258.194 237.844 258.458 238.902C259.25 238.638 260.041 238.373 260.833 238.109C262.416 237.58 263.999 235.728 265.582 232.554C267.165 229.38 267.165 227.264 265.582 226.206C263.999 225.148 262.152 225.942 260.041 228.587ZM199.887 227.793C197.249 231.232 194.611 234.67 191.972 238.109C189.334 241.547 186.696 244.985 184.057 248.424C186.696 244.985 189.334 241.547 191.972 238.109C194.611 234.67 197.249 231.232 199.887 227.793ZM236.296 257.946C226.798 267.467 217.828 278.047 209.385 289.685C205.164 295.504 200.943 301.322 196.721 307.141C200.415 304.496 204.109 301.851 207.802 299.207C215.19 293.917 222.577 285.982 229.964 275.402C237.352 264.822 243.156 257.681 247.377 253.978C251.599 250.275 253.709 247.63 253.709 246.043C253.709 245.25 253.709 244.456 253.709 243.663C253.182 243.663 252.654 243.663 252.126 243.663C251.071 243.663 245.794 248.424 236.296 257.946ZM228.381 270.641C227.326 272.757 226.271 274.873 225.215 276.989C223.105 281.221 220.202 284.924 216.509 288.098C214.662 289.685 212.815 291.272 210.968 292.859C213.871 289.156 216.773 285.453 219.675 281.75C222.577 278.047 225.479 274.344 228.381 270.641ZM470.58 278.576C470.052 280.163 469.525 281.75 468.997 283.337C469.789 282.279 470.58 281.221 471.372 280.163C472.955 278.047 474.801 277.518 476.912 278.576C479.023 279.634 480.606 283.601 481.661 290.478C482.716 297.355 482.453 302.909 480.87 307.141C479.287 311.373 476.121 313.489 471.372 313.489C468.997 313.489 466.623 313.489 464.248 313.489C465.04 314.547 465.831 315.605 466.623 316.663C468.206 318.779 470.58 319.572 473.746 319.044C476.912 318.515 479.814 315.87 482.453 311.109C485.091 306.348 485.882 299.736 484.827 291.272C483.772 282.808 482.453 277.783 480.87 276.196C479.287 274.609 477.44 273.815 475.329 273.815C473.218 273.815 471.635 275.402 470.58 278.576ZM306.74 347.609C305.157 352.37 303.046 356.337 300.408 359.511C297.769 362.685 292.757 365.594 285.369 368.239C281.676 369.562 277.982 370.884 274.288 372.207C277.19 372.471 280.093 372.736 282.995 373C288.799 373.529 293.812 373 298.033 371.413C302.255 369.826 305.684 366.917 308.323 362.685C310.961 358.453 312.28 353.692 312.28 348.402C312.28 345.757 312.28 343.112 312.28 340.467C311.753 340.467 311.225 340.467 310.697 340.467C309.642 340.467 308.323 342.848 306.74 347.609ZM307.531 351.576C307.267 353.428 307.004 355.279 306.74 357.131C306.212 360.833 304.365 363.478 301.199 365.065C299.616 365.859 298.033 366.652 296.45 367.446C298.297 364.801 300.144 362.156 301.991 359.511C303.838 356.866 305.684 354.221 307.531 351.576Z" fill="#000000" fill-rule="nonzero" opacity="1" stroke="none" vectornator:layerName="Courbe 1"/>
</g>
</svg>
