<?xml version="1.0" encoding="UTF-8" standalone="no"?>
<!DOCTYPE svg PUBLIC "-//W3C//DTD SVG 1.1//EN" "http://www.w3.org/Graphics/SVG/1.1/DTD/svg11.dtd">
<!-- Created with Vectornator (http://vectornator.io/) -->
<svg height="100%" stroke-miterlimit="10" style="fill-rule:nonzero;clip-rule:evenodd;stroke-linecap:round;stroke-linejoin:round;" version="1.1" viewBox="0 0 600 600" width="100%" xml:space="preserve" xmlns="http://www.w3.org/2000/svg" xmlns:vectornator="http://vectornator.io" xmlns:xlink="http://www.w3.org/1999/xlink">
<defs/>
<g id="Calque-1" vectornator:layerName="Calque 1">
<path d="M167.44 19.4259C161.122 22.3964 153.961 27.9131 145.958 35.976C137.955 44.0389 129.951 53.7992 121.948 65.257C113.945 76.7148 102.993 94.9623 89.0926 120C75.1921 145.037 62.5554 170.923 51.1823 197.658C39.8092 224.393 31.806 244.974 27.1725 259.403C22.539 273.831 18.5374 289.532 15.1676 306.507C11.7978 323.481 10.5341 337.273 11.3765 347.882C12.219 358.491 13.6933 366.342 15.7994 371.434C17.9055 376.527 20.6435 380.558 24.0133 383.529C27.3831 386.499 35.597 387.348 48.655 386.075C61.7129 384.802 72.6648 382.892 81.5105 380.346C90.3562 377.8 105.31 374.617 126.371 370.798C147.432 366.979 171.021 365.281 197.137 365.705C223.253 366.13 252.528 370.798 284.962 379.709C317.397 388.621 337.615 394.774 345.619 398.169C353.622 401.564 358.255 404.322 359.519 406.444C360.783 408.566 363.31 410.688 367.101 412.81C370.892 414.931 375.315 416.629 380.37 417.902C382.897 418.539 385.424 419.175 387.952 419.812C387.741 420.66 387.531 421.509 387.32 422.358C386.899 424.055 383.529 428.299 377.211 435.089C370.892 441.878 367.733 445.91 367.733 447.183C367.733 448.456 368.575 449.729 370.26 451.002C371.945 452.275 372.788 454.821 372.788 458.641C372.788 462.46 371.524 467.977 368.997 475.191C366.469 482.405 358.677 490.892 345.619 500.653C332.561 510.413 322.451 517.203 315.29 521.022C308.13 524.841 301.601 527.6 295.704 529.297C289.806 530.994 287.068 533.328 287.49 536.299C287.911 539.27 292.755 546.272 302.022 557.305C311.289 568.338 318.45 574.492 323.504 575.765C328.559 577.038 332.35 578.311 334.877 579.584C337.405 580.857 338.668 581.918 338.668 582.767C338.668 583.191 338.668 583.615 338.668 584.04C340.143 583.828 341.617 583.615 343.091 583.403C346.04 582.979 354.675 577.674 368.997 567.49C383.318 557.305 396.798 546.272 409.434 534.389C422.071 522.507 430.917 515.081 435.971 512.11C441.026 509.14 446.923 507.867 453.663 508.291C460.403 508.715 466.3 505.108 471.354 497.47C476.409 489.831 480.832 481.132 484.623 471.372C488.414 461.611 490.099 456.307 489.678 455.458C489.467 455.034 489.256 454.609 489.046 454.185C491.363 454.397 493.679 454.609 495.996 454.821C500.63 455.246 506.527 454.397 513.688 452.275C520.848 450.153 527.167 446.334 532.643 440.818C538.119 435.301 541.278 431.057 542.12 428.087C542.541 426.601 542.963 425.116 543.384 423.631C547.386 424.904 551.387 426.177 555.389 427.45C563.392 429.996 569.079 430.845 572.448 429.996C575.818 429.148 579.399 424.692 583.19 416.629C586.981 408.566 588.876 402.625 588.876 398.806C588.876 394.986 585.296 391.379 578.135 387.984C574.555 386.287 570.974 384.59 567.394 382.892C568.657 380.134 569.921 377.375 571.185 374.617C573.712 369.1 574.976 361.674 574.976 352.338C574.976 343.002 573.923 336.424 571.817 332.605C569.71 328.786 566.13 324.33 561.075 319.238C556.021 314.145 545.49 307.568 529.483 299.505C513.477 291.442 501.472 284.652 493.469 279.136C485.465 273.619 478.936 270.012 473.882 268.314C468.827 266.617 460.192 262.373 447.976 255.583C435.761 248.794 429.021 245.611 427.758 246.035C426.494 246.46 424.809 249.43 422.703 254.947C420.597 260.464 418.912 263.434 417.648 263.858C416.385 264.283 414.489 263.222 411.962 260.676C409.434 258.13 402.695 253.674 391.743 247.308C380.791 240.943 370.26 233.517 360.151 225.029C350.042 216.542 344.566 211.45 343.723 209.752C342.881 208.055 341.196 206.57 338.668 205.297C336.141 204.023 325.4 193.202 306.445 172.833C287.49 152.463 274.01 136.125 266.007 123.819C258.004 111.512 250.632 101.328 243.893 93.2649C237.153 85.202 228.097 70.5615 216.724 49.3434C205.351 28.1253 195.873 17.0919 188.291 16.2431C180.709 15.3944 173.759 16.4553 167.44 19.4259ZM180.709 20.0624C183.447 20.4868 186.185 20.9111 188.923 21.3355C194.399 22.1842 202.402 32.5811 212.933 52.5261C223.463 72.4711 231.677 86.2629 237.574 93.9014C243.472 101.54 247.263 107.269 248.948 111.088C250.632 114.907 252.317 117.454 254.002 118.727C255.687 120 259.268 125.092 264.743 134.004C270.219 142.915 273.8 147.795 275.485 148.644C277.17 149.493 282.014 155.01 290.017 165.194C298.02 175.379 313.395 190.656 336.141 211.025C358.887 231.395 377.842 246.035 393.007 254.947C408.171 263.858 406.907 289.957 389.215 333.242C371.524 376.527 348.778 393.289 320.977 383.529C293.176 373.768 268.745 367.191 247.684 363.796C226.623 360.401 208.089 358.703 192.082 358.703C176.076 358.703 161.543 359.34 148.485 360.613C135.427 361.886 122.159 364.645 108.68 368.888C95.2003 373.132 85.7228 375.466 80.2468 375.89C74.7709 376.314 66.3464 378.012 54.9733 380.982C43.6003 383.953 36.4394 385.226 33.4909 384.802C30.5423 384.377 27.5937 382.468 24.6451 379.073C21.6965 375.678 19.3798 371.434 17.6949 366.342C16.01 361.25 14.9569 354.884 14.5357 347.246C14.1145 339.607 15.7994 325.815 19.5904 305.87C23.3814 285.925 32.0166 258.554 45.4958 223.756C58.975 188.959 69.5056 164.133 77.0877 149.281C84.6697 134.428 88.882 127.002 89.7244 127.002C90.1456 127.002 90.5669 127.002 90.9881 127.002C85.3015 138.884 79.615 150.766 73.9285 162.648C62.5554 186.412 52.2354 212.723 42.9684 241.579C33.7015 270.436 28.0149 290.593 25.9088 302.051C23.8027 313.509 22.7496 324.542 22.7496 335.151C22.7496 345.76 23.1708 352.55 24.0133 355.521C24.8557 358.491 26.7513 361.25 29.6998 363.796C32.6484 366.342 36.0182 367.403 39.8092 366.979C43.6003 366.554 49.708 362.098 58.1325 353.611C66.557 345.124 77.7195 330.059 91.6199 308.417C105.52 286.774 119.421 262.798 133.321 236.487C147.222 210.177 157.963 187.261 165.545 167.74C173.127 148.22 179.024 129.972 183.236 112.998C187.449 96.0232 189.976 79.4731 190.818 63.3473C191.661 47.2216 191.45 37.2491 190.187 33.4298C188.923 29.6105 187.027 26.4278 184.5 23.8817C183.236 22.6086 181.973 21.3355 180.709 20.0624ZM176.918 25.1547C178.603 25.1547 180.077 25.7913 181.341 27.0644C182.605 28.3375 184.079 31.5202 185.764 36.6125C187.449 41.7049 187.659 51.6774 186.396 66.5301C185.132 81.3827 182.183 98.145 177.55 116.817C172.916 135.489 168.283 149.705 163.649 159.465C159.016 169.226 155.436 178.137 152.908 186.2C150.381 194.263 142.378 211.025 128.898 236.487C115.419 261.949 105.52 278.923 99.202 287.411C92.8836 295.898 86.3546 305.87 79.615 317.328C72.8754 328.786 66.3464 338.334 60.028 345.973C53.7097 353.611 49.0762 358.279 46.1276 359.977C43.179 361.674 40.4411 362.523 37.9137 362.523C35.3864 362.523 32.6484 360.401 29.6998 356.157C26.7513 351.914 25.4876 342.79 25.9088 328.786C26.33 314.782 27.5937 303.324 29.6998 294.413C31.806 285.501 38.5456 264.495 49.9186 231.395C61.2917 198.295 71.8223 171.772 81.5105 151.827C91.1987 131.882 99.6232 116.18 106.784 104.723C113.945 93.2649 121.738 81.8071 130.162 70.3493C138.587 58.8915 148.064 48.4947 158.595 39.1587C169.125 29.8227 175.233 25.1547 176.918 25.1547ZM161.754 27.7009C157.752 31.9445 153.751 36.1882 149.749 40.4318C141.746 48.919 131.636 62.0743 119.421 79.8975C113.313 88.8091 107.205 97.7207 101.097 106.632C106.152 98.5694 111.207 90.5065 116.262 82.4436C126.371 66.3179 136.48 53.1627 146.59 42.978C151.645 37.8856 156.699 32.7933 161.754 27.7009ZM200.296 94.538C199.032 103.45 197.347 110.239 195.241 114.907C193.135 119.575 191.872 123.819 191.45 127.638C191.029 131.457 184.921 148.856 173.127 179.835C161.333 210.813 148.696 238.609 135.217 263.222C121.738 287.835 110.786 306.295 102.361 318.601C93.9367 330.908 87.1971 339.607 82.1424 344.699C77.0877 349.792 73.9285 354.035 72.6648 357.43C72.033 359.128 71.4011 360.825 70.7693 362.523C73.9285 359.128 77.0877 355.733 80.2468 352.338C86.5652 345.548 94.3579 335.576 103.625 322.42C112.892 309.265 121.738 294.413 130.162 277.862C138.587 261.312 145.537 248.794 151.013 240.306C156.489 231.819 165.124 211.662 176.918 179.835C188.712 148.008 196.294 124.88 199.664 110.452C203.034 96.0232 204.719 87.536 204.719 84.9898C204.719 83.7167 204.719 82.4436 204.719 81.1706C204.298 81.1706 203.876 81.1706 203.455 81.1706C202.613 81.1706 201.56 85.6264 200.296 94.538ZM123.844 149.281C117.946 150.554 111.628 153.524 104.889 158.192C98.1489 162.86 92.8836 168.165 89.0926 174.106C85.3015 180.047 81.9317 187.685 78.9832 197.021C76.0346 206.357 74.5603 215.269 74.5603 223.756C74.5603 232.244 75.1921 238.397 76.4558 242.216C77.7195 246.035 79.4044 249.43 81.5105 252.401C83.6166 255.371 88.0395 258.978 94.7791 263.222C101.519 267.466 106.784 267.253 110.575 262.585C114.366 257.917 119.631 249.43 126.371 237.124C133.111 224.817 139.85 209.116 146.59 190.019C153.329 170.923 156.699 160.102 156.699 157.556C156.699 155.01 155.857 152.888 154.172 151.19C152.487 149.493 148.485 148.432 142.167 148.008C135.849 147.583 129.741 148.008 123.844 149.281ZM147.222 153.1C151.855 154.373 153.751 156.919 152.908 160.738C152.066 164.558 146.8 177.713 137.112 200.204C127.424 222.695 119.631 238.821 113.734 248.581C107.837 258.342 104.257 263.222 102.993 263.222C101.729 263.222 98.5701 261.312 93.5154 257.493C88.4607 253.674 84.6697 249.218 82.1424 244.126C79.615 239.033 78.1407 234.365 77.7195 230.122C77.2983 225.878 78.3513 218.664 80.8787 208.479C83.406 198.295 85.7228 190.868 87.8289 186.2C89.935 181.532 93.9367 176.016 99.8338 169.65C105.731 163.285 111.207 159.041 116.262 156.919C121.316 154.797 126.582 153.312 132.058 152.463C137.533 151.615 142.588 151.827 147.222 153.1ZM432.18 253.037C433.865 253.037 443.764 257.705 461.877 267.041C479.99 276.377 491.363 282.743 495.996 286.138C500.63 289.532 506.948 292.927 514.951 296.322C522.954 299.717 532.432 305.234 543.384 312.872C554.336 320.511 561.075 326.452 563.603 330.696C566.13 334.939 567.604 341.517 568.026 350.428C568.447 359.34 566.972 366.979 563.603 373.344C560.233 379.709 562.55 385.438 570.553 390.531C578.556 395.623 580.873 402.625 577.503 411.537C574.133 420.448 567.183 423.631 556.652 421.085C546.122 418.539 540.225 418.963 538.961 422.358C537.697 425.753 534.538 430.208 529.483 435.725C524.429 441.242 518.11 445.061 510.528 447.183C502.946 449.305 488.203 447.82 466.3 442.727C444.396 437.635 427.336 432.755 415.121 428.087C402.905 423.419 394.902 419.812 391.111 417.265C387.32 414.719 381.844 412.385 374.683 410.263C371.103 409.203 367.522 408.142 363.942 407.081C365.206 403.261 366.469 399.442 367.733 395.623C370.26 387.984 374.894 377.588 381.633 364.432C388.373 351.277 392.796 341.305 394.902 334.515C397.008 327.725 403.327 312.448 413.857 288.684C424.388 264.919 430.496 253.037 432.18 253.037ZM490.31 338.334C491.152 340.032 494.943 342.79 501.683 346.609C508.422 350.428 513.477 352.762 516.847 353.611C520.217 354.46 525.692 357.006 533.274 361.25C540.857 365.493 546.122 367.403 549.07 366.979C550.545 366.766 552.019 366.554 553.493 366.342C552.861 365.069 552.23 363.796 551.598 362.523C550.334 359.977 544.437 355.945 533.906 350.428C523.376 344.912 516.215 341.941 512.424 341.517C508.633 341.092 505.474 340.032 502.946 338.334C500.419 336.637 497.47 335.788 494.101 335.788C492.416 335.788 490.731 335.788 489.046 335.788C489.467 336.637 489.888 337.485 490.31 338.334ZM495.364 338.334C498.734 339.395 502.104 340.456 505.474 341.517C512.213 343.639 520.848 347.458 531.379 352.975C541.91 358.491 547.596 361.886 548.439 363.159C548.86 363.796 549.281 364.432 549.702 365.069C546.543 364.008 543.384 362.947 540.225 361.886C533.906 359.764 524.85 355.309 513.056 348.519C507.159 345.124 501.261 341.729 495.364 338.334ZM472.618 358.703C472.618 360.401 473.671 362.098 475.777 363.796C477.883 365.493 486.729 369.737 502.314 376.527C517.9 383.316 528.641 387.348 534.538 388.621C537.487 389.258 540.435 389.894 543.384 390.531C543.384 389.682 543.384 388.833 543.384 387.984C543.384 386.287 538.54 382.68 528.852 377.163C519.163 371.646 510.107 367.191 501.683 363.796C493.258 360.401 486.308 358.279 480.832 357.43C478.094 357.006 475.356 356.582 472.618 356.157C472.618 357.006 472.618 357.855 472.618 358.703ZM477.673 359.977C479.779 360.401 481.885 360.825 483.991 361.25C488.203 362.098 497.26 366.13 511.16 373.344C518.11 376.951 525.061 380.558 532.011 384.165C525.271 381.619 518.532 379.073 511.792 376.527C498.313 371.434 489.256 367.403 484.623 364.432C482.306 362.947 479.99 361.462 477.673 359.977ZM465.668 385.438C466.089 387.136 467.353 388.833 469.459 390.531C471.565 392.228 475.356 394.562 480.832 397.533C486.308 400.503 496.417 404.322 511.16 408.99C518.532 411.324 525.903 413.658 533.274 415.992C532.853 414.931 532.432 413.871 532.011 412.81C531.168 410.688 528.22 408.354 523.165 405.808C518.11 403.261 513.898 401.564 510.528 400.715C507.159 399.867 500.84 396.896 491.573 391.804C482.306 386.711 475.567 383.953 471.354 383.529C469.248 383.316 467.142 383.104 465.036 382.892C465.247 383.741 465.457 384.59 465.668 385.438ZM472.618 386.711C476.198 388.197 479.779 389.682 483.359 391.167C490.52 394.138 495.364 396.684 497.892 398.806C499.155 399.867 500.419 400.927 501.683 401.988C497.892 400.503 494.101 399.018 490.31 397.533C482.727 394.562 477.883 392.016 475.777 389.894C474.724 388.833 473.671 387.772 472.618 386.711ZM421.439 434.452C441.237 442.515 456.822 447.607 468.195 449.729C473.882 450.79 479.568 451.851 485.255 452.912C481.464 461.399 477.673 469.886 473.882 478.374C466.3 495.348 459.139 503.411 452.399 502.562C445.66 501.714 441.237 501.714 439.131 502.562C437.025 503.411 425.441 512.959 404.38 531.207C383.318 549.454 368.365 561.761 359.519 568.126C350.673 574.492 341.406 576.189 331.718 573.219C322.03 570.248 312.763 563.246 303.917 552.213C299.495 546.696 295.072 541.179 290.649 535.662C293.597 534.814 296.546 533.965 299.495 533.116C305.392 531.419 312.342 528.448 320.345 524.205C328.348 519.961 336.141 515.293 343.723 510.201C351.305 505.108 357.624 500.016 362.678 494.924C367.733 489.831 371.313 484.315 373.42 478.374C375.526 472.433 376.579 466.491 376.579 460.55C376.579 454.609 375.947 451.214 374.683 450.366C373.42 449.517 372.788 448.456 372.788 447.183C372.788 445.91 375.315 442.727 380.37 437.635C385.424 432.542 388.584 428.723 389.847 426.177C391.111 423.631 401.642 426.389 421.439 434.452Z" fill="#000000" fill-rule="nonzero" opacity="1" stroke="none" vectornator:layerName="Courbe 1"/>
</g>
</svg>
