<?xml version="1.0" encoding="UTF-8" standalone="no"?>
<!DOCTYPE svg PUBLIC "-//W3C//DTD SVG 1.1//EN" "http://www.w3.org/Graphics/SVG/1.1/DTD/svg11.dtd">
<!-- Created with Vectornator (http://vectornator.io/) -->
<svg height="100%" stroke-miterlimit="10" style="fill-rule:nonzero;clip-rule:evenodd;stroke-linecap:round;stroke-linejoin:round;" version="1.1" viewBox="0 0 512 512" width="100%" xml:space="preserve" xmlns="http://www.w3.org/2000/svg" xmlns:vectornator="http://vectornator.io" xmlns:xlink="http://www.w3.org/1999/xlink">
<defs/>
<g id="Calque-1" vectornator:layerName="Calque 1">
<path d="M240.555 20.8598C236.694 22.1344 233.66 23.7913 231.453 25.8307C229.247 27.8701 227.316 30.5467 225.661 33.8607C224.007 37.1747 223.041 40.6161 222.765 44.185C222.49 47.7539 219.594 50.1756 214.078 51.4502C208.562 52.7248 202.218 54.8916 195.047 57.9507C187.876 61.0097 181.395 64.0688 175.603 67.1278C169.811 70.1869 164.019 73.7558 158.227 77.8345C152.435 81.9132 146.781 86.7567 141.265 92.3649C135.749 97.9732 130.371 104.601 125.13 112.249C119.89 119.896 116.305 125.76 114.374 129.838C112.443 133.917 109.961 140.8 106.927 150.487C103.893 160.174 102.652 176.616 103.204 199.814C103.756 223.012 103.48 239.199 102.376 248.376C101.273 257.553 99.2047 268.77 96.1709 282.026C93.137 295.282 90.5169 304.969 88.3104 311.087C86.104 317.205 82.7943 323.833 78.3814 330.971C73.9686 338.108 68.0387 344.609 60.592 350.472C53.1453 356.335 47.6292 361.306 44.0437 365.385C40.4582 369.464 38.1139 373.67 37.0107 378.003C35.9074 382.337 35.2179 386.416 34.9421 390.24C34.6663 394.063 34.8042 396.613 35.3558 397.887C35.9074 399.162 37.5623 400.436 40.3203 401.711C43.0784 402.986 112.857 403.368 249.656 402.858C386.456 402.348 455.683 401.838 457.338 401.329C458.993 400.819 460.647 399.544 462.302 397.505C463.957 395.465 464.509 390.24 463.957 381.827C463.406 373.415 462.44 368.061 461.061 365.767C459.682 363.473 456.372 360.796 451.132 357.737C445.892 354.678 441.065 351.237 436.652 347.413C432.24 343.589 427.551 338.363 422.586 331.735C417.622 325.107 413.761 318.862 411.003 312.999C408.244 307.135 406.176 301.655 404.797 296.556C403.418 291.458 402.728 284.575 402.728 275.908C402.728 267.24 402.177 262.524 401.074 261.76C399.97 260.995 392.937 260.612 379.974 260.612C367.012 260.612 356.393 259.465 348.119 257.171C339.845 254.877 331.571 251.435 323.296 246.847C315.022 242.258 309.093 238.434 305.507 235.375C301.922 232.316 297.647 227.728 292.682 221.61C287.718 215.492 283.994 210.011 281.512 205.167C279.03 200.324 276.685 193.823 274.479 185.666C272.273 177.508 271.169 169.733 271.169 162.341C271.169 154.948 271.721 148.575 272.824 143.222C273.927 137.868 275.444 132.77 277.375 127.926C279.306 123.083 282.339 117.475 286.476 111.102C290.614 104.729 295.164 99.1203 300.129 94.2769C305.093 89.4334 310.609 85.2272 316.677 81.6583C322.745 78.0894 326.055 74.9029 326.606 72.0988C327.158 69.2946 326.606 67.2553 324.951 65.9807C323.296 64.7061 319.573 62.9216 313.781 60.6273C307.989 58.3331 300.129 56.0388 290.2 53.7445C280.271 51.4502 275.168 48.3912 274.893 44.5674C274.617 40.7435 273.514 37.0472 271.583 33.4783C269.652 29.9094 267.17 26.9778 264.136 24.6836C261.102 22.3893 257.379 20.8598 252.966 20.095C248.553 19.3302 244.416 19.5851 240.555 20.8598ZM248.829 27.3602C251.587 27.3602 254.483 28.3799 257.517 30.4193C260.551 32.4586 262.757 34.7529 264.136 37.3021C265.515 39.8513 266.343 43.1653 266.619 47.244C266.894 51.3227 267.446 53.872 268.273 54.8916C269.101 55.9113 273.652 57.3134 281.926 59.0978C290.2 60.8823 298.06 63.1766 305.507 65.9807C312.954 68.7848 316.539 70.5692 316.263 71.334C315.988 72.0988 313.23 74.1381 307.989 77.4521C302.749 80.7661 297.509 85.0997 292.268 90.453C287.028 95.8064 282.201 102.052 277.789 109.19C273.376 116.327 270.342 122.063 268.687 126.397C267.032 130.73 265.515 136.976 264.136 145.133C262.757 153.291 262.206 160.429 262.481 166.547C262.757 172.665 263.447 178.273 264.55 183.372C265.653 188.47 267.584 194.333 270.342 200.961C273.1 207.589 276.961 214.344 281.926 221.227C286.89 228.11 291.717 233.718 296.405 238.052C301.094 242.386 306.197 246.337 311.713 249.906C317.229 253.475 322.883 256.534 328.675 259.083C334.467 261.632 340.121 263.672 345.637 265.201C351.153 266.731 356.807 267.878 362.599 268.642C368.391 269.407 375.01 269.662 382.457 269.407C386.18 269.28 389.903 269.152 393.627 269.025C393.765 272.721 393.903 276.418 394.041 280.114C394.316 287.507 395.833 295.409 398.591 303.821C401.349 312.234 404.107 318.862 406.865 323.705C409.624 328.549 413.485 334.03 418.449 340.148C423.414 346.266 428.24 351.237 432.929 355.061C437.618 358.884 442.306 362.071 446.995 364.62C451.684 367.169 454.58 370.738 455.683 375.327C456.786 379.915 457.062 384.121 456.51 387.945C455.959 391.769 387.145 394.063 250.07 394.828C112.995 395.593 44.3195 394.573 44.0437 391.769C43.7679 388.965 44.3195 385.141 45.6985 380.298C47.0775 375.454 53.1453 368.316 63.9017 358.884C74.6581 349.452 81.9669 341.677 85.8282 335.559C89.6895 329.441 92.9991 322.686 95.7572 315.293C98.5152 307.9 101.411 297.576 104.445 284.32C107.479 271.064 109.547 259.975 110.651 251.053C111.754 242.131 112.03 225.943 111.478 202.491C110.926 179.038 112.995 160.684 117.684 147.428C122.372 134.172 127.475 123.593 132.991 115.69C138.507 107.788 144.85 100.522 152.021 93.8945C159.192 87.2665 168.294 80.8935 179.326 74.7754C190.358 68.6573 199.598 64.1962 207.045 61.3921C214.491 58.588 220.145 56.931 224.007 56.4212C227.868 55.9113 230.074 55.4015 230.626 54.8916C231.178 54.3818 231.729 51.1953 232.281 45.3321C232.832 39.4689 233.798 35.6451 235.177 33.8607C236.556 32.0763 238.486 30.5467 240.969 29.2721C243.451 27.9975 246.071 27.3602 248.829 27.3602ZM360.116 75.9226C352.67 77.1972 346.188 78.8542 340.672 80.8935C335.156 82.9329 329.778 85.4821 324.538 88.5411C319.297 91.6002 314.333 95.1691 309.644 99.2478C304.955 103.327 300.818 107.66 297.233 112.249C293.647 116.837 290.338 122.318 287.304 128.691C284.27 135.064 282.201 140.927 281.098 146.281C279.995 151.634 279.443 157.242 279.443 163.105C279.443 168.969 279.995 174.577 281.098 179.93C282.201 185.283 284.132 190.892 286.89 196.755C289.648 202.618 292.544 207.589 295.578 211.668C298.612 215.746 302.335 219.825 306.748 223.904C311.161 227.983 315.574 231.424 319.987 234.228C324.4 237.032 330.605 239.964 338.604 243.023C346.602 246.082 355.979 248.121 366.736 249.141C377.492 250.161 385.904 250.288 391.972 249.523C398.04 248.759 403.694 247.612 408.934 246.082C414.174 244.552 420.656 241.748 428.378 237.67C436.101 233.591 442.444 229.385 447.409 225.051C452.373 220.717 456.924 215.746 461.061 210.138C465.198 204.53 468.508 198.794 470.99 192.931C473.472 187.068 475.127 182.097 475.955 178.018C476.782 173.94 477.196 168.331 477.196 161.193C477.196 154.056 476.782 148.575 475.955 144.751C475.127 140.927 473.335 135.829 470.576 129.456C467.818 123.083 464.371 117.22 460.234 111.866C456.097 106.513 451.96 102.052 447.823 98.483C443.685 94.9142 439.273 91.7276 434.584 88.9235C429.895 86.1194 424.103 83.4427 417.208 80.8935C410.313 78.3443 403.556 76.5599 396.936 75.5402C390.317 74.5205 384.387 74.0107 379.147 74.0107C373.907 74.0107 367.563 74.648 360.116 75.9226ZM384.112 82.0407C389.352 82.2956 395.282 83.1878 401.901 84.7173C408.52 86.2469 414.45 88.1588 419.69 90.453C424.931 92.7473 429.481 95.1691 433.343 97.7183C437.204 100.267 442.169 104.856 448.236 111.484C454.304 118.112 458.855 124.74 461.889 131.368C464.922 137.996 466.853 143.349 467.681 147.428C468.508 151.507 468.922 156.223 468.922 161.576C468.922 166.929 468.508 171.645 467.681 175.724C466.853 179.803 464.922 185.156 461.889 191.784C458.855 198.412 456.097 203.383 453.614 206.697C451.132 210.011 447.823 213.58 443.685 217.403C439.548 221.227 435.273 224.541 430.861 227.345C426.448 230.149 420.518 232.954 413.071 235.758C405.624 238.562 399.695 240.346 395.282 241.111C390.869 241.876 384.939 242.258 377.492 242.258C370.045 242.258 364.116 241.876 359.703 241.111C355.29 240.346 349.636 238.689 342.741 236.14C335.846 233.591 330.33 231.042 326.192 228.492C322.055 225.943 318.47 223.394 315.436 220.845C312.402 218.296 308.817 214.472 304.68 209.373C300.543 204.275 297.095 198.539 294.337 192.166C291.579 185.793 289.786 180.44 288.959 176.106C288.131 171.773 287.718 167.439 287.718 163.105C287.718 158.772 288.269 153.928 289.372 148.575C290.476 143.222 292.406 137.613 295.164 131.75C297.922 125.887 300.68 121.171 303.438 117.602C306.197 114.033 310.609 109.7 316.677 104.601C322.745 99.5027 328.537 95.5515 334.053 92.7473C339.569 89.9432 345.499 87.6489 351.842 85.8645C358.186 84.08 363.84 82.9329 368.804 82.423C373.769 81.9132 378.871 81.7857 384.112 82.0407ZM244.692 417.771C196.15 419.046 171.466 420.065 170.638 420.83C169.811 421.595 169.397 422.742 169.397 424.271C169.397 425.801 170.087 428.987 171.466 433.831C172.845 438.674 174.637 443.39 176.844 447.979C179.05 452.568 183.187 458.431 189.255 465.569C195.323 472.706 200.287 477.55 204.149 480.099C208.01 482.648 212.423 484.942 217.387 486.982C222.352 489.021 226.903 490.423 231.04 491.188C235.177 491.953 239.59 492.335 244.278 492.335C248.967 492.335 253.38 491.953 257.517 491.188C261.654 490.423 266.205 489.021 271.169 486.982C276.134 484.942 280.271 482.903 283.581 480.864C286.89 478.824 290.751 475.765 295.164 471.687C299.577 467.608 303.301 463.529 306.334 459.45C309.368 455.372 312.54 449.636 315.85 442.243C319.159 434.851 321.228 429.115 322.055 425.036C322.883 420.957 323.021 418.536 322.469 417.771C321.917 417.006 320.952 416.496 319.573 416.241C318.194 415.987 293.234 416.496 244.692 417.771ZM306.334 424.271C308.679 424.271 311.023 424.271 313.367 424.271C313.367 424.526 313.367 424.781 313.367 425.036C313.367 425.546 312.402 428.478 310.472 433.831C308.541 439.184 305.783 444.665 302.197 450.273C298.612 455.882 295.026 460.47 291.441 464.039C287.856 467.608 284.132 470.667 280.271 473.216C276.41 475.765 272.273 477.932 267.86 479.717C263.447 481.501 258.896 482.776 254.207 483.54C249.519 484.305 243.451 484.178 236.004 483.158C228.557 482.138 221.662 479.972 215.319 476.658C208.975 473.344 203.459 469.265 198.77 464.421C194.082 459.578 190.772 455.627 188.841 452.568C186.911 449.509 184.842 445.175 182.636 439.567C180.429 433.958 179.326 430.517 179.326 429.242C179.326 427.968 199.322 426.821 239.314 425.801C279.306 424.781 301.646 424.271 306.334 424.271Z" fill="#ffffff" fill-rule="nonzero" opacity="1" stroke="#fafafa" stroke-linecap="butt" stroke-linejoin="round" stroke-width="24.4395" vectornator:layerName="Courbe 1"/>
</g>
</svg>
