<?xml version="1.0" encoding="UTF-8" standalone="no"?>
<!DOCTYPE svg PUBLIC "-//W3C//DTD SVG 1.1//EN" "http://www.w3.org/Graphics/SVG/1.1/DTD/svg11.dtd">
<!-- Created with Vectornator (http://vectornator.io/) -->
<svg height="100%" stroke-miterlimit="10" style="fill-rule:nonzero;clip-rule:evenodd;stroke-linecap:round;stroke-linejoin:round;" version="1.1" viewBox="0 0 1000 1000" width="100%" xml:space="preserve" xmlns="http://www.w3.org/2000/svg" xmlns:vectornator="http://vectornator.io" xmlns:xlink="http://www.w3.org/1999/xlink">
<defs/>
<g id="Calque-1" vectornator:layerName="Calque 1">
<path d="M746.59 136.146C744.622 137.882 743.145 140.138 742.161 142.914C741.177 145.69 739.536 147.773 737.24 149.161C734.943 150.549 733.795 152.458 733.795 154.887C733.795 157.317 735.763 161.828 739.7 168.423C743.637 175.017 746.59 178.487 748.559 178.834C750.527 179.181 752.004 179.875 752.988 180.916C753.972 181.958 755.777 186.122 758.401 193.41C761.026 200.699 762.502 207.293 762.83 213.192C763.158 219.092 764.143 222.736 765.783 224.125C767.424 225.513 770.376 233.669 774.641 248.592C778.907 263.515 775.626 276.183 764.799 286.594C753.972 297.006 747.246 302.385 744.622 302.732C741.997 303.079 740.193 303.774 739.208 304.815C738.716 305.335 738.224 305.856 737.732 306.376C736.584 304.988 735.435 303.6 734.287 302.212C731.99 299.435 730.022 297.874 728.381 297.527C726.741 297.18 725.921 295.965 725.921 293.883C725.921 291.8 727.725 288.85 731.334 285.033C734.943 281.215 738.224 276.53 741.177 270.977C744.13 265.424 746.098 260.218 747.082 255.36C748.067 250.501 748.067 245.468 747.082 240.263C746.098 235.057 744.786 230.892 743.145 227.769C741.505 224.645 737.896 220.654 732.318 215.795C726.741 210.937 721.82 207.813 717.555 206.425C713.29 205.037 708.04 204.516 701.807 204.863C695.573 205.21 691.964 205.904 690.98 206.945C689.995 207.987 689.667 209.548 689.995 211.631C690.324 213.713 688.191 217.704 683.598 223.604C679.005 229.504 676.052 236.619 674.74 244.948C673.427 253.277 671.131 260.218 667.85 265.771C664.569 271.324 663.093 275.142 663.421 277.224C663.749 279.306 665.553 282.603 668.834 287.115C672.115 291.627 674.083 295.444 674.74 298.568C675.396 301.691 676.708 304.121 678.677 305.856C680.645 307.591 683.106 308.285 686.058 307.938C689.011 307.591 690.652 308.285 690.98 310.021C691.308 311.756 689.995 314.012 687.043 316.788C684.09 319.564 682.614 322.862 682.614 326.679C682.614 330.497 677.036 335.876 665.881 342.817C654.726 349.758 647.344 357.046 643.735 364.682C641.931 368.499 640.127 372.317 638.322 376.134C638.322 372.49 638.322 368.846 638.322 365.202C638.322 357.914 639.962 352.535 643.243 349.064C646.524 345.594 648.493 342.817 649.149 340.735C649.805 338.652 649.641 335.703 648.657 331.885C647.672 328.067 648.165 325.464 650.133 324.076C652.102 322.688 654.234 321.994 656.531 321.994C658.827 321.994 660.796 321.3 662.436 319.912C664.077 318.523 665.061 315.573 665.389 311.062C665.717 306.55 665.225 303.253 663.913 301.171C662.6 299.088 660.796 297.7 658.499 297.006C656.203 296.312 653.742 296.832 651.117 298.568C648.493 300.303 646.36 302.732 644.72 305.856C643.079 308.979 640.783 309.847 637.83 308.459C634.877 307.071 633.237 287.636 632.909 250.154C632.745 231.413 632.581 212.672 632.417 193.931C585.5 193.931 538.584 193.931 491.668 193.931C444.752 193.931 397.836 193.931 350.919 193.931C350.755 218.051 350.591 242.171 350.427 266.292C350.263 290.412 350.099 314.532 349.935 338.652C348.459 337.091 346.982 335.529 345.506 333.967C342.553 330.844 340.093 329.282 338.124 329.282C336.156 329.282 334.351 329.803 332.711 330.844C331.07 331.885 329.922 334.835 329.266 339.694C328.61 344.552 329.266 347.849 331.234 349.585C333.203 351.32 333.859 353.229 333.203 355.311C332.875 356.352 332.547 357.393 332.219 358.435C330.414 357.393 328.61 356.352 326.805 355.311C323.196 353.229 318.931 351.841 314.01 351.146C309.089 350.452 305.972 349.411 304.659 348.023C303.347 346.635 302.691 343.858 302.691 339.694C302.691 335.529 303.347 332.579 304.659 330.844C305.972 329.108 308.104 328.067 311.057 327.72C314.01 327.373 315.978 325.638 316.963 322.514C317.947 319.391 319.259 317.482 320.9 316.788C322.54 316.094 323.032 310.021 322.376 298.568C322.048 292.841 321.72 287.115 321.392 281.389C323.36 281.736 325.329 282.083 327.297 282.43C331.234 283.124 333.859 282.95 335.171 281.909C336.484 280.868 337.14 278.959 337.14 276.183C337.14 273.406 336.648 270.803 335.664 268.374C334.679 265.945 335.007 264.209 336.648 263.168C338.288 262.127 339.272 260.912 339.601 259.524C339.929 258.136 339.601 256.227 338.616 253.798C337.632 251.368 336.32 249.46 334.679 248.071C333.859 247.377 333.039 246.683 332.219 245.989C333.039 245.121 333.859 244.254 334.679 243.386C336.32 241.651 337.14 240.089 337.14 238.701C337.14 237.313 335.828 235.751 333.203 234.016C330.578 232.28 327.789 231.413 324.837 231.413C323.36 231.413 321.884 231.413 320.408 231.413C320.572 229.851 320.736 228.289 320.9 226.728C321.228 223.604 320.9 221.522 319.915 220.481C318.931 219.439 316.635 219.266 313.026 219.96C309.417 220.654 306.3 219.439 303.675 216.316C301.051 213.192 299.082 211.804 297.77 212.151C296.457 212.498 295.637 213.54 295.309 215.275C295.145 216.142 294.981 217.01 294.817 217.878C293.505 217.01 292.192 216.142 290.88 215.275C288.255 213.54 284.81 212.325 280.545 211.631C276.28 210.937 273.655 211.11 272.671 212.151C271.687 213.192 271.195 214.581 271.195 216.316C271.195 218.051 268.242 219.439 262.336 220.481C256.431 221.522 251.346 223.604 247.081 226.728C242.815 229.851 238.386 235.925 233.793 244.948C229.2 253.971 225.591 262.301 222.966 269.936C220.342 277.571 219.029 282.603 219.029 285.033C219.029 287.462 220.178 289.197 222.474 290.238C224.771 291.28 225.755 293.188 225.427 295.965C225.099 298.741 225.263 300.477 225.919 301.171C226.575 301.865 228.052 302.038 230.348 301.691C231.496 301.518 232.645 301.344 233.793 301.171C233.957 303.947 234.121 306.724 234.285 309.5C234.613 315.053 235.105 318.35 235.762 319.391C236.418 320.432 238.386 320.779 241.667 320.432C244.948 320.085 247.409 321.126 249.049 323.556C250.689 325.985 252.166 327.373 253.478 327.72C254.791 328.067 256.595 328.067 258.892 327.72C261.188 327.373 262.501 326.853 262.829 326.159C262.993 325.811 263.157 325.464 263.321 325.117C264.141 325.638 264.961 326.159 265.781 326.679C267.422 327.72 269.062 327.894 270.703 327.2C271.523 326.853 272.343 326.506 273.163 326.159C273.163 327.547 273.163 328.935 273.163 330.323C273.163 333.1 272.671 336.05 271.687 339.173C270.703 342.297 269.39 344.726 267.75 346.461C266.109 348.196 259.548 351.493 248.065 356.352C236.582 361.211 229.364 365.896 226.411 370.408C223.458 374.92 222.474 381.861 223.458 391.231C224.443 400.602 227.067 415.004 231.332 434.439C235.598 453.874 233.793 469.839 225.919 482.333C218.045 494.827 212.632 504.544 209.679 511.485C206.726 518.426 204.429 525.367 202.789 532.309C201.149 539.25 201.641 548.273 204.265 559.379C206.89 570.484 215.42 590.787 229.856 620.287C244.292 649.786 251.51 666.098 251.51 669.221C251.51 672.345 250.525 677.204 248.557 683.798C246.588 690.392 241.175 714.859 232.317 757.199C223.458 799.54 218.373 821.404 217.061 822.793C215.748 824.181 214.272 827.131 212.632 831.643C210.991 836.154 210.171 839.625 210.171 842.054C210.171 844.484 210.991 846.739 212.632 848.822C214.272 850.904 220.178 854.028 230.348 858.192C240.519 862.357 247.573 864.439 251.51 864.439C255.447 864.439 258.892 863.572 261.844 861.836C264.797 860.101 266.109 858.192 265.781 856.11C265.453 854.028 262.336 850.557 256.431 845.698C250.525 840.839 246.752 836.675 245.112 833.204C243.472 829.734 244.128 822.793 247.081 812.381C250.033 801.969 258.235 778.543 271.687 742.103C278.413 723.882 285.138 705.662 291.864 687.442C292.684 693.342 293.505 699.241 294.325 705.141C295.965 716.941 297.77 725.271 299.738 730.129C301.707 734.988 303.347 742.276 304.659 751.994C305.972 761.711 306.464 773.164 306.136 786.352C305.808 799.54 304.659 808.911 302.691 814.463C300.722 820.016 299.738 825.396 299.738 830.601C299.738 835.807 300.558 839.451 302.199 841.534C303.839 843.616 309.745 846.913 319.915 851.425C330.086 855.936 338.288 858.192 344.522 858.192C350.755 858.192 354.856 858.019 356.825 857.672C358.794 857.325 360.106 856.63 360.762 855.589C361.418 854.548 361.582 853.16 361.254 851.425C360.926 849.689 359.778 847.781 357.809 845.698C355.841 843.616 352.068 840.492 346.49 836.328C340.913 832.163 336.976 827.998 334.679 823.834C332.383 819.669 331.891 809.605 333.203 793.64C334.515 777.676 334.679 744.532 333.695 694.209C332.711 643.886 330.906 609.528 328.282 591.134C325.657 572.74 322.376 554.867 318.439 537.514C314.502 520.162 313.19 504.371 314.502 490.141C315.814 475.912 317.619 466.195 319.915 460.989C322.212 455.783 323.852 452.833 324.837 452.139C325.821 451.445 328.938 455.089 334.187 463.071C339.436 471.054 343.209 474.871 345.506 474.524C347.803 474.177 352.068 469.492 358.301 460.468C364.535 451.445 369.62 441.901 373.557 431.836C377.494 421.772 417.029 416.74 492.16 416.74C529.726 416.74 567.292 416.74 604.857 416.74C604.037 422.119 603.217 427.498 602.397 432.878C600.756 443.636 600.592 450.577 601.905 453.701C603.217 456.824 605.842 459.601 609.779 462.03C613.716 464.46 617.653 464.98 621.59 463.592C625.527 462.204 632.745 455.263 643.243 442.769C648.493 436.522 653.742 430.275 658.991 424.028C658.335 434.092 657.679 444.157 657.023 454.221C656.367 464.286 655.711 474.351 655.054 484.415C654.398 484.242 653.742 484.068 653.086 483.895C651.774 483.547 650.953 483.895 650.625 484.936C650.297 485.977 648.821 515.997 646.196 574.996C644.884 604.496 643.571 633.995 642.259 663.495C637.338 652.216 632.417 640.936 627.495 629.657C617.653 607.099 606.006 595.646 592.554 595.299C579.103 594.952 572.213 595.125 571.885 595.819C571.721 596.166 571.557 596.514 571.393 596.861C577.954 596.687 584.516 596.514 591.078 596.34C597.64 596.166 604.201 595.993 610.763 595.819C610.599 596.166 610.435 596.514 610.271 596.861C609.943 597.555 615.192 610.049 626.019 634.342C631.432 646.489 636.846 658.636 642.259 670.783C592.39 670.957 542.521 671.13 492.652 671.304C442.783 671.477 392.914 671.651 343.045 671.824C347.803 659.504 352.56 647.183 357.317 634.863C366.832 610.222 375.526 597.728 383.4 597.381C387.337 597.208 391.274 597.034 395.211 596.861C395.211 604.149 395.211 611.437 395.211 618.725C395.211 633.301 396.359 641.11 398.656 642.151C400.952 643.192 404.233 643.886 408.498 644.233C412.764 644.58 417.193 643.886 421.786 642.151C426.379 640.416 428.676 632.781 428.676 619.246C428.676 605.71 427.691 597.902 425.723 595.819C423.754 593.737 420.638 592.349 416.372 591.655C412.107 590.961 408.827 590.787 406.53 591.134C404.233 591.481 402.593 592.175 401.609 593.217C400.624 594.258 395.211 594.952 385.368 595.299C375.526 595.646 365.355 608.66 354.856 634.342C344.358 660.024 339.108 675.642 339.108 681.195C339.108 686.748 343.702 689.698 352.888 690.045C362.074 690.392 366.832 713.644 367.16 759.802C367.324 782.881 367.488 805.961 367.652 829.04C408.827 828.866 450.001 828.693 491.176 828.519C532.351 828.346 573.525 828.172 614.7 827.998C614.7 805.093 614.7 782.187 614.7 759.282C614.7 713.471 619.457 690.392 628.972 690.045C638.486 689.698 643.571 689.177 644.228 688.483C644.556 688.136 644.884 687.789 645.212 687.442C647.672 700.803 650.133 714.165 652.594 727.526C657.515 754.25 660.796 770.214 662.436 775.42C664.077 780.626 665.061 785.484 665.389 789.996C665.717 794.508 665.061 797.978 663.421 800.408C661.78 802.837 661.616 807.175 662.928 813.422C664.241 819.669 664.569 823.14 663.913 823.834C663.257 824.528 663.093 826.61 663.421 830.081C663.749 833.551 661.944 836.675 658.007 839.451C654.07 842.228 650.133 844.31 646.196 845.698C642.259 847.086 639.798 848.301 638.814 849.342C637.83 850.383 637.338 851.945 637.338 854.028C637.338 856.11 638.158 857.672 639.798 858.713C641.439 859.754 648.001 861.142 659.484 862.877C670.967 864.613 681.629 865.48 691.472 865.48C701.314 865.48 707.056 864.613 708.696 862.877C710.337 861.142 712.797 860.969 716.078 862.357C719.359 863.745 727.069 864.266 739.208 863.919C751.347 863.572 758.401 862.877 760.37 861.836C762.338 860.795 763.979 858.713 765.291 855.589C766.603 852.466 766.767 848.995 765.783 845.178C764.799 841.36 764.635 836.501 765.291 830.601C765.947 824.701 765.619 818.281 764.307 811.34C762.994 804.399 761.19 798.325 758.893 793.12C756.597 787.914 754.792 768.479 753.48 734.815C752.168 701.15 750.527 680.154 748.559 671.824C746.59 663.495 744.786 657.769 743.145 654.645C741.505 651.522 740.685 645.101 740.685 635.384C740.685 625.666 742.653 607.446 746.59 580.723C750.527 553.999 752.496 536.126 752.496 527.103C752.496 518.079 751.675 509.924 750.035 502.635C748.395 495.347 748.559 487.886 750.527 480.25C752.496 472.615 754.464 460.468 756.433 443.81C758.401 427.151 761.19 411.36 764.799 396.437C768.408 381.514 770.212 371.449 770.212 366.243C770.212 361.037 776.61 345.941 789.405 320.953C802.201 295.965 809.747 280.694 812.043 275.142C814.34 269.589 815.488 265.771 815.488 263.689C815.488 261.606 814.668 258.657 813.027 254.839C811.387 251.021 807.614 244.601 801.708 235.577C795.803 226.554 792.194 220.654 790.882 217.878C789.569 215.101 789.241 212.845 789.897 211.11C790.554 209.375 790.226 207.119 788.913 204.343C787.601 201.566 786.453 199.484 785.468 198.096C784.484 196.707 783.172 195.84 781.531 195.493C779.891 195.146 777.594 191.675 774.641 185.081C771.689 178.487 770.704 172.587 771.689 167.381C772.673 162.176 773.001 157.317 772.673 152.805C772.345 148.293 770.376 144.476 766.767 141.352C763.158 138.229 759.385 136.146 755.448 135.105C751.511 134.064 748.559 134.411 746.59 136.146ZM754.464 137.708C758.401 138.402 762.174 140.485 765.783 143.955C769.392 147.426 770.704 153.326 769.72 161.655C768.736 169.984 769.884 177.966 773.165 185.602C774.805 189.419 776.446 193.237 778.086 197.054C775.954 198.096 773.821 199.137 771.689 200.178C767.424 202.26 764.799 202.954 763.815 202.26C762.83 201.566 761.026 197.402 758.401 189.766C755.777 182.131 752.824 177.446 749.543 175.711C746.262 173.975 743.145 170.678 740.193 165.82C737.24 160.961 735.927 157.317 736.255 154.887C736.42 153.673 736.584 152.458 736.748 151.243C738.388 152.458 740.028 153.673 741.669 154.887C744.95 157.317 747.903 157.317 750.527 154.887C753.152 152.458 754.628 150.723 754.956 149.682C755.12 149.161 755.284 148.64 755.448 148.12C754.628 148.64 753.808 149.161 752.988 149.682C751.347 150.723 749.707 150.029 748.067 147.599C747.246 146.385 746.426 145.17 745.606 143.955C745.606 144.823 745.606 145.69 745.606 146.558C745.606 148.293 746.262 149.855 747.574 151.243C748.231 151.937 748.887 152.632 749.543 153.326C748.723 153.673 747.903 154.02 747.082 154.367C745.442 155.061 744.13 154.887 743.145 153.846C742.161 152.805 741.669 151.59 741.669 150.202C741.669 148.814 742.817 146.211 745.114 142.393C747.41 138.576 750.527 137.014 754.464 137.708ZM352.888 196.013C399.148 196.013 445.408 196.013 491.668 196.013C537.928 196.013 584.188 196.013 630.448 196.013C630.448 214.754 630.448 233.495 630.448 252.236C630.448 289.718 628.972 310.021 626.019 313.144C624.542 314.706 623.066 316.267 621.59 317.829C621.59 298.741 621.59 279.653 621.59 260.565C621.59 241.477 621.59 222.389 621.59 203.301C578.447 203.475 535.303 203.648 492.16 203.822C449.017 203.996 405.874 204.169 362.731 204.343C362.566 228.463 362.402 252.583 362.238 276.703C361.91 324.944 360.106 349.411 356.825 350.105C353.544 350.799 350.919 352.535 348.951 355.311C347.967 356.699 346.982 358.087 345.998 359.476C347.803 358.087 349.607 356.699 351.412 355.311C355.021 352.535 357.645 351.146 359.286 351.146C360.106 351.146 360.926 351.146 361.746 351.146C361.746 351.493 361.746 351.841 361.746 352.188C361.746 352.882 359.942 354.096 356.333 355.832C352.724 357.567 350.427 359.302 349.443 361.037C348.951 361.905 348.459 362.773 347.967 363.64C349.935 362.252 351.904 360.864 353.872 359.476C357.809 356.699 360.762 355.138 362.731 354.79C364.699 354.443 365.847 354.617 366.175 355.311C366.504 356.005 363.879 358.087 358.301 361.558C352.724 365.029 350.099 367.458 350.427 368.846C350.755 370.234 350.427 371.449 349.443 372.49C348.459 373.531 347.475 375.961 346.49 379.778C345.506 383.596 338.452 391.925 325.329 404.766C318.767 411.187 312.205 417.607 305.644 424.028C304.331 422.292 303.019 420.557 301.707 418.822C299.082 415.351 297.442 412.401 296.785 409.972C296.129 407.543 301.707 402.163 313.518 393.834C325.329 385.505 332.219 376.308 334.187 366.243C335.171 361.211 336.156 356.179 337.14 351.146C337.632 351.32 338.124 351.493 338.616 351.667C339.601 352.014 340.749 351.32 342.061 349.585C343.374 347.849 345.342 346.288 347.967 344.899C350.591 343.511 352.396 342.817 353.38 342.817C353.872 342.817 354.364 342.817 354.856 342.817C354.856 343.338 354.856 343.858 354.856 344.379C354.856 345.42 353.544 346.461 350.919 347.502C348.295 348.543 346.162 350.105 344.522 352.188C343.702 353.229 342.881 354.27 342.061 355.311C342.717 355.311 343.374 355.311 344.03 355.311C345.342 355.311 347.311 354.096 349.935 351.667C352.56 349.238 355.021 348.023 357.317 348.023C358.465 348.023 359.614 348.023 360.762 348.023C359.942 347.502 359.122 346.982 358.301 346.461C356.661 345.42 355.841 344.205 355.841 342.817C355.841 342.123 355.841 341.429 355.841 340.735C354.692 340.908 353.544 341.082 352.396 341.255C351.248 341.429 350.099 341.602 348.951 341.776C349.607 341.429 350.263 341.082 350.919 340.735C352.232 340.041 352.888 315.747 352.888 267.853C352.888 243.907 352.888 219.96 352.888 196.013ZM782.023 198.616C783.336 198.963 784.812 201.046 786.453 204.863C787.273 206.772 788.093 208.681 788.913 210.59C784.976 212.498 781.039 214.407 777.102 216.316C773.165 218.225 769.228 220.134 765.291 222.042C764.799 219.613 764.307 217.184 763.815 214.754C762.83 209.895 765.291 205.904 771.197 202.781C777.102 199.657 780.711 198.269 782.023 198.616ZM618.637 205.384C618.801 224.472 618.965 243.56 619.129 262.648C619.457 300.824 618.801 320.606 617.161 321.994C615.52 323.382 614.372 325.638 613.716 328.761C613.06 331.885 611.255 334.835 608.302 337.611C605.35 340.388 603.873 342.817 603.873 344.899C603.873 346.982 604.529 348.37 605.842 349.064C607.154 349.758 609.287 349.585 612.239 348.543C613.716 348.023 615.192 347.502 616.668 346.982C616.504 350.452 616.34 353.923 616.176 357.393C615.848 364.334 614.864 368.326 613.224 369.367C611.583 370.408 610.271 373.705 609.287 379.258C608.302 384.811 608.302 388.802 609.287 391.231C610.271 393.661 610.271 396.437 609.287 399.56C608.302 402.684 570.572 404.246 496.097 404.246C458.859 404.246 421.622 404.246 384.384 404.246C384.384 404.593 384.384 404.94 384.384 405.287C384.384 405.634 384.384 405.981 384.384 406.328C421.622 406.328 458.859 406.328 496.097 406.328C533.335 406.328 570.572 406.328 607.81 406.328C607.482 407.716 607.154 409.104 606.826 410.493C606.17 413.269 568.276 414.831 493.144 415.178C455.579 415.351 418.013 415.525 380.447 415.698C381.103 413.096 381.759 410.493 382.416 407.89C383.728 402.684 385.204 399.387 386.845 397.999C388.485 396.61 389.141 392.966 388.813 387.066C388.485 381.167 387.665 378.043 386.353 377.696C385.696 377.523 385.04 377.349 384.384 377.175C384.712 376.481 385.04 375.787 385.368 375.093C386.025 373.705 385.368 371.97 383.4 369.887C381.431 367.805 379.791 366.764 378.479 366.764C377.166 366.764 376.182 365.896 375.526 364.161C374.87 362.426 373.065 361.384 370.112 361.037C368.636 360.864 367.16 360.69 365.683 360.517C366.339 359.302 366.996 358.087 367.652 356.873C368.308 355.658 368.964 354.443 369.62 353.229C368.472 352.708 367.324 352.188 366.175 351.667C363.879 350.626 363.059 346.461 363.715 339.173C364.371 331.885 364.699 308.112 364.699 267.853C364.699 247.724 364.699 227.595 364.699 207.466C407.022 207.119 449.345 206.772 491.668 206.425C533.991 206.078 576.314 205.731 618.637 205.384ZM704.759 206.945C710.993 207.293 716.242 208.334 720.507 210.069C724.773 211.804 728.545 214.234 731.826 217.357C735.107 220.481 737.896 223.951 740.193 227.769C742.489 231.586 743.965 237.139 744.622 244.427C745.278 251.715 745.278 256.574 744.622 259.004C743.965 261.433 741.833 265.771 738.224 272.018C734.615 278.265 731.498 282.777 728.874 285.553C726.249 288.33 722.804 289.718 718.539 289.718C714.274 289.718 710.665 288.156 707.712 285.033C704.759 281.909 703.283 280 703.283 279.306C703.283 278.612 704.923 277.397 708.204 275.662C711.485 273.927 713.618 270.63 714.602 265.771C715.586 260.912 715.586 257.615 714.602 255.88C713.618 254.145 711.485 253.798 708.204 254.839C706.564 255.36 704.923 255.88 703.283 256.401C703.283 255.533 703.283 254.665 703.283 253.798C703.283 252.063 701.807 249.807 698.854 247.03C695.901 244.254 694.425 242.171 694.425 240.783C694.425 239.395 696.065 236.445 699.346 231.933C702.627 227.422 704.267 224.298 704.267 222.563C704.267 220.828 703.775 219.266 702.791 217.878C701.807 216.489 699.674 215.448 696.393 214.754C693.112 214.06 691.472 213.019 691.472 211.631C691.472 210.243 692.128 209.028 693.44 207.987C694.753 206.945 698.526 206.598 704.759 206.945ZM274.148 212.672C275.952 212.845 277.756 213.019 279.561 213.192C283.17 213.54 286.779 214.928 290.388 217.357C293.997 219.786 296.129 220.828 296.785 220.481C297.442 220.134 297.77 218.919 297.77 216.837C297.77 215.795 297.77 214.754 297.77 213.713C298.098 213.713 298.426 213.713 298.754 213.713C299.41 213.713 300.886 215.448 303.183 218.919C305.48 222.389 307.94 223.604 310.565 222.563C313.19 221.522 315.322 221.348 316.963 222.042C318.603 222.736 318.931 224.645 317.947 227.769C317.455 229.33 316.963 230.892 316.471 232.454C318.439 232.627 320.408 232.801 322.376 232.975C326.313 233.322 329.43 234.189 331.726 235.577C332.875 236.272 334.023 236.966 335.171 237.66C334.351 239.222 333.531 240.783 332.711 242.345C331.07 245.468 331.398 248.592 333.695 251.715C335.992 254.839 337.14 257.095 337.14 258.483C337.14 259.871 336.156 261.086 334.187 262.127C332.219 263.168 331.891 265.251 333.203 268.374C334.515 271.498 335.171 274.1 335.171 276.183C335.171 278.265 334.187 279.653 332.219 280.347C330.25 281.042 328.118 280.868 325.821 279.827C323.524 278.786 322.048 278.612 321.392 279.306C320.736 280 319.259 280.174 316.963 279.827C314.666 279.48 313.518 278.265 313.518 276.183C313.518 275.142 313.518 274.1 313.518 273.059C313.19 275.142 312.862 277.224 312.534 279.306C311.877 283.471 312.205 286.074 313.518 287.115C314.83 288.156 315.486 289.197 315.486 290.238C315.486 291.28 314.502 291.974 312.534 292.321C310.565 292.668 309.581 293.188 309.581 293.883C309.581 294.23 309.581 294.577 309.581 294.924C310.401 294.924 311.221 294.924 312.041 294.924C313.682 294.924 314.994 294.403 315.978 293.362C316.963 292.321 316.799 290.065 315.486 286.594C314.83 284.859 314.174 283.124 313.518 281.389C314.666 281.736 315.814 282.083 316.963 282.43C319.259 283.124 320.572 288.677 320.9 299.088C321.228 309.5 320.572 314.879 318.931 315.226C317.291 315.573 315.978 317.482 314.994 320.953C314.01 324.423 312.041 326.332 309.089 326.679C306.136 327.026 303.839 328.761 302.199 331.885C301.379 333.447 300.558 335.008 299.738 336.57C296.949 333.273 294.161 329.976 291.372 326.679C285.795 320.085 281.858 316.094 279.561 314.706C277.264 313.318 275.624 311.235 274.64 308.459C274.148 307.071 273.655 305.682 273.163 304.294C272.343 304.641 271.523 304.988 270.703 305.335C269.062 306.029 267.422 306.029 265.781 305.335C264.141 304.641 262.993 302.559 262.336 299.088C261.68 295.618 261.68 293.188 262.336 291.8C262.993 290.412 264.633 289.891 267.258 290.238C269.882 290.585 271.523 289.718 272.179 287.636C272.835 285.553 272.999 283.297 272.671 280.868C272.343 278.439 273.655 276.183 276.608 274.1C279.561 272.018 282.678 268.895 285.959 264.73C287.599 262.648 289.239 260.565 290.88 258.483C291.372 259.177 291.864 259.871 292.356 260.565C293.341 261.954 294.489 262.648 295.801 262.648C297.114 262.648 298.59 261.954 300.23 260.565C301.051 259.871 301.871 259.177 302.691 258.483C303.183 259.177 303.675 259.871 304.167 260.565C305.152 261.954 307.12 262.127 310.073 261.086C311.549 260.565 313.026 260.045 314.502 259.524C314.83 261.086 315.158 262.648 315.486 264.209C315.814 265.771 316.142 267.333 316.471 268.895C315.978 268.721 315.486 268.548 314.994 268.374C314.502 268.201 314.01 268.027 313.518 267.853C313.518 268.201 313.518 268.548 313.518 268.895C313.518 269.589 314.338 270.803 315.978 272.539C316.799 273.406 317.619 274.274 318.439 275.142C318.439 273.233 318.439 271.324 318.439 269.415C318.439 265.598 317.947 262.648 316.963 260.565C315.978 258.483 314.01 257.962 311.057 259.004C309.581 259.524 308.104 260.045 306.628 260.565C306.464 260.045 306.3 259.524 306.136 259.004C305.808 257.962 304.824 257.442 303.183 257.442C301.543 257.442 299.738 257.962 297.77 259.004C296.785 259.524 295.801 260.045 294.817 260.565C294.817 259.698 294.817 258.83 294.817 257.962C294.817 256.227 294.325 255.186 293.341 254.839C292.356 254.492 289.239 257.442 283.99 263.689C278.741 269.936 274.968 273.753 272.671 275.142C270.375 276.53 269.39 279.133 269.718 282.95C269.882 284.859 270.046 286.768 270.211 288.677C268.898 288.503 267.586 288.33 266.273 288.156C263.649 287.809 262.008 287.983 261.352 288.677C260.696 289.371 260.204 291.106 259.876 293.883C259.548 296.659 259.712 299.088 260.368 301.171C261.024 303.253 261.844 304.815 262.829 305.856C263.813 306.897 265.453 307.418 267.75 307.418C270.046 307.418 271.523 307.765 272.179 308.459C272.835 309.153 273.163 311.756 273.163 316.267C273.163 320.779 272.671 323.556 271.687 324.597C270.703 325.638 269.554 325.811 268.242 325.117C266.93 324.423 263.977 324.25 259.384 324.597C254.791 324.944 251.838 323.903 250.525 321.473C249.213 319.044 246.752 318.003 243.143 318.35C241.339 318.523 239.535 318.697 237.73 318.87C237.402 315.573 237.074 312.276 236.746 308.979C236.418 305.682 236.09 302.385 235.762 299.088C234.449 299.262 233.137 299.435 231.825 299.609C229.2 299.956 227.723 299.088 227.395 297.006C227.067 294.924 227.231 293.015 227.888 291.28C228.216 290.412 228.544 289.544 228.872 288.677C227.559 288.33 226.247 287.983 224.935 287.636C223.622 287.288 222.31 286.941 220.998 286.594C222.146 282.43 223.294 278.265 224.443 274.1C226.739 265.771 229.856 257.442 233.793 249.113C237.73 240.783 242.159 234.536 247.081 230.372C252.002 226.207 257.743 223.778 264.305 223.084C270.867 222.389 274.148 220.481 274.148 217.357C274.148 215.795 274.148 214.234 274.148 212.672ZM786.945 214.754C787.601 214.754 789.569 218.225 792.85 225.166C796.131 232.107 799.576 238.007 803.185 242.866C806.794 247.724 809.583 252.583 811.551 257.442C813.52 262.301 806.958 280 791.866 310.541C776.774 341.082 768.9 359.996 768.244 367.284C767.588 374.573 765.455 385.678 761.846 400.602C758.237 415.525 755.613 428.192 753.972 438.604C752.332 449.016 751.511 456.651 751.511 461.51C751.511 466.368 750.691 472.442 749.051 479.73C748.231 483.374 747.41 487.018 746.59 490.662C746.098 490.315 745.606 489.968 745.114 489.621C744.13 488.927 739.208 489.621 730.35 491.703C721.492 493.786 713.618 494.827 706.728 494.827C699.838 494.827 692.292 494.133 684.09 492.744C675.888 491.356 669.326 489.794 664.405 488.059C659.484 486.324 657.515 474.871 658.499 453.701C659.484 432.531 661.78 419.69 665.389 415.178C668.998 410.666 670.803 407.89 670.803 406.849C670.803 406.328 670.803 405.807 670.803 405.287C663.257 414.484 655.711 423.681 648.165 432.878C633.073 451.271 624.05 460.989 621.098 462.03C618.145 463.071 615.192 462.898 612.239 461.51C609.287 460.121 606.99 458.213 605.35 455.783C603.709 453.354 602.725 450.924 602.397 448.495C602.069 446.066 603.709 435.828 607.318 417.781C610.927 399.734 615.356 390.19 620.605 389.149C625.855 388.108 628.972 388.108 629.956 389.149C630.94 390.19 628.151 395.916 621.59 406.328C615.028 416.74 611.583 422.813 611.255 424.548C611.091 425.416 610.927 426.284 610.763 427.151C611.091 427.151 611.419 427.151 611.747 427.151C612.403 427.151 614.7 422.987 618.637 414.657C622.574 406.328 626.347 399.734 629.956 394.875C633.565 390.016 637.994 382.034 643.243 370.928C648.493 359.823 656.367 351.146 666.865 344.899C677.364 338.652 682.942 335.008 683.598 333.967C684.254 332.926 692.948 329.108 709.681 322.514C726.413 315.92 735.927 311.409 738.224 308.979C740.521 306.55 742.981 305.162 745.606 304.815C748.231 304.468 754.464 299.262 764.307 289.197C774.149 279.133 780.547 273.927 783.5 273.58C786.453 273.233 789.405 273.58 792.358 274.621C793.834 275.142 795.311 275.662 796.787 276.183C796.623 275.662 796.459 275.142 796.295 274.621C795.967 273.58 793.506 272.539 788.913 271.498C784.32 270.456 779.891 262.301 775.626 247.03C771.361 231.76 769.228 223.778 769.228 223.084C769.228 222.389 772.017 220.828 777.594 218.398C783.172 215.969 786.288 214.754 786.945 214.754ZM693.44 215.795C695.409 215.795 697.377 216.663 699.346 218.398C701.314 220.134 701.971 222.216 701.314 224.645C700.658 227.075 699.018 229.851 696.393 232.975C693.768 236.098 692.456 238.701 692.456 240.783C692.456 242.866 693.933 245.295 696.885 248.071C699.838 250.848 701.15 252.93 700.822 254.318C700.494 255.707 700.658 256.748 701.314 257.442C701.971 258.136 703.775 257.962 706.728 256.921C709.681 255.88 711.649 256.054 712.633 257.442C713.618 258.83 713.618 261.606 712.633 265.771C711.649 269.936 709.517 272.712 706.236 274.1C702.955 275.489 700.658 278.439 699.346 282.95C698.69 285.206 698.034 287.462 697.377 289.718C698.362 288.503 699.346 287.288 700.33 286.074C701.314 284.859 702.299 283.644 703.283 282.43C704.759 283.991 706.236 285.553 707.712 287.115C710.665 290.238 714.11 291.974 718.047 292.321C720.015 292.494 721.984 292.668 723.952 292.841C723.788 293.709 723.624 294.577 723.46 295.444C723.132 297.18 719.687 299.088 713.125 301.171C706.564 303.253 701.971 305.335 699.346 307.418C696.721 309.5 694.917 310.368 693.933 310.021C692.948 309.673 692.292 308.632 691.964 306.897C691.8 306.029 691.636 305.162 691.472 304.294C689.831 304.641 688.191 304.988 686.551 305.335C683.27 306.029 680.973 305.682 679.661 304.294C678.348 302.906 676.872 299.609 675.232 294.403C673.591 289.197 671.459 285.033 668.834 281.909C666.209 278.786 665.061 276.356 665.389 274.621C665.717 272.886 667.194 270.109 669.818 266.292C672.443 262.474 674.083 258.83 674.74 255.36C675.396 251.889 676.38 249.98 677.692 249.633C679.005 249.286 679.989 249.633 680.645 250.674C680.973 251.195 681.301 251.715 681.629 252.236C681.465 251.368 681.301 250.501 681.137 249.633C680.973 248.765 680.809 247.898 680.645 247.03C679.825 247.204 679.005 247.377 678.184 247.551C677.364 247.724 676.544 247.898 675.724 248.071C675.888 246.683 676.052 245.295 676.216 243.907C676.544 241.13 677.364 238.007 678.677 234.536C679.989 231.066 682.285 227.075 685.566 222.563C688.847 218.051 691.472 215.795 693.44 215.795ZM878.973 248.071C879.465 249.807 879.957 251.542 880.449 253.277C879.465 253.277 878.48 253.277 877.496 253.277C875.528 253.277 873.559 254.318 871.591 256.401C869.622 258.483 866.013 261.086 860.764 264.209C855.514 267.333 852.562 269.936 851.906 272.018C851.249 274.1 851.249 275.489 851.906 276.183C852.562 276.877 853.546 277.05 854.858 276.703C856.171 276.356 860.764 272.886 868.638 266.292C876.512 259.698 880.777 256.401 881.433 256.401C882.089 256.401 882.581 257.095 882.91 258.483C883.238 259.871 879.465 263.342 871.591 268.895C863.717 274.447 858.959 278.092 857.319 279.827C855.678 281.562 854.858 283.297 854.858 285.033C854.858 285.9 854.858 286.768 854.858 287.636C853.546 284.339 852.234 281.042 850.921 277.744C848.297 271.15 851.085 264.904 859.287 259.004C867.49 253.104 872.411 249.113 874.051 247.03C874.871 245.989 875.692 244.948 876.512 243.907C873.559 245.816 870.606 247.724 867.654 249.633C861.748 253.451 856.499 257.442 851.906 261.606C847.312 265.771 847.476 274.1 852.398 286.594C857.319 299.088 859.78 305.856 859.78 306.897C859.78 307.938 859.123 308.632 857.811 308.979C856.499 309.326 854.858 310.888 852.89 313.665C850.921 316.441 850.593 319.391 851.906 322.514C853.218 325.638 855.022 327.026 857.319 326.679C859.616 326.332 861.748 324.423 863.717 320.953C865.685 317.482 866.341 314.012 865.685 310.541C865.029 307.071 863.224 301.865 860.272 294.924C857.319 287.983 859.616 281.389 867.161 275.142C874.707 268.895 879.301 265.598 880.941 265.251C882.581 264.904 884.55 268.027 886.847 274.621C889.143 281.215 890.291 284.859 890.291 285.553C890.291 286.247 889.143 286.941 886.847 287.636C884.55 288.33 883.074 289.197 882.417 290.238C881.761 291.28 881.269 293.535 880.941 297.006C880.613 300.477 881.597 302.906 883.894 304.294C886.19 305.682 888.487 305.162 890.784 302.732C893.08 300.303 894.393 296.659 894.721 291.8C895.049 286.941 892.752 277.918 887.831 264.73C882.91 251.542 879.957 244.601 878.973 243.907C878.48 243.56 877.988 243.213 877.496 242.866C877.988 244.601 878.48 246.336 878.973 248.071ZM36.4498 255.88C26.9354 263.862 23.6545 270.803 26.6073 276.703C29.5601 282.603 31.8567 288.33 33.4971 293.883C35.1375 299.435 35.9577 303.079 35.9577 304.815C35.9577 306.55 34.6454 308.806 32.0207 311.582C29.396 314.359 28.0837 316.962 28.0837 319.391C28.0837 321.82 29.0679 323.729 31.0364 325.117C33.0049 326.506 35.1375 326.506 37.4341 325.117C39.7307 323.729 41.043 321.3 41.3711 317.829C41.6992 314.359 40.0588 307.244 36.4498 296.485C34.6454 291.106 32.8409 285.727 31.0364 280.347C33.169 279.653 35.3015 278.959 37.4341 278.265C41.6992 276.877 44.4879 275.315 45.8003 273.58C47.1126 271.845 49.7373 269.762 53.6743 267.333C55.6428 266.118 57.6113 264.904 59.5798 263.689C60.8922 267.333 62.2045 270.977 63.5169 274.621C66.1415 281.909 66.3056 286.247 64.009 287.636C61.7124 289.024 60.236 291.28 59.5798 294.403C58.9237 297.527 59.0877 299.956 60.072 301.691C61.0562 303.426 62.2045 304.294 63.5169 304.294C64.8292 304.294 66.4696 303.426 68.4381 301.691C70.4067 299.956 71.555 298.394 71.883 297.006C72.2111 295.618 71.719 292.147 70.4067 286.594C69.0943 281.042 67.2898 275.836 64.9933 270.977C62.6967 266.118 61.7124 262.995 62.0405 261.606C62.2045 260.912 62.3686 260.218 62.5326 259.524C62.0405 259.524 61.5484 259.524 61.0562 259.524C60.072 259.524 59.2518 258.657 58.5956 256.921C57.9394 255.186 57.6113 253.104 57.6113 250.674C57.6113 248.245 57.2833 246.51 56.6271 245.468C55.9709 244.427 54.8226 243.907 53.1822 243.907C51.5418 243.907 45.9643 247.898 36.4498 255.88ZM53.1822 246.51C54.1664 246.857 54.6586 247.724 54.6586 249.113C54.6586 250.501 49.9013 254.492 40.3869 261.086C35.6296 264.383 30.8724 267.68 26.1152 270.977C25.9511 270.456 25.7871 269.936 25.623 269.415C25.2949 268.374 25.623 267.333 26.6073 266.292C27.5915 265.251 32.0207 261.606 39.8947 255.36C47.7688 249.113 52.1979 246.163 53.1822 246.51ZM437.534 253.277C439.502 253.971 458.203 254.145 493.637 253.798C511.353 253.624 529.07 253.451 546.786 253.277C528.085 253.104 509.385 252.93 490.684 252.757C471.983 252.583 453.282 252.41 434.581 252.236C435.565 252.583 436.55 252.93 437.534 253.277ZM54.6586 253.277C54.9867 253.277 55.3147 253.277 55.6428 253.277C55.6428 253.798 55.6428 254.318 55.6428 254.839C55.6428 255.88 54.3305 256.921 51.7058 257.962C49.0811 259.004 45.4722 261.78 40.879 266.292C36.2858 270.803 33.0049 273.406 31.0364 274.1C30.0522 274.447 29.0679 274.795 28.0837 275.142C28.2477 274.447 28.4118 273.753 28.5758 273.059C28.9039 271.671 31.2005 269.762 35.4656 267.333C39.7307 264.904 43.8318 261.954 47.7688 258.483C51.7058 255.012 54.0024 253.277 54.6586 253.277ZM877.496 254.318C877.824 254.318 878.152 254.318 878.48 254.318C878.316 254.839 878.152 255.36 877.988 255.88C877.66 256.921 873.887 260.218 866.669 265.771C859.451 271.324 855.35 274.1 854.366 274.1C853.874 274.1 853.382 274.1 852.89 274.1C853.218 273.406 853.546 272.712 853.874 272.018C854.53 270.63 857.483 268.374 862.732 265.251C867.982 262.127 871.591 259.524 873.559 257.442C875.528 255.36 876.84 254.318 877.496 254.318ZM677.2 258.483C676.872 260.565 677.2 261.954 678.184 262.648C678.677 262.995 679.169 263.342 679.661 263.689C679.825 262.648 679.989 261.606 680.153 260.565C680.481 258.483 680.153 257.095 679.169 256.401C678.677 256.054 678.184 255.707 677.692 255.36C677.528 256.401 677.364 257.442 677.2 258.483ZM56.135 258.483C56.6271 258.483 57.1192 258.483 57.6113 258.483C57.6113 259.177 57.6113 259.871 57.6113 260.565C57.6113 261.954 56.135 263.342 53.1822 264.73C50.2294 266.118 47.6047 268.027 45.3081 270.456C43.0115 272.886 40.2228 274.968 36.942 276.703C33.6611 278.439 31.5286 279.133 30.5443 278.786C30.0522 278.612 29.5601 278.439 29.0679 278.265C33.333 274.968 37.5981 271.671 41.8632 268.374C50.3935 261.78 55.1507 258.483 56.135 258.483ZM300.23 266.812C295.965 268.201 293.505 269.589 292.848 270.977C292.52 271.671 292.192 272.365 291.864 273.059C294.489 272.018 297.114 270.977 299.738 269.936C302.363 268.895 304.988 267.853 307.612 266.812C307.448 266.465 307.284 266.118 307.12 265.771C306.792 265.077 304.495 265.424 300.23 266.812ZM962.634 270.456C961.65 272.192 960.666 276.877 959.681 284.512C958.697 292.147 957.713 297.18 956.729 299.609C955.744 302.038 954.924 306.724 954.268 313.665C953.612 320.606 951.151 324.076 946.886 324.076C942.621 324.076 939.504 325.117 937.536 327.2C935.567 329.282 934.583 331.364 934.583 333.447C934.583 335.529 935.567 337.264 937.536 338.652C939.504 340.041 941.965 340.561 944.918 340.214C947.87 339.867 950.331 338.479 952.3 336.05C954.268 333.62 956.401 325.291 958.697 311.062C959.846 303.947 960.994 296.832 962.142 289.718C963.783 291.28 965.423 292.841 967.063 294.403C970.344 297.527 971.821 301.865 971.493 307.418C971.329 310.194 971.164 312.97 971 315.747C971.493 315.747 971.985 315.747 972.477 315.747C973.461 315.747 974.117 312.276 974.445 305.335C974.773 298.394 973.625 292.668 971 288.156C968.376 283.644 967.063 280 967.063 277.224C967.063 274.447 966.571 272.192 965.587 270.456C965.095 269.589 964.603 268.721 964.111 267.853C963.619 268.721 963.126 269.589 962.634 270.456ZM964.111 273.059C964.439 274.968 964.767 276.877 965.095 278.786C965.751 282.603 966.899 286.074 968.54 289.197C969.36 290.759 970.18 292.321 971 293.883C969.524 292.668 968.048 291.453 966.571 290.238C963.619 287.809 962.47 284.339 963.126 279.827C963.454 277.571 963.783 275.315 964.111 273.059ZM679.169 279.827C676.216 282.256 675.396 284.512 676.708 286.594C678.02 288.677 679.333 289.718 680.645 289.718C681.957 289.718 682.942 289.197 683.598 288.156C684.254 287.115 684.746 285.033 685.074 281.909C685.402 278.786 685.238 277.05 684.582 276.703C683.926 276.356 682.121 277.397 679.169 279.827ZM292.356 279.827C292.192 280.347 292.028 280.868 291.864 281.389C293.505 281.389 295.145 281.389 296.785 281.389C298.426 281.389 300.066 281.389 301.707 281.389C301.707 281.042 301.707 280.694 301.707 280.347C301.707 279.653 300.23 279.133 297.278 278.786C294.325 278.439 292.684 278.786 292.356 279.827ZM421.294 280.868C418.505 281.042 415.716 281.215 412.928 281.389C414.896 281.736 416.865 282.083 418.833 282.43C422.77 283.124 448.689 283.297 496.589 282.95C520.539 282.777 544.49 282.603 568.44 282.43C568.276 282.083 568.112 281.736 567.948 281.389C567.62 280.694 544.49 280.347 498.558 280.347C452.626 280.347 426.871 280.521 421.294 280.868ZM682.614 280.347C682.778 280.868 682.942 281.389 683.106 281.909C683.434 282.95 683.106 284.165 682.121 285.553C681.629 286.247 681.137 286.941 680.645 287.636C680.153 287.115 679.661 286.594 679.169 286.074C678.677 285.553 678.184 285.033 677.692 284.512C678.513 283.818 679.333 283.124 680.153 282.43C680.973 281.736 681.793 281.042 682.614 280.347ZM891.276 282.43C891.768 283.297 892.26 284.165 892.752 285.033C893.736 286.768 893.9 289.371 893.244 292.841C892.588 296.312 891.604 298.915 890.291 300.65C888.979 302.385 887.503 303.426 885.862 303.774C885.042 303.947 884.222 304.121 883.402 304.294C883.402 302.385 883.402 300.477 883.402 298.568C883.402 294.75 884.878 291.974 887.831 290.238C890.784 288.503 892.096 286.768 891.768 285.033C891.604 284.165 891.44 283.297 891.276 282.43ZM67.4539 287.636C67.782 289.197 68.1101 290.759 68.4381 292.321C69.0943 295.444 68.9303 297.7 67.946 299.088C66.9618 300.477 65.8135 301.171 64.5011 301.171C63.1888 301.171 62.2045 300.129 61.5484 298.047C60.8922 295.965 61.7124 293.709 64.009 291.28C65.1573 290.065 66.3056 288.85 67.4539 287.636ZM296.293 302.732C297.278 307.244 298.754 309.5 300.722 309.5C302.691 309.5 304.331 308.459 305.644 306.376C306.956 304.294 308.268 303.253 309.581 303.253C310.893 303.253 312.205 302.559 313.518 301.171C314.174 300.477 314.83 299.782 315.486 299.088C313.354 299.435 311.221 299.782 309.089 300.129C304.824 300.824 301.379 300.303 298.754 298.568C297.442 297.7 296.129 296.832 294.817 295.965C295.309 298.221 295.801 300.477 296.293 302.732ZM658.499 299.609C660.796 300.65 662.436 302.038 663.421 303.774C664.405 305.509 664.897 307.591 664.897 310.021C664.897 312.45 664.077 314.706 662.436 316.788C660.796 318.87 658.499 319.738 655.547 319.391C652.594 319.044 650.461 317.309 649.149 314.185C647.837 311.062 647.344 308.459 647.672 306.376C648.001 304.294 649.313 302.385 651.61 300.65C653.906 298.915 656.203 298.568 658.499 299.609ZM726.413 299.609C728.71 299.956 730.842 301.171 732.811 303.253C734.779 305.335 735.599 306.897 735.271 307.938C734.943 308.979 726.413 312.97 709.681 319.912C701.314 323.382 692.948 326.853 684.582 330.323C684.582 328.761 684.582 327.2 684.582 325.638C684.582 322.514 685.238 320.259 686.551 318.87C687.863 317.482 691.8 314.706 698.362 310.541C704.923 306.376 710.665 303.426 715.586 301.691C720.507 299.956 724.116 299.262 726.413 299.609ZM297.77 300.129C299.082 300.65 300.394 301.171 301.707 301.691C303.019 302.212 304.331 302.732 305.644 303.253C304.988 304.121 304.331 304.988 303.675 305.856C302.363 307.591 301.215 308.285 300.23 307.938C299.246 307.591 298.59 306.203 298.262 303.774C298.098 302.559 297.934 301.344 297.77 300.129ZM861.748 307.418C862.076 309.326 862.404 311.235 862.732 313.144C863.388 316.962 863.06 319.738 861.748 321.473C860.436 323.209 859.123 324.25 857.811 324.597C856.499 324.944 855.186 323.903 853.874 321.473C852.562 319.044 853.546 316.094 856.827 312.623C858.467 310.888 860.108 309.153 861.748 307.418ZM474.936 309.5C449.345 310.194 436.222 310.888 435.565 311.582C435.237 311.929 434.909 312.276 434.581 312.623C451.149 312.45 467.718 312.276 484.286 312.103C517.423 311.756 535.96 311.409 539.897 311.062C543.834 310.715 545.802 310.194 545.802 309.5C545.802 309.153 545.802 308.806 545.802 308.459C540.389 308.459 534.975 308.459 529.562 308.459C518.735 308.459 500.526 308.806 474.936 309.5ZM635.861 310.021C637.502 311.062 638.322 313.144 638.322 316.267C638.322 319.391 639.962 323.035 643.243 327.2C646.524 331.364 647.837 335.008 647.18 338.132C646.524 341.255 644.556 344.726 641.275 348.543C637.994 352.361 636.19 357.22 635.861 363.12C635.697 366.07 635.533 369.02 635.369 371.97C633.893 371.276 632.417 370.581 630.94 369.887C627.987 368.499 624.871 367.805 621.59 367.805C619.949 367.805 618.309 367.805 616.668 367.805C617.161 364.855 617.653 361.905 618.145 358.955C619.129 353.055 618.801 347.676 617.161 342.817C615.52 337.958 615.028 333.794 615.684 330.323C616.34 326.853 617.981 324.25 620.605 322.514C623.23 320.779 625.363 318.35 627.003 315.226C628.644 312.103 630.12 310.194 631.432 309.5C632.745 308.806 634.221 308.979 635.861 310.021ZM754.464 313.144C757.745 316.267 760.042 319.044 761.354 321.473C762.01 322.688 762.666 323.903 763.323 325.117C763.158 324.076 762.994 323.035 762.83 321.994C762.502 319.912 760.862 317.309 757.909 314.185C754.956 311.062 752.824 309.326 751.511 308.979C750.855 308.806 750.199 308.632 749.543 308.459C751.183 310.021 752.824 311.582 754.464 313.144ZM37.4341 310.021C38.4184 310.368 38.9105 312.276 38.9105 315.747C38.9105 319.217 38.5824 321.473 37.9262 322.514C37.2701 323.556 36.2858 324.076 34.9735 324.076C33.6611 324.076 32.5128 323.035 31.5286 320.953C30.5443 318.87 31.0364 316.441 33.0049 313.665C34.9735 310.888 36.4498 309.673 37.4341 310.021ZM645.212 309.5C646.196 311.582 647.18 313.665 648.165 315.747C650.133 319.912 649.969 322.688 647.672 324.076C646.524 324.77 645.376 325.464 644.228 326.159C643.407 324.076 642.587 321.994 641.767 319.912C640.127 315.747 640.291 312.97 642.259 311.582C643.243 310.888 644.228 310.194 645.212 309.5ZM747.082 318.87C750.035 325.117 751.84 328.241 752.496 328.241C752.824 328.241 753.152 328.241 753.48 328.241C752.988 326.853 752.496 325.464 752.004 324.076C751.019 321.3 749.215 318.176 746.59 314.706C745.278 312.97 743.965 311.235 742.653 309.5C744.13 312.623 745.606 315.747 747.082 318.87ZM275.132 313.665C276.608 314.706 278.085 315.747 279.561 316.788C282.514 318.87 286.615 323.035 291.864 329.282C297.114 335.529 300.394 340.735 301.707 344.899C303.019 349.064 302.855 351.841 301.215 353.229C299.574 354.617 296.129 355.658 290.88 356.352C285.631 357.046 280.381 356.179 275.132 353.749C272.507 352.535 269.882 351.32 267.258 350.105C268.242 348.891 269.226 347.676 270.211 346.461C272.179 344.032 273.491 341.429 274.148 338.652C274.804 335.876 275.132 331.017 275.132 324.076C275.132 320.606 275.132 317.135 275.132 313.665ZM954.268 321.994C954.268 323.209 954.268 324.423 954.268 325.638C954.268 328.067 953.448 330.497 951.807 332.926C950.167 335.355 947.87 336.917 944.918 337.611C941.965 338.305 939.832 338.132 938.52 337.091C937.208 336.05 936.716 334.488 937.044 332.405C937.372 330.323 938.356 328.761 939.996 327.72C941.637 326.679 944.261 326.332 947.87 326.679C951.479 327.026 953.448 326.332 953.776 324.597C953.94 323.729 954.104 322.862 954.268 321.994ZM337.632 332.405C340.585 332.405 342.881 333.447 344.522 335.529C346.162 337.611 345.178 340.561 341.569 344.379C337.96 348.196 335.664 350.105 334.679 350.105C333.695 350.105 332.547 349.064 331.234 346.982C329.922 344.899 329.922 341.949 331.234 338.132C332.547 334.314 334.679 332.405 337.632 332.405ZM612.731 335.529C613.388 335.529 613.88 337.091 614.208 340.214C614.536 343.338 613.552 345.42 611.255 346.461C608.958 347.502 607.482 347.849 606.826 347.502C606.17 347.155 605.842 346.114 605.842 344.379C605.842 342.644 606.826 340.735 608.794 338.652C610.763 336.57 612.075 335.529 612.731 335.529ZM477.888 339.694C443.768 340.388 423.918 340.908 418.341 341.255C412.764 341.602 409.811 342.123 409.483 342.817C409.319 343.164 409.155 343.511 408.991 343.858C436.058 343.511 463.125 343.164 490.192 342.817C544.326 342.123 571.557 341.255 571.885 340.214C572.049 339.694 572.213 339.173 572.377 338.652C565.159 338.652 557.941 338.652 550.723 338.652C536.288 338.652 512.009 339 477.888 339.694ZM345.998 343.338C346.326 343.511 346.654 343.685 346.982 343.858C345.67 344.726 344.358 345.594 343.045 346.461C341.733 347.329 340.421 348.196 339.108 349.064C340.093 348.023 341.077 346.982 342.061 345.941C344.03 343.858 345.342 342.991 345.998 343.338ZM273.163 355.311C279.725 358.087 284.81 359.476 288.419 359.476C292.028 359.476 295.637 358.261 299.246 355.832C302.855 353.402 305.316 352.188 306.628 352.188C307.94 352.188 311.549 352.882 317.455 354.27C323.36 355.658 327.461 357.22 329.758 358.955C332.055 360.69 333.203 362.252 333.203 363.64C333.203 365.029 332.711 367.805 331.726 371.97C330.742 376.134 329.594 379.084 328.282 380.82C326.969 382.555 316.635 389.669 297.278 402.163C277.921 414.657 267.75 420.557 266.766 419.863C265.781 419.169 264.305 414.657 262.336 406.328C260.368 397.999 258.728 392.619 257.415 390.19C256.759 388.975 256.103 387.761 255.447 386.546C255.283 387.066 255.119 387.587 254.955 388.108C254.626 389.149 254.791 389.843 255.447 390.19C256.103 390.537 257.907 396.61 260.86 408.41C262.336 414.31 263.813 420.21 265.289 426.11C267.586 424.375 269.882 422.64 272.179 420.904C276.772 417.434 281.694 414.484 286.943 412.054C289.568 410.84 292.192 409.625 294.817 408.41C294.981 409.451 295.145 410.493 295.309 411.534C295.637 413.616 297.278 416.393 300.23 419.863C303.183 423.334 304.659 425.589 304.659 426.631C304.659 427.672 299.41 434.092 288.911 445.892C278.413 457.692 269.226 466.021 261.352 470.88C253.478 475.739 248.885 477.474 247.573 476.086C246.26 474.698 244.456 471.227 242.159 465.674C239.863 460.121 236.746 448.322 232.809 430.275C228.872 412.228 226.575 398.519 225.919 389.149C225.263 379.778 226.083 373.531 228.38 370.408C230.676 367.284 237.074 363.293 247.573 358.435C258.071 353.576 266.602 352.535 273.163 355.311ZM366.175 364.161C369.128 365.896 370.441 367.631 370.112 369.367C369.784 371.102 370.112 372.143 371.097 372.49C372.081 372.837 372.573 373.705 372.573 375.093C372.573 376.481 373.885 377.349 376.51 377.696C377.822 377.87 379.135 378.043 380.447 378.217C380.283 378.911 380.119 379.605 379.955 380.299C379.627 381.687 380.611 383.422 382.908 385.505C385.204 387.587 386.517 389.669 386.845 391.752C387.009 392.793 387.173 393.834 387.337 394.875C386.189 394.702 385.04 394.528 383.892 394.355C381.595 394.008 378.479 391.752 374.542 387.587C370.605 383.422 367.98 379.778 366.668 376.655C365.355 373.531 363.059 371.276 359.778 369.887C358.137 369.193 356.497 368.499 354.856 367.805C356.005 366.764 357.153 365.723 358.301 364.682C360.598 362.599 363.223 362.426 366.175 364.161ZM352.888 368.846C354.036 369.714 355.185 370.581 356.333 371.449C358.629 373.184 360.434 375.44 361.746 378.217C363.059 380.993 363.387 386.199 362.731 393.834C362.402 397.652 362.074 401.469 361.746 405.287C362.895 405.287 364.043 405.287 365.191 405.287C366.339 405.287 367.488 405.287 368.636 405.287C367.488 406.849 366.339 408.41 365.191 409.972C362.895 413.096 360.27 414.484 357.317 414.137C354.364 413.79 352.888 406.154 352.888 391.231C352.888 383.769 352.888 376.308 352.888 368.846ZM621.098 369.887C624.707 369.887 627.823 370.581 630.448 371.97C633.073 373.358 634.877 374.92 635.861 376.655C636.846 378.39 636.682 380.472 635.369 382.902C634.057 385.331 630.776 386.546 625.527 386.546C620.277 386.546 616.34 387.066 613.716 388.108C612.403 388.628 611.091 389.149 609.779 389.669C610.271 386.546 610.763 383.422 611.255 380.299C612.239 374.052 613.224 370.755 614.208 370.408C615.192 370.061 617.489 369.887 621.098 369.887ZM381.924 373.531C382.416 374.052 382.908 374.573 383.4 375.093C381.924 375.093 380.447 375.093 378.971 375.093C377.494 375.093 376.018 375.093 374.542 375.093C375.526 374.573 376.51 374.052 377.494 373.531C379.463 372.49 380.939 372.49 381.924 373.531ZM360.762 373.011C361.254 373.184 361.746 373.358 362.238 373.531C363.223 373.878 364.207 375.093 365.191 377.175C366.175 379.258 366.668 381.514 366.668 383.943C366.668 386.372 367.816 388.455 370.112 390.19C372.409 391.925 373.885 394.528 374.542 397.999C375.198 401.469 375.854 403.204 376.51 403.204C376.838 403.204 377.166 403.204 377.494 403.204C377.494 402.684 377.494 402.163 377.494 401.643C377.494 400.602 377.166 398.866 376.51 396.437C375.854 394.008 374.378 391.405 372.081 388.628C370.933 387.24 369.784 385.852 368.636 384.464C371.097 386.719 373.557 388.975 376.018 391.231C380.939 395.743 382.088 402.337 379.463 411.013C376.838 419.69 374.214 426.804 371.589 432.357C370.276 435.133 368.964 437.91 367.652 440.686C365.191 438.604 362.731 436.522 360.27 434.439C357.809 432.357 355.349 430.275 352.888 428.192C356.005 424.548 359.122 420.904 362.238 417.26C368.472 409.972 371.589 405.634 371.589 404.246C371.589 402.857 370.605 400.775 368.636 397.999C366.668 395.222 365.519 391.405 365.191 386.546C364.863 381.687 364.043 378.217 362.731 376.134C362.074 375.093 361.418 374.052 360.762 373.011ZM349.935 375.093C350.099 381.861 350.263 388.628 350.427 395.396C350.755 408.931 352.396 415.872 355.349 416.219C356.825 416.393 358.301 416.566 359.778 416.74C358.301 418.648 356.825 420.557 355.349 422.466C353.872 424.375 352.396 426.284 350.919 428.192C349.443 422.292 347.967 416.393 346.49 410.493C343.538 398.693 342.881 391.578 344.522 389.149C346.162 386.719 347.475 383.769 348.459 380.299C348.951 378.564 349.443 376.828 349.935 375.093ZM752.988 399.56C746.754 413.096 743.145 421.945 742.161 426.11C741.177 430.275 739.536 434.266 737.24 438.083C736.091 439.992 734.943 441.901 733.795 443.81C734.287 443.636 734.779 443.463 735.271 443.289C736.255 442.942 737.896 440.686 740.193 436.522C742.489 432.357 743.473 429.581 743.145 428.192C742.817 426.804 746.262 418.648 753.48 403.725C760.698 388.802 763.979 380.993 763.323 380.299C762.994 379.952 762.666 379.605 762.338 379.258C759.221 386.025 756.105 392.793 752.988 399.56ZM340.093 393.834C340.749 393.834 342.225 398.172 344.522 406.849C346.818 415.525 347.967 421.598 347.967 425.069C347.967 428.539 348.459 430.448 349.443 430.795C350.427 431.142 351.248 430.969 351.904 430.275C352.232 429.928 352.56 429.581 352.888 429.234C353.872 430.622 354.856 432.01 355.841 433.398C357.809 436.175 360.106 438.257 362.731 439.645C364.043 440.339 365.355 441.033 366.668 441.727C364.535 445.545 362.402 449.363 360.27 453.18C356.005 460.815 352.396 466.021 349.443 468.798C346.49 471.574 344.358 472.615 343.045 471.921C341.733 471.227 339.601 468.277 336.648 463.071C333.695 457.865 331.234 454.395 329.266 452.66C327.297 450.924 328.118 447.454 331.726 442.248C335.335 437.042 337.14 430.969 337.14 424.028C337.14 417.087 336.648 411.013 335.664 405.807C334.679 400.602 335.007 397.305 336.648 395.916C338.288 394.528 339.436 393.834 340.093 393.834ZM331.234 401.122C331.891 403.031 332.547 404.94 333.203 406.849C334.515 410.666 335.171 416.219 335.171 423.507C335.171 430.795 333.367 436.522 329.758 440.686C326.149 444.851 322.868 449.536 319.915 454.742C316.963 459.948 315.322 465.154 314.994 470.359C314.666 475.565 310.401 478.689 302.199 479.73C293.997 480.771 285.302 480.25 276.116 478.168C266.93 476.086 262.336 474.698 262.336 474.003C262.336 473.309 264.305 471.748 268.242 469.318C272.179 466.889 277.1 462.724 283.006 456.824C288.911 450.924 294.325 444.851 299.246 438.604C304.167 432.357 306.792 428.539 307.12 427.151C307.448 425.763 311.549 421.078 319.423 413.096C323.36 409.104 327.297 405.113 331.234 401.122ZM727.397 430.275C725.593 433.051 723.788 435.828 721.984 438.604C723.788 436.695 725.593 434.786 727.397 432.878C731.006 429.06 733.139 426.631 733.795 425.589C734.451 424.548 734.451 423.681 733.795 422.987C733.467 422.64 733.139 422.292 732.811 421.945C731.006 424.722 729.202 427.498 727.397 430.275ZM715.586 446.413C714.438 447.974 713.29 449.536 712.141 451.098C713.454 450.057 714.766 449.016 716.078 447.974C718.703 445.892 719.851 444.33 719.523 443.289C719.359 442.769 719.195 442.248 719.031 441.727C717.883 443.289 716.734 444.851 715.586 446.413ZM238.714 464.633C240.191 467.236 241.667 469.839 243.143 472.442C246.096 477.648 248.393 480.25 250.033 480.25C251.674 480.25 253.642 479.383 255.939 477.648C258.235 475.912 259.876 475.565 260.86 476.606C261.844 477.648 266.109 479.036 273.655 480.771C277.428 481.639 281.201 482.506 284.974 483.374C282.678 487.712 280.381 492.05 278.085 496.388C273.491 505.065 271.523 510.791 272.179 513.568C272.835 516.344 273.655 518.079 274.64 518.773C275.624 519.468 277.264 519.121 279.561 517.732C281.858 516.344 283.498 514.435 284.482 512.006C284.974 510.791 285.466 509.577 285.959 508.362C286.123 510.271 286.287 512.179 286.451 514.088C286.779 517.906 287.599 520.335 288.911 521.376C290.224 522.418 291.864 522.591 293.833 521.897C295.801 521.203 296.457 517.732 295.801 511.485C295.145 505.238 293.669 498.991 291.372 492.744C290.224 489.621 289.075 486.497 287.927 483.374C292.192 483.027 296.457 482.68 300.722 482.333C304.988 481.986 309.253 481.639 313.518 481.292C313.026 487.018 312.534 492.744 312.041 498.471C311.057 509.924 313.19 527.45 318.439 551.049C323.688 574.649 327.133 596.861 328.774 617.684C330.414 638.507 331.398 669.742 331.726 711.388C332.055 753.035 331.726 781.32 330.742 796.243C329.758 811.166 328.774 818.975 327.789 819.669C326.805 820.363 323.688 820.537 318.439 820.19C313.19 819.843 309.909 819.149 308.596 818.107C307.284 817.066 306.956 813.596 307.612 807.696C308.268 801.796 308.432 790.864 308.104 774.899C307.776 758.935 306.136 745.747 303.183 735.335C300.23 724.923 297.77 713.471 295.801 700.977C293.833 688.483 292.52 682.062 291.864 681.715C291.536 681.542 291.208 681.368 290.88 681.195C288.747 687.789 286.615 694.383 284.482 700.977C280.217 714.165 274.476 729.782 267.258 747.829C260.04 765.876 256.103 776.635 255.447 780.105C254.791 783.576 253.642 786.699 252.002 789.476C250.361 792.252 247.901 799.193 244.62 810.299C241.339 821.404 237.894 827.131 234.285 827.478C230.676 827.825 227.559 827.304 224.935 825.916C222.31 824.528 226.575 797.805 237.73 745.747C248.885 693.689 249.869 657.421 240.683 636.945C231.496 616.469 224.279 601.372 219.029 591.655C213.78 581.937 209.843 572.914 207.218 564.585C204.593 556.255 203.281 550.008 203.281 545.844C203.281 541.679 203.937 536.82 205.25 531.267C206.562 525.715 208.695 519.468 211.647 512.526C214.6 505.585 219.849 495.868 227.395 483.374C231.168 477.127 234.941 470.88 238.714 464.633ZM285.959 486.497C285.959 488.927 285.959 491.356 285.959 493.786C285.959 498.644 284.974 503.503 283.006 508.362C281.037 513.221 279.233 515.823 277.592 516.171C276.772 516.344 275.952 516.518 275.132 516.691C274.968 515.303 274.804 513.915 274.64 512.526C274.312 509.75 276.116 504.718 280.053 497.43C282.022 493.786 283.99 490.141 285.959 486.497ZM653.086 486.497C655.382 487.365 657.679 488.233 659.976 489.1C664.569 490.836 671.787 492.571 681.629 494.306C691.472 496.041 699.838 496.909 706.728 496.909C713.618 496.909 721.328 495.868 729.858 493.786C738.388 491.703 743.145 491.009 744.13 491.703C745.114 492.397 746.426 496.041 748.067 502.635C749.707 509.229 750.691 515.129 751.019 520.335C751.347 525.541 750.527 536.647 748.559 553.652C746.59 570.658 744.786 582.631 743.145 589.572C741.505 596.514 740.193 607.966 739.208 623.931C738.224 639.895 738.716 649.786 740.685 653.604C742.653 657.421 744.458 662.627 746.098 669.221C747.738 675.815 749.379 696.986 751.019 732.732C752.66 768.479 754.956 790.17 757.909 797.805C760.862 805.44 762.666 811.34 763.323 815.505C763.979 819.669 763.979 824.701 763.323 830.601C762.666 836.501 762.666 841.707 763.323 846.219C763.979 850.731 763.815 854.028 762.83 856.11C761.846 858.192 760.534 859.58 758.893 860.275C757.253 860.969 750.855 861.489 739.7 861.836C728.545 862.183 721 861.489 717.063 859.754C713.125 858.019 711.157 856.11 711.157 854.028C711.157 851.945 713.454 848.995 718.047 845.178C722.64 841.36 725.429 838.063 726.413 835.287C726.905 833.898 727.397 832.51 727.889 831.122C729.694 832.163 731.498 833.204 733.303 834.245C736.912 836.328 741.505 837.369 747.082 837.369C752.66 837.369 756.433 836.328 758.401 834.245C759.385 833.204 760.37 832.163 761.354 831.122C760.206 831.816 759.057 832.51 757.909 833.204C755.613 834.593 752.004 835.287 747.082 835.287C742.161 835.287 738.06 834.245 734.779 832.163C731.498 830.081 729.366 827.825 728.381 825.396C727.397 822.966 726.577 820.537 725.921 818.107C725.265 815.678 725.265 811.86 725.921 806.655C726.577 801.449 726.577 798.499 725.921 797.805C725.265 797.111 724.937 794.855 724.937 791.037C724.937 787.22 720.343 764.835 711.157 723.882C701.971 682.93 697.541 652.91 697.87 633.822C698.034 624.278 698.198 614.734 698.362 605.19C697.705 606.231 697.049 607.272 696.393 608.313C695.081 610.396 693.604 616.816 691.964 627.575C690.324 638.334 689.011 644.754 688.027 646.836C687.043 648.919 686.551 653.777 686.551 661.413C686.551 669.048 687.535 678.071 689.503 688.483C691.472 698.894 693.276 713.124 694.917 731.17C696.557 749.217 698.69 764.835 701.314 778.023C703.939 791.211 705.58 804.746 706.236 818.628C706.892 832.51 703.775 839.972 696.885 841.013C689.995 842.054 682.942 841.36 675.724 838.931C668.506 836.501 665.225 832.337 665.881 826.437C666.537 820.537 666.373 816.546 665.389 814.463C664.405 812.381 663.913 809.952 663.913 807.175C663.913 804.399 664.569 802.143 665.881 800.408C667.194 798.672 667.85 796.243 667.85 793.12C667.85 789.996 663.749 768.305 655.547 728.047C647.344 687.789 644.884 637.466 648.165 577.079C649.805 546.885 651.445 516.691 653.086 486.497ZM288.911 495.868C289.896 498.991 290.88 502.115 291.864 505.238C293.833 511.485 294.489 515.65 293.833 517.732C293.505 518.773 293.176 519.815 292.848 520.856C292.356 520.682 291.864 520.509 291.372 520.335C290.388 519.988 289.568 518.947 288.911 517.212C288.255 515.476 288.091 511.485 288.419 505.238C288.583 502.115 288.747 498.991 288.911 495.868ZM286.451 542.72C280.873 549.661 278.249 553.479 278.577 554.173C278.741 554.52 278.905 554.867 279.069 555.214C281.858 552.091 284.646 548.967 287.435 545.844C293.012 539.597 295.965 535.953 296.293 534.911C296.621 533.87 296.457 533.176 295.801 532.829C295.145 532.482 292.028 535.779 286.451 542.72ZM274.64 564.064C280.873 583.152 284.81 597.728 286.451 607.793C288.091 617.857 289.404 629.831 290.388 643.713C291.372 657.595 292.192 664.71 292.848 665.057C293.176 665.23 293.505 665.404 293.833 665.577C293.505 659.33 293.176 653.083 292.848 646.836C292.192 634.342 290.88 621.848 288.911 609.355C286.943 596.861 283.826 583.499 279.561 569.27C275.296 555.041 272.343 546.017 270.703 542.2C269.062 538.382 267.75 536.3 266.766 535.953C266.273 535.779 265.781 535.606 265.289 535.432C268.406 544.976 271.523 554.52 274.64 564.064ZM714.602 560.94C707.712 565.452 704.103 568.229 703.775 569.27C703.611 569.79 703.447 570.311 703.283 570.832C706.564 569.096 709.845 567.361 713.125 565.626C719.687 562.155 723.624 559.726 724.937 558.338C725.593 557.643 726.249 556.949 726.905 556.255C726.577 555.908 726.249 555.561 725.921 555.214C725.265 554.52 721.492 556.429 714.602 560.94ZM539.897 572.393C536.616 574.823 535.139 579.161 535.467 585.408C535.631 588.531 535.795 591.655 535.96 594.778C518.079 594.952 500.198 595.125 482.318 595.299C464.437 595.472 446.556 595.646 428.676 595.819C428.676 596.166 428.676 596.514 428.676 596.861C428.676 597.208 428.676 597.555 428.676 597.902C446.556 597.902 464.437 597.902 482.318 597.902C500.198 597.902 518.079 597.902 535.96 597.902C535.96 600.852 535.96 603.802 535.96 606.752C535.96 612.652 536.288 615.949 536.944 616.643C537.6 617.337 540.061 618.378 544.326 619.766C548.591 621.154 552.692 621.675 556.629 621.328C560.566 620.981 563.847 619.94 566.471 618.204C569.096 616.469 570.408 608.66 570.408 594.778C570.408 580.896 568.768 573.087 565.487 571.352C562.206 569.617 557.941 568.749 552.692 568.749C547.442 568.749 543.177 569.964 539.897 572.393ZM545.802 570.832C548.755 571.005 551.708 571.179 554.66 571.352C560.566 571.699 564.339 572.567 565.979 573.955C566.8 574.649 567.62 575.343 568.44 576.037C567.784 576.731 567.128 577.426 566.471 578.12C565.159 579.508 561.714 580.549 556.137 581.243C550.559 581.937 546.13 581.764 542.849 580.723C539.568 579.681 538.092 578.467 538.42 577.079C538.748 575.69 540.225 574.823 542.849 574.476C544.162 574.302 545.474 574.129 546.786 573.955C546.622 573.434 546.458 572.914 546.294 572.393C546.13 571.873 545.966 571.352 545.802 570.832ZM700.33 582.805C699.674 586.449 699.018 590.093 698.362 593.737C698.69 593.737 699.018 593.737 699.346 593.737C700.002 593.737 700.986 591.134 702.299 585.928C703.611 580.723 704.267 577.079 704.267 574.996C704.267 573.955 704.267 572.914 704.267 571.873C703.939 571.873 703.611 571.873 703.283 571.873C702.627 571.873 701.643 575.517 700.33 582.805ZM567.456 580.202C567.784 580.202 568.112 580.202 568.44 580.202C568.44 581.59 568.44 582.978 568.44 584.367C568.44 585.755 568.44 587.143 568.44 588.531C565.979 587.837 563.519 587.143 561.058 586.449C558.597 585.755 556.137 585.061 553.676 584.367C555.809 583.673 557.941 582.978 560.074 582.284C564.339 580.896 566.8 580.202 567.456 580.202ZM537.928 581.243C540.225 581.764 542.521 582.284 544.818 582.805C547.114 583.325 549.411 583.846 551.708 584.367C549.411 585.234 547.114 586.102 544.818 586.97C542.521 587.837 540.225 588.705 537.928 589.572C537.928 588.184 537.928 586.796 537.928 585.408C537.928 584.02 537.928 582.631 537.928 581.243ZM557.613 587.49C562.206 588.184 564.995 589.399 565.979 591.134C566.471 592.002 566.964 592.869 567.456 593.737C566.307 594.431 565.159 595.125 564.011 595.819C561.714 597.208 557.449 597.728 551.215 597.381C544.982 597.034 541.373 595.819 540.389 593.737C539.897 592.696 539.404 591.655 538.912 590.614C540.881 589.92 542.849 589.225 544.818 588.531C548.755 587.143 553.02 586.796 557.613 587.49ZM413.42 592.696C416.372 592.696 418.177 593.043 418.833 593.737C419.161 594.084 419.489 594.431 419.817 594.778C416.865 594.952 413.912 595.125 410.959 595.299C408.006 595.472 405.054 595.646 402.101 595.819C403.249 595.299 404.397 594.778 405.546 594.258C407.842 593.217 410.467 592.696 413.42 592.696ZM567.456 595.819C567.62 599.116 567.784 602.413 567.948 605.71C568.276 612.304 567.948 615.949 566.964 616.643C565.979 617.337 562.37 617.857 556.137 618.204C549.903 618.551 545.31 618.031 542.357 616.643C539.404 615.254 537.928 611.61 537.928 605.71C537.928 602.76 537.928 599.811 537.928 596.861C539.076 597.381 540.225 597.902 541.373 598.422C543.67 599.463 547.442 599.984 552.692 599.984C557.941 599.984 561.714 599.29 564.011 597.902C565.159 597.208 566.307 596.514 567.456 595.819ZM424.247 597.902C425.231 598.596 425.723 599.463 425.723 600.505C425.723 601.546 424.247 602.587 421.294 603.628C418.341 604.669 414.568 605.016 409.975 604.669C405.382 604.322 402.101 603.455 400.132 602.066C398.164 600.678 397.179 599.637 397.179 598.943C397.179 598.249 401.445 597.728 409.975 597.381C418.505 597.034 423.262 597.208 424.247 597.902ZM396.195 603.108C398 603.802 399.804 604.496 401.609 605.19C405.218 606.578 410.303 606.752 416.865 605.71C420.145 605.19 423.426 604.669 426.707 604.149C426.707 605.71 426.707 607.272 426.707 608.834C426.707 610.396 426.707 611.957 426.707 613.519C424.739 612.652 422.77 611.784 420.802 610.916C416.865 609.181 413.256 608.313 409.975 608.313C406.694 608.313 403.577 608.834 400.624 609.875C399.148 610.396 397.672 610.916 396.195 611.437C396.195 610.049 396.195 608.66 396.195 607.272C396.195 605.884 396.195 604.496 396.195 603.108ZM417.357 611.437C421.622 612.825 424.082 614.213 424.739 615.601C425.067 616.296 425.395 616.99 425.723 617.684C424.411 618.378 423.098 619.072 421.786 619.766C419.161 621.154 415.224 621.501 409.975 620.807C404.725 620.113 401.281 618.725 399.64 616.643C398.82 615.601 398 614.56 397.179 613.519C399.476 612.825 401.773 612.131 404.069 611.437C408.662 610.049 413.092 610.049 417.357 611.437ZM396.195 617.684C398 618.725 399.804 619.766 401.609 620.807C405.218 622.89 408.827 623.931 412.435 623.931C416.044 623.931 419.325 623.237 422.278 621.848C423.754 621.154 425.231 620.46 426.707 619.766C426.543 622.89 426.379 626.013 426.215 629.137C425.887 635.384 423.098 639.201 417.849 640.589C412.599 641.978 407.678 641.978 403.085 640.589C398.492 639.201 396.195 635.037 396.195 628.095C396.195 624.625 396.195 621.154 396.195 617.684ZM695.409 618.725C695.245 625.145 695.081 631.566 694.917 637.986C694.589 650.827 696.721 667.313 701.314 687.442C705.908 707.571 708.696 721.453 709.681 729.088C710.665 736.723 712.961 747.482 716.57 761.364C720.179 775.246 722.476 785.137 723.46 791.037C724.444 796.937 724.608 800.408 723.952 801.449C723.296 802.49 722.968 804.746 722.968 808.216C722.968 811.687 723.788 815.852 725.429 820.71C727.069 825.569 727.069 829.734 725.429 833.204C723.788 836.675 721 840.145 717.063 843.616C715.094 845.351 713.125 847.086 711.157 848.822C710.829 848.128 710.501 847.434 710.173 846.739C709.517 845.351 709.024 838.063 708.696 824.875C708.368 811.687 706.892 798.152 704.267 784.27C701.643 770.388 699.346 753.208 697.377 732.732C695.409 712.256 693.44 696.292 691.472 684.839C689.503 673.386 688.519 665.404 688.519 660.892C688.519 656.38 689.667 648.225 691.964 636.425C693.112 630.525 694.261 624.625 695.409 618.725ZM606.826 672.865C618.309 672.865 629.792 672.865 641.275 672.865C641.275 675.295 641.275 677.724 641.275 680.154C641.275 685.012 639.798 687.615 636.846 687.962C633.893 688.309 583.86 688.483 486.747 688.483C438.19 688.483 389.634 688.483 341.077 688.483C341.077 686.227 341.077 683.971 341.077 681.715C341.077 679.459 341.077 677.204 341.077 674.948C379.627 674.601 418.177 674.254 456.727 673.907C533.827 673.212 583.86 672.865 606.826 672.865ZM369.62 690.565C409.975 690.565 450.329 690.565 490.684 690.565C531.038 690.565 571.393 690.565 611.747 690.565C611.911 713.124 612.075 735.682 612.239 758.241C612.403 780.799 612.567 803.358 612.731 825.916C572.213 826.09 531.694 826.263 491.176 826.437C450.657 826.61 410.139 826.784 369.62 826.957C369.62 804.225 369.62 781.493 369.62 758.761C369.62 736.029 369.62 713.297 369.62 690.565ZM304.659 818.628C306.956 819.496 309.253 820.363 311.549 821.231C316.142 822.966 319.751 823.834 322.376 823.834C325.001 823.834 327.133 823.313 328.774 822.272C329.594 821.752 330.414 821.231 331.234 820.71C332.055 822.446 332.875 824.181 333.695 825.916C335.335 829.387 339.108 833.378 345.014 837.89C350.919 842.401 354.692 845.525 356.333 847.26C357.973 848.995 358.794 850.557 358.794 851.945C358.794 853.333 355.185 854.375 347.967 855.069C340.749 855.763 332.055 853.854 321.884 849.342C311.713 844.831 305.808 841.187 304.167 838.41C302.527 835.634 302.199 831.643 303.183 826.437C303.675 823.834 304.167 821.231 304.659 818.628ZM218.045 825.916C219.357 826.61 220.67 827.304 221.982 827.998C224.607 829.387 228.38 830.081 233.301 830.081C238.222 830.081 241.503 831.643 243.143 834.766C244.784 837.89 247.573 841.36 251.51 845.178C255.447 848.995 258.071 851.078 259.384 851.425C260.696 851.772 261.844 852.986 262.829 855.069C263.321 856.11 263.813 857.151 264.305 858.192C261.68 858.886 259.056 859.58 256.431 860.275C251.182 861.663 243.472 860.448 233.301 856.63C223.13 852.813 217.061 849.516 215.092 846.739C213.124 843.963 213.124 839.798 215.092 834.245C216.076 831.469 217.061 828.693 218.045 825.916ZM673.263 840.492C680.153 842.575 687.535 843.269 695.409 842.575C699.346 842.228 703.283 841.881 707.22 841.534C707.384 845.004 707.548 848.475 707.712 851.945C708.04 858.886 707.056 862.704 704.759 863.398C702.463 864.092 697.705 864.266 690.488 863.919C683.27 863.572 673.263 862.53 660.468 860.795C647.672 859.06 640.947 856.977 640.291 854.548C639.634 852.119 641.767 849.863 646.688 847.781C651.61 845.698 655.547 843.442 658.499 841.013C661.452 838.584 666.373 838.41 673.263 840.492Z" fill="#000000" fill-rule="nonzero" opacity="1" stroke="none" vectornator:layerName="Courbe 1"/>
</g>
</svg>
