<?xml version="1.0" encoding="UTF-8" standalone="no"?>
<!DOCTYPE svg PUBLIC "-//W3C//DTD SVG 1.1//EN" "http://www.w3.org/Graphics/SVG/1.1/DTD/svg11.dtd">
<!-- Created with Vectornator (http://vectornator.io/) -->
<svg height="100%" stroke-miterlimit="10" style="fill-rule:nonzero;clip-rule:evenodd;stroke-linecap:round;stroke-linejoin:round;" version="1.1" viewBox="0 0 1024 1024" width="100%" xml:space="preserve" xmlns="http://www.w3.org/2000/svg" xmlns:vectornator="http://vectornator.io" xmlns:xlink="http://www.w3.org/1999/xlink">
<defs/>
<clipPath id="ArtboardFrame">
<rect height="1024" width="1024" x="0" y="0"/>
</clipPath>
<g clip-path="url(#ArtboardFrame)" id="Calque-1" vectornator:layerName="Calque 1">
<path d="M-1.13687e-13 512C-1.13687e-13 229.23 229.23 5.68434e-14 512 5.68434e-14C794.77 5.68434e-14 1024 229.23 1024 512C1024 794.77 794.77 1024 512 1024C229.23 1024-1.13687e-13 794.77-1.13687e-13 512Z" fill="#efc800" fill-rule="nonzero" opacity="1" stroke="#000000" stroke-linecap="butt" stroke-linejoin="round" stroke-width="1.15935" vectornator:layerName="Ovale 1"/>
<path d="M174.289 362.84C174.289 307.509 219.143 262.654 274.474 262.654C329.805 262.654 374.66 307.509 374.66 362.84C374.66 418.17 329.805 463.025 274.474 463.025C219.143 463.025 174.289 418.17 174.289 362.84Z" fill="#000000" fill-rule="nonzero" opacity="1" stroke="#000000" stroke-linecap="butt" stroke-linejoin="round" stroke-width="1.15935" vectornator:layerName="Ovale 2"/>
<path d="M556.586 324.694L829.057 324.694L829.057 405.177L556.586 405.177L556.586 324.694Z" fill="#000000" fill-rule="nonzero" opacity="1" stroke="#000000" stroke-linecap="butt" stroke-linejoin="round" stroke-width="1.15935" vectornator:layerName="Rectangle 1"/>
<path d="M252.258 672.618L794.684 672.618L794.684 841.131L252.258 841.131L252.258 672.618Z" fill="#000000" fill-rule="nonzero" opacity="1" stroke="#000000" stroke-linecap="butt" stroke-linejoin="round" stroke-width="1.15935" vectornator:layerName="Rectangle 2"/>
</g>
</svg>
