<?xml version="1.0" encoding="UTF-8" standalone="no"?>
<!DOCTYPE svg PUBLIC "-//W3C//DTD SVG 1.1//EN" "http://www.w3.org/Graphics/SVG/1.1/DTD/svg11.dtd">
<!-- Created with Vectornator (http://vectornator.io/) -->
<svg height="100%" stroke-miterlimit="10" style="fill-rule:nonzero;clip-rule:evenodd;stroke-linecap:round;stroke-linejoin:round;" version="1.1" viewBox="0 0 600 600" width="100%" xml:space="preserve" xmlns="http://www.w3.org/2000/svg" xmlns:vectornator="http://vectornator.io" xmlns:xlink="http://www.w3.org/1999/xlink">
<defs/>
<g id="Calque-1" vectornator:layerName="Calque 1">
<path d="M534.015 113.209C533.181 117.441 533.806 125.3 535.891 136.787C537.976 148.274 538.81 154.924 538.393 156.738C537.976 158.551 511.497 167.015 458.956 182.129C406.414 197.243 364.715 227.471 333.857 272.814C303 318.156 261.717 340.827 210.01 340.827C158.302 340.827 115.56 359.568 81.7836 397.051C48.007 434.534 29.6592 455.089 26.7402 458.716C23.8213 462.344 22.3618 465.669 22.3618 468.692C22.3618 471.715 24.4468 476.551 28.6167 483.201C32.7867 489.851 36.1226 492.874 38.6246 492.27C41.1266 491.665 59.4744 472.924 93.668 436.045C127.862 399.167 171.438 380.728 224.396 380.728C277.354 380.728 320.722 356.848 354.498 309.087C388.275 261.327 427.89 231.099 473.342 218.403C496.068 212.055 518.795 205.707 541.521 199.359C542.355 205.707 543.189 212.055 544.023 218.403C545.691 231.099 546.942 238.958 547.776 241.981C548.61 245.004 549.444 246.515 550.278 246.515C551.112 246.515 557.575 230.192 569.668 197.546C581.761 164.899 580.093 141.926 564.664 128.626C549.235 115.325 540.478 108.373 538.393 107.768C536.308 107.164 534.849 108.977 534.015 113.209ZM535.266 110.489C543.189 117.139 551.112 123.789 559.035 130.439C574.88 143.74 577.799 163.992 567.791 191.198C562.787 204.8 557.784 218.403 552.78 232.006C551.946 225.96 551.112 219.914 550.278 213.869C548.61 201.778 547.567 195.127 547.15 193.918C546.733 192.709 545.482 192.105 543.397 192.105C541.312 192.105 517.961 198.755 473.342 212.055C428.724 225.355 404.746 232.913 401.41 234.726C398.074 236.54 381.186 260.118 350.745 305.46C320.305 350.802 279.022 373.473 226.898 373.473C174.774 373.473 148.294 372.869 147.46 371.659C146.626 370.45 128.487 389.192 93.0425 427.884C57.5979 466.576 37.7906 482.899 33.6207 476.853C29.4507 470.808 27.3657 467.18 27.3657 465.971C27.3657 464.762 34.2462 457.205 48.007 443.3C61.7678 429.395 79.6986 409.747 101.799 384.355C123.9 358.964 160.179 346.57 210.635 347.175C261.092 347.779 302.583 324.806 335.108 278.255C367.634 231.703 410.167 201.475 462.709 187.57C515.25 173.665 541.729 165.202 542.146 162.179C542.563 159.156 541.521 149.785 539.019 134.067C537.768 126.207 536.517 118.348 535.266 110.489Z" fill="#000000" fill-rule="nonzero" opacity="1" stroke="none" vectornator:layerName="Courbe 1"/>
</g>
</svg>
