<?xml version="1.0" encoding="UTF-8" standalone="no"?>
<!DOCTYPE svg PUBLIC "-//W3C//DTD SVG 1.1//EN" "http://www.w3.org/Graphics/SVG/1.1/DTD/svg11.dtd">
<!-- Created with Vectornator (http://vectornator.io/) -->
<svg height="100%" stroke-miterlimit="10" style="fill-rule:nonzero;clip-rule:evenodd;stroke-linecap:round;stroke-linejoin:round;" version="1.1" viewBox="0 0 512 512" width="100%" xml:space="preserve" xmlns="http://www.w3.org/2000/svg" xmlns:vectornator="http://vectornator.io" xmlns:xlink="http://www.w3.org/1999/xlink">
<defs/>
<g id="Calque-1" vectornator:layerName="Calque 1">
<path d="M212.902 21.3775C201.614 23.4506 186.222 28.6334 166.725 36.9258C147.229 45.2181 126.193 59.2115 103.618 78.9059C81.0425 98.6003 63.085 121.404 49.7451 147.318C36.4052 173.232 28.1961 193.963 25.1176 209.511C22.0392 225.059 20.5 241.644 20.5 259.265C20.5 276.886 24.0915 298.654 31.2745 324.568C38.4575 350.481 50.7712 375.358 68.2157 399.199C85.6601 423.04 100.026 439.106 111.314 447.398C122.601 455.691 137.48 463.983 155.951 472.276C174.422 480.568 198.536 486.269 228.294 489.379C258.052 492.488 279.601 493.007 292.941 490.933C306.281 488.86 321.16 484.714 337.578 478.495C353.997 472.276 369.389 464.501 383.755 455.173C398.121 445.844 410.948 435.478 422.235 424.076C433.523 412.674 446.35 394.016 460.716 368.103C475.082 342.189 483.804 321.976 486.882 307.465C489.961 292.953 491.5 275.85 491.5 256.155C491.5 236.461 489.961 218.84 486.882 203.292C483.804 187.743 478.673 171.677 471.49 155.092C464.307 138.507 450.967 119.331 431.471 97.5638C411.974 75.7963 388.886 58.175 362.206 44.6999C335.526 31.2247 306.794 23.4506 276.01 21.3775C245.225 19.3045 224.19 19.3045 212.902 21.3775ZM266.775 32.2613C289.35 33.2978 310.899 37.444 331.422 44.6999C351.944 51.9557 368.363 59.7298 380.676 68.0222C392.99 76.3145 407.356 90.3079 423.775 110.002C440.193 129.697 453.02 151.464 462.255 175.305C471.49 199.145 476.621 221.431 477.647 242.162C478.673 262.893 476.108 285.179 469.951 309.019C463.794 332.86 454.046 355.146 440.706 375.877C427.366 396.608 419.67 406.973 417.618 406.973C415.565 406.973 413 402.827 409.922 394.535C406.843 386.242 399.66 375.877 388.373 363.438C377.085 351 366.31 341.152 356.049 333.897C345.788 326.641 334.5 321.458 322.186 318.348C316.029 316.793 309.873 315.239 303.716 313.684C308.333 309.538 312.951 305.391 317.569 301.245C326.804 292.953 333.474 285.179 337.578 277.923C341.683 270.667 344.761 256.674 346.814 235.943C348.866 215.212 347.84 199.664 343.735 189.298C339.631 178.933 333.474 169.086 325.265 159.757C317.056 150.428 304.742 142.654 288.324 136.434C271.905 130.215 258.565 127.624 248.304 128.66C238.042 129.697 228.294 132.288 219.059 136.434C209.824 140.58 201.614 146.281 194.431 153.537C187.248 160.793 181.092 170.64 175.961 183.079C170.83 195.517 167.752 207.956 166.725 220.395C165.699 232.833 166.212 242.68 168.265 249.936C170.317 257.192 174.422 266.003 180.578 276.368C186.735 286.734 194.431 295.544 203.667 302.8C208.284 306.428 212.902 310.056 217.52 313.684C210.85 315.239 204.18 316.793 197.51 318.348C184.17 321.458 171.856 326.641 160.569 333.897C149.281 341.152 136.454 355.664 122.088 377.432C114.905 388.315 107.722 399.199 100.539 410.083C94.8954 404.382 89.2516 398.681 83.6078 392.98C72.3203 381.578 63.598 369.657 57.4412 357.219C51.2843 344.78 45.6405 328.196 40.5098 307.465C35.3791 286.734 33.3268 266.003 34.3529 245.272C35.3791 224.541 37.9444 206.919 42.049 192.408C46.1536 177.896 52.8235 162.348 62.0588 145.763C71.2941 129.178 83.6078 113.112 99 97.5638C114.392 82.0156 130.297 69.577 146.716 60.2481C163.134 50.9191 181.605 43.6633 202.127 38.4806C222.65 33.2978 244.199 31.2247 266.775 32.2613ZM256 142.654C263.183 142.654 272.418 144.727 283.706 148.873C294.993 153.019 304.742 159.238 312.951 167.531C321.16 175.823 327.317 185.152 331.422 195.517C335.526 205.883 337.578 216.767 337.578 228.169C337.578 239.571 336.039 249.418 332.961 257.71C329.882 266.003 323.725 274.813 314.49 284.142C305.255 293.471 296.533 299.69 288.324 302.8C280.114 305.91 270.366 307.465 259.078 307.465C247.791 307.465 236.503 304.873 225.216 299.69C213.928 294.508 205.206 288.288 199.049 281.033C192.892 273.777 187.761 264.448 183.657 253.046C179.552 241.644 177.5 230.242 177.5 218.84C177.5 207.438 179.039 198.109 182.118 190.853C185.196 183.597 190.84 175.823 199.049 167.531C207.258 159.238 217.007 153.019 228.294 148.873C239.582 144.727 248.817 142.654 256 142.654ZM263.696 319.903C280.114 319.903 296.533 322.495 312.951 327.677C329.369 332.86 345.275 342.189 360.667 355.664C376.059 369.139 387.346 383.651 394.529 399.199C401.712 414.747 395.042 429.259 374.52 442.734C353.997 456.209 334.5 465.538 316.029 470.721C297.559 475.903 274.471 477.977 246.765 476.94C219.059 475.903 194.944 471.239 174.422 462.947C153.899 454.654 136.967 445.325 123.627 434.96C110.288 424.594 105.157 416.302 108.235 410.083C111.314 403.863 123.627 389.87 145.176 368.103C166.725 346.335 187.761 332.86 208.284 327.677C228.807 322.495 247.278 319.903 263.696 319.903Z" fill="#ffffff" fill-rule="nonzero" opacity="1" stroke="#fafafa" stroke-linecap="butt" stroke-linejoin="round" stroke-width="27.5111" vectornator:layerName="Courbe 1"/>
</g>
</svg>
