<?xml version="1.0" encoding="UTF-8" standalone="no"?>
<!DOCTYPE svg PUBLIC "-//W3C//DTD SVG 1.1//EN" "http://www.w3.org/Graphics/SVG/1.1/DTD/svg11.dtd">
<!-- Created with Vectornator (http://vectornator.io/) -->
<svg height="100%" stroke-miterlimit="10" style="fill-rule:nonzero;clip-rule:evenodd;stroke-linecap:round;stroke-linejoin:round;" version="1.1" viewBox="0 0 512 512" width="100%" xml:space="preserve" xmlns="http://www.w3.org/2000/svg" xmlns:vectornator="http://vectornator.io" xmlns:xlink="http://www.w3.org/1999/xlink">
<defs/>
<g id="Calque-1" vectornator:layerName="Calque 1">
<path d="M110.141 11.5354C98.9979 14.521 89.7119 18.1038 82.2831 22.2837C74.8544 26.4635 65.8337 33.9276 55.2212 44.6758C44.6087 55.4241 37.1799 64.381 32.9349 71.5465C28.6899 78.712 24.7102 87.3703 20.9958 97.5214C17.2815 107.673 14.363 120.809 12.2405 136.932C10.118 153.054 10.3833 172.461 13.0365 195.151C15.6896 217.842 21.2612 239.936 29.7512 261.432C38.2412 282.929 49.6496 304.425 63.9766 325.922C78.3035 347.418 90.5079 363.839 100.59 375.184C110.672 386.53 124.999 400.861 143.57 418.177C162.142 435.494 184.429 454.005 210.429 473.71C236.43 493.415 251.022 503.566 254.206 504.163C257.39 504.761 269.594 497.297 290.819 481.771C312.044 466.246 332.208 450.124 351.311 433.404C370.413 416.685 387.658 399.965 403.047 383.246C418.435 366.526 431.435 350.702 442.048 335.774C452.66 320.846 462.211 305.022 470.701 288.303C479.191 271.583 485.824 255.162 490.6 239.04C495.376 222.918 498.559 205.9 500.151 187.986C501.743 170.072 501.478 153.054 499.355 136.932C497.233 120.809 493.518 106.18 488.212 93.043C482.906 79.9062 475.477 67.3666 465.926 55.4241C456.374 43.4816 448.415 35.1218 442.048 30.3449C435.68 25.5679 427.721 21.0894 418.169 16.9095C408.618 12.7297 396.414 10.0426 381.556 8.84836C366.699 7.65411 352.902 8.84836 340.167 12.4311C327.432 16.0139 315.759 21.0894 305.146 27.6578C294.534 34.2262 283.39 43.183 271.717 54.5284C260.043 65.8738 249.961 66.7695 241.471 57.2155C232.981 47.6615 222.368 38.7046 209.633 30.3449C196.898 21.9851 186.021 16.3124 177 13.3268C167.979 10.3412 157.367 8.54979 145.162 7.95267C132.958 7.35554 121.284 8.54979 110.141 11.5354ZM145.162 24.075C156.305 24.6722 168.775 27.9564 182.571 33.9276C196.368 39.8988 206.98 45.8701 214.409 51.8413C221.838 57.8126 229.797 66.1723 238.287 76.9206C246.777 87.6688 252.614 93.043 255.798 93.043C258.982 93.043 264.818 87.6688 273.309 76.9206C281.799 66.1723 292.411 56.3198 305.146 47.3629C317.881 38.406 330.616 32.1362 343.351 28.5535C356.086 24.9707 367.76 23.4779 378.372 24.075C388.985 24.6722 397.74 26.165 404.638 28.5535C411.537 30.942 419.496 35.1218 428.517 41.0931C437.537 47.0643 446.027 54.827 453.987 64.381C461.946 73.935 468.579 84.9818 473.885 97.5214C479.191 110.061 482.64 120.511 484.232 128.87C485.824 137.23 486.09 153.353 485.028 177.238C483.967 201.123 481.049 220.828 476.273 236.353C471.497 251.878 464.865 267.702 456.374 283.824C447.884 299.947 439.129 314.278 430.109 326.817C421.088 339.357 408.883 353.987 393.495 370.706C378.107 387.426 362.719 402.652 347.331 416.386C331.943 430.12 313.105 445.347 290.819 462.066C268.533 478.786 251.818 483.563 240.675 476.397C229.532 469.232 214.409 457.886 195.306 442.361C176.204 426.836 154.714 406.832 130.835 382.35C106.957 357.868 88.3853 335.774 75.1197 316.069C61.854 296.364 51.5068 277.555 44.0781 259.641C36.6493 241.727 31.6084 226.202 28.9552 213.065C26.3021 199.928 24.9755 184.702 24.9755 167.385C24.9755 150.068 26.0368 136.335 28.1593 126.183C30.2818 116.032 32.9349 107.075 36.1187 99.3128C39.3024 91.5502 42.4862 84.9818 45.67 79.6077C48.8537 74.2335 55.4865 66.4709 65.5684 56.3198C75.6503 46.1687 85.7322 38.7046 95.8141 33.9276C105.896 29.1506 113.855 26.165 119.692 24.9707C125.529 23.7765 134.019 23.4779 145.162 24.075ZM336.188 55.4241C329.29 57.8126 323.187 60.7982 317.881 64.381C312.575 67.9637 308.33 71.5465 305.146 75.1292C301.962 78.712 299.84 82.2947 298.779 85.8775C298.248 87.6688 297.717 89.4602 297.187 91.2516C298.248 90.953 299.309 90.6545 300.37 90.3559C302.493 89.7588 304.615 87.6688 306.738 84.0861C308.86 80.5033 313.371 76.3235 320.269 71.5465C327.167 66.7695 333.535 63.1867 339.371 60.7982C345.208 58.4097 351.841 57.2155 359.27 57.2155C362.984 57.2155 366.699 57.2155 370.413 57.2155C369.617 56.3198 368.821 55.4241 368.025 54.5284C366.433 52.737 362.454 51.8413 356.086 51.8413C349.719 51.8413 343.086 53.0356 336.188 55.4241ZM392.699 61.6939C392.699 63.4853 395.087 65.5752 399.863 67.9637C402.251 69.158 404.638 70.3522 407.026 71.5465C405.7 69.7551 404.373 67.9637 403.047 66.1723C400.393 62.5896 398.006 60.4997 395.883 59.9025C394.822 59.604 393.761 59.3054 392.699 59.0068C392.699 59.9025 392.699 60.7982 392.699 61.6939ZM323.453 411.908C311.248 423.85 303.024 431.016 298.779 433.404C294.534 435.793 291.615 438.48 290.023 441.465C289.227 442.958 288.431 444.451 287.635 445.944C292.676 442.66 297.717 439.375 302.758 436.091C312.84 429.523 321.595 422.357 329.024 414.595C336.453 406.832 340.433 401.458 340.963 398.472C341.229 396.98 341.494 395.487 341.759 393.994C335.657 399.965 329.555 405.936 323.453 411.908Z" fill="#ffffff" fill-rule="nonzero" opacity="1" stroke="#ffffff" stroke-linecap="butt" stroke-linejoin="round" stroke-width="15.5187" vectornator:layerName="Courbe 1"/>
</g>
</svg>
