<?xml version="1.0" encoding="UTF-8" standalone="no"?>
<!DOCTYPE svg PUBLIC "-//W3C//DTD SVG 1.1//EN" "http://www.w3.org/Graphics/SVG/1.1/DTD/svg11.dtd">
<!-- Created with Vectornator (http://vectornator.io/) -->
<svg height="100%" stroke-miterlimit="10" style="fill-rule:nonzero;clip-rule:evenodd;stroke-linecap:round;stroke-linejoin:round;"  version="1.1" viewBox="0 0 1000 1000" width="100%" xml:space="preserve" xmlns="http://www.w3.org/2000/svg" xmlns:vectornator="http://vectornator.io" xmlns:xlink="http://www.w3.org/1999/xlink">
<defs/>
<g id="Calque-1" vectornator:layerName="Calque 1" >
<path  d="M469.322 18.8976C459.305 19.8083 446.328 22.085 430.391 25.7276C414.454 29.3703 400.111 33.696 387.362 38.7046C374.613 43.7133 361.408 50.088 347.748 57.8286C334.088 65.5693 321.794 73.7653 310.866 82.4166C299.938 91.068 290.831 99.0363 283.546 106.322C276.261 113.607 268.292 123.169 259.641 135.008C250.99 146.846 243.021 159.823 235.736 173.939C228.451 188.054 222.531 202.169 217.978 216.285C213.425 230.4 210.01 244.743 207.733 259.314C205.456 273.884 204.318 287.772 204.318 300.977C204.318 314.181 205.001 326.02 206.367 336.493C207.733 346.965 210.465 359.715 214.563 374.741C218.661 389.767 223.67 403.882 229.589 417.087C235.508 430.291 240.745 440.764 245.298 448.505C249.851 456.245 257.137 466.49 267.154 479.24C277.171 491.989 287.416 503.372 297.889 513.39C308.362 523.407 318.151 531.831 327.258 538.661C336.365 545.491 347.52 552.776 360.725 560.517C373.93 568.257 380.987 572.128 381.898 572.128C382.353 572.128 382.809 572.128 383.264 572.128C383.264 571.445 383.264 570.762 383.264 570.079C383.264 568.713 378.255 565.525 368.238 560.517C358.221 555.508 346.382 547.995 332.722 537.978C319.062 527.96 304.719 514.983 289.693 499.047C274.667 483.11 261.69 466.263 250.762 448.505C239.834 430.747 231.866 415.493 226.857 402.744C221.848 389.994 217.523 374.968 213.88 357.666C210.237 340.363 208.416 321.467 208.416 300.977C208.416 280.487 209.782 263.184 212.514 249.069C215.246 234.953 218.889 221.521 223.442 208.772C227.995 196.022 233.004 184.411 238.468 173.939C243.932 163.466 253.266 149.578 266.471 132.276C279.676 114.973 295.385 99.264 313.598 85.1486C331.811 71.0333 351.391 59.1946 372.336 49.6326C393.281 40.0706 411.039 33.4683 425.61 29.8256C440.181 26.183 454.068 23.6786 467.273 22.3126C480.478 20.9466 498.008 20.9466 519.864 22.3126C541.72 23.6786 557.884 25.5 568.357 27.7766C578.83 30.0533 589.985 33.2406 601.824 37.3386C613.663 41.4366 625.501 46.4453 637.34 52.3646C649.179 58.284 660.107 64.6586 670.124 71.4886C680.141 78.3186 692.891 89.4743 708.372 104.956C723.853 120.437 737.058 138.423 747.986 158.913C758.914 179.403 766.655 195.795 771.208 208.089C775.761 220.383 779.404 232.449 782.136 244.288C784.868 256.126 786.689 273.884 787.6 297.562C788.511 321.239 787.828 339.68 785.551 352.885C783.274 366.089 780.77 377.017 778.038 385.669C775.306 394.32 772.346 402.516 769.159 410.257C765.972 417.997 760.963 427.787 754.133 439.626C747.303 451.464 740.245 462.165 732.96 471.727C725.675 481.289 716.34 491.761 704.957 503.145C693.574 514.528 677.637 527.505 657.147 542.076C646.902 549.361 636.657 556.646 626.412 563.932C626.867 560.061 627.323 556.191 627.778 552.321C628.689 544.58 628.233 538.205 626.412 533.197C624.591 528.188 621.403 523.635 616.85 519.537C612.297 515.439 606.605 511.568 599.775 507.926C592.945 504.283 588.619 502.462 586.798 502.462C584.977 502.462 582.928 501.323 580.651 499.047C578.374 496.77 577.008 493.355 576.553 488.802C576.098 484.248 576.553 478.101 577.919 470.361C579.285 462.62 579.513 450.326 578.602 433.479C577.691 416.631 575.87 404.565 573.138 397.28C570.406 389.994 567.446 383.847 564.259 378.839C561.072 373.83 557.201 369.504 552.648 365.862C548.095 362.219 543.997 359.715 540.354 358.349C536.711 356.983 525.1 356.3 505.521 356.3C485.942 356.3 473.648 357.21 468.639 359.032C463.63 360.853 458.166 365.406 452.247 372.692C446.328 379.977 442.002 387.262 439.27 394.548C436.538 401.833 435.172 418.453 435.172 444.407C435.172 470.361 434.717 485.614 433.806 490.168C432.895 494.721 431.302 498.591 429.025 501.779C426.748 504.966 421.057 510.202 411.95 517.488C402.843 524.773 396.469 531.148 392.826 536.612C389.183 542.076 386.907 546.857 385.996 550.955C385.085 555.053 385.085 559.834 385.996 565.298C386.907 570.762 386.224 574.404 383.947 576.226C381.67 578.047 379.166 581.462 376.434 586.471C373.702 591.479 371.653 600.586 370.287 613.791C368.921 626.995 364.595 640.2 357.31 653.405C350.025 666.609 345.699 675.716 344.333 680.725C342.967 685.733 339.324 693.929 333.405 705.313C330.445 711.004 327.486 716.696 324.526 722.388C321.794 721.022 319.062 719.656 316.33 718.29C310.866 715.558 301.759 709.183 289.01 699.166C276.261 689.148 259.413 677.537 238.468 664.333C217.523 651.128 200.675 638.834 187.926 627.451C175.177 616.067 165.615 609.693 159.24 608.327C152.865 606.961 146.263 606.278 139.433 606.278C132.603 606.278 128.733 607.416 127.822 609.693C126.911 611.969 127.594 614.018 129.871 615.84C132.148 617.661 135.107 619.027 138.75 619.938C140.571 620.393 142.393 620.848 144.214 621.304C140.571 622.214 136.929 623.125 133.286 624.036C126.001 625.857 120.081 627.678 115.528 629.5C110.975 631.321 108.698 632.687 108.698 633.598C108.698 634.053 108.698 634.508 108.698 634.964C115.528 632.459 122.358 629.955 129.188 627.451C142.848 622.442 150.133 620.165 151.044 620.621C151.499 620.848 151.955 621.076 152.41 621.304C152.41 620.621 152.41 619.938 152.41 619.255C152.41 618.572 152.41 617.889 152.41 617.206C151.044 617.433 149.678 617.661 148.312 617.889C145.58 618.344 141.937 617.889 137.384 616.523C132.831 615.157 130.554 613.563 130.554 611.742C130.554 610.831 130.554 609.92 130.554 609.01C136.246 609.465 141.937 609.92 147.629 610.376C159.012 611.286 166.525 612.88 170.168 615.157C173.811 617.433 179.73 622.67 187.926 630.866C196.122 639.062 212.969 651.356 238.468 667.748C263.967 684.14 282.863 697.117 295.157 706.679C307.451 716.241 315.647 721.705 319.745 723.071C323.843 724.437 328.624 720.111 334.088 710.094C339.552 700.076 343.422 691.425 345.699 684.14C347.976 676.854 352.757 666.609 360.042 653.405C367.327 640.2 371.653 626.995 373.019 613.791C374.385 600.586 376.434 591.479 379.166 586.471C381.898 581.462 386.451 577.364 392.826 574.177C399.201 570.989 409.218 569.168 422.878 568.713C429.708 568.485 436.538 568.257 443.368 568.03C438.359 582.145 433.351 596.26 428.342 610.376C423.333 624.491 418.325 638.606 413.316 652.722C411.039 647.258 408.763 641.794 406.486 636.33C401.933 625.402 398.973 619.482 397.607 618.572C396.924 618.116 396.241 617.661 395.558 617.206C396.696 620.848 397.835 624.491 398.973 628.134C401.25 635.419 403.526 640.883 405.803 644.526C408.08 648.168 409.446 651.811 409.901 655.454C410.356 659.096 409.673 662.511 407.852 665.699C406.031 668.886 405.803 672.301 407.169 675.944C408.535 679.586 401.705 693.702 386.679 718.29C371.653 742.878 361.18 758.587 355.261 765.417C349.342 772.247 343.878 775.662 338.869 775.662C333.86 775.662 329.762 774.979 326.575 773.613C323.388 772.247 315.419 767.693 302.67 759.953C289.921 752.212 279.676 745.154 271.935 738.78C264.194 732.405 258.503 726.941 254.86 722.388C251.217 717.834 244.387 711.915 234.37 704.63C224.353 697.344 212.286 687.327 198.171 674.578C184.056 661.828 173.583 655.454 166.753 655.454C159.923 655.454 155.597 655.909 153.776 656.82C151.955 657.73 145.58 657.958 134.652 657.503C123.724 657.047 117.577 654.543 116.211 649.99C115.528 647.713 114.845 645.436 114.162 643.16C115.983 644.981 117.805 646.802 119.626 648.624C123.269 652.266 126.001 654.088 127.822 654.088C129.643 654.088 131.92 652.494 134.652 649.307C137.384 646.119 141.71 642.704 147.629 639.062C153.548 635.419 159.923 633.598 166.753 633.598C170.168 633.598 173.583 633.598 176.998 633.598C173.811 633.142 170.623 632.687 167.436 632.232C161.061 631.321 154.231 632.915 146.946 637.013C139.661 641.111 134.88 644.526 132.603 647.258C130.326 649.99 128.505 651.356 127.139 651.356C125.773 651.356 123.952 649.534 121.675 645.892C119.398 642.249 116.439 639.745 112.796 638.379C109.153 637.013 107.332 635.419 107.332 633.598C107.332 631.776 106.194 629.5 103.917 626.768C101.64 624.036 99.5912 622.442 97.7699 621.987C95.9486 621.531 94.3549 621.759 92.9889 622.67C91.6229 623.58 90.7122 626.085 90.2569 630.183C89.8016 634.281 90.0292 637.696 90.9399 640.428C91.8506 643.16 95.4932 647.485 101.868 653.405C108.243 659.324 121.903 661.373 142.848 659.552C163.793 657.73 181.324 663.194 195.439 675.944C209.554 688.693 219.572 696.889 225.491 700.532C231.41 704.174 241.883 713.053 256.909 727.169C271.935 741.284 288.099 753.35 305.402 763.368C322.705 773.385 333.86 778.394 338.869 778.394C343.878 778.394 348.431 776.572 352.529 772.93C356.627 769.287 367.1 753.806 383.947 726.486C392.371 712.826 400.794 699.166 409.218 685.506C411.95 695.978 414.682 706.451 417.414 716.924C422.878 737.869 419.463 757.448 407.169 775.662C394.875 793.875 386.679 807.99 382.581 818.008C378.483 828.025 373.702 832.806 368.238 832.351C362.774 831.895 354.578 830.074 343.65 826.887C332.722 823.699 318.151 817.325 299.938 807.763C281.725 798.201 268.52 792.964 260.324 792.054C252.128 791.143 245.07 791.826 239.151 794.103C233.232 796.379 229.134 798.656 226.857 800.933C224.58 803.209 222.531 805.941 220.71 809.129C218.889 812.316 217.295 817.552 215.929 824.838C214.563 832.123 214.335 838.498 215.246 843.962C216.157 849.426 220.71 856.483 228.906 865.135C237.102 873.786 243.932 879.705 249.396 882.893C254.86 886.08 271.935 893.138 300.621 904.066C329.307 914.994 349.342 923.417 360.725 929.337C366.417 932.296 372.108 935.256 377.8 938.216C375.751 938.443 373.702 938.671 371.653 938.899C367.555 939.354 363.002 938.443 357.993 936.167C352.984 933.89 348.431 932.524 344.333 932.069C340.235 931.613 337.503 932.069 336.137 933.435C334.771 934.801 334.088 937.077 334.088 940.265C334.088 943.452 334.543 945.273 335.454 945.729C336.365 946.184 336.592 947.322 336.137 949.144C335.682 950.965 336.137 954.152 337.503 958.706C338.869 963.259 342.739 967.357 349.114 971C355.489 974.642 363.002 977.602 371.653 979.879C380.304 982.155 389.411 982.611 398.973 981.245C408.535 979.879 419.008 977.374 430.391 973.732C441.774 970.089 452.93 968.268 463.858 968.268C474.786 968.268 490.04 966.902 509.619 964.17C529.198 961.438 543.086 960.527 551.282 961.438C559.478 962.348 569.04 965.08 579.968 969.634C590.896 974.187 599.092 976.919 604.556 977.83C610.02 978.74 615.939 978.74 622.314 977.83C628.689 976.919 634.608 975.098 640.072 972.366C645.536 969.634 648.951 966.674 650.317 963.487C651.683 960.299 651.683 957.567 650.317 955.291C648.951 953.014 648.723 949.599 649.634 945.046C650.545 940.492 650.317 937.76 648.951 936.85C647.585 935.939 642.804 935.484 634.608 935.484C630.51 935.484 626.412 935.484 622.314 935.484C636.657 930.02 651 924.556 665.343 919.092C694.029 908.164 711.559 900.878 717.934 897.236C724.309 893.593 730.228 889.723 735.692 885.625C741.156 881.527 746.62 876.063 752.084 869.233C757.548 862.403 760.735 854.434 761.646 845.328C762.557 836.221 762.101 829.391 760.28 824.838C758.459 820.284 754.816 815.503 749.352 810.495C743.888 805.486 739.335 802.299 735.692 800.933C732.049 799.567 727.951 798.884 723.398 798.884C718.845 798.884 707.689 802.982 689.931 811.178C672.173 819.374 656.919 825.065 644.17 828.253C631.421 831.44 623.908 830.302 621.631 824.838C619.354 819.374 615.256 813.227 609.337 806.397C603.418 799.567 596.588 788.411 588.847 772.93C581.106 757.448 577.236 747.886 577.236 744.244C577.236 740.601 579.74 729.901 584.749 712.143C587.253 703.264 589.758 694.385 592.262 685.506C593.4 686.872 594.539 688.238 595.677 689.604C597.954 692.336 602.052 699.849 607.971 712.143C613.89 724.437 621.176 736.958 629.827 749.708C638.478 762.457 644.625 770.425 648.268 773.613C651.911 776.8 656.009 778.394 660.562 778.394C665.115 778.394 672.856 775.889 683.784 770.881C694.712 765.872 702.68 761.091 707.689 756.538C712.698 751.984 717.023 748.797 720.666 746.976C724.309 745.154 728.862 741.284 734.326 735.365C739.79 729.445 756.182 715.102 783.502 692.336C810.822 669.569 830.629 658.869 842.923 660.235C855.217 661.601 865.69 662.056 874.341 661.601C882.992 661.145 890.05 659.096 895.514 655.454C900.978 651.811 904.848 647.258 907.125 641.794C909.402 636.33 910.312 631.549 909.857 627.451C909.629 625.402 909.402 623.353 909.174 621.304C907.58 621.531 905.987 621.759 904.393 621.987C901.206 622.442 898.246 624.719 895.514 628.817C892.782 632.915 886.18 632.915 875.707 628.817C870.471 626.768 865.234 624.719 859.998 622.67C862.502 621.531 865.007 620.393 867.511 619.255C872.52 616.978 875.024 614.929 875.024 613.108C875.024 611.286 873.886 609.693 871.609 608.327C869.332 606.961 865.007 606.278 858.632 606.278C852.257 606.278 846.338 606.961 840.874 608.327C835.41 609.693 827.214 615.384 816.286 625.402C805.358 635.419 790.787 646.119 772.574 657.503C754.361 668.886 743.66 676.171 740.473 679.359C737.286 682.546 731.822 686.189 724.081 690.287C716.34 694.385 707.006 700.759 696.078 709.411C685.15 718.062 679.003 722.16 677.637 721.705C676.271 721.249 675.133 718.973 674.222 714.875C673.311 710.777 666.254 695.978 653.049 670.48C639.844 644.981 632.559 626.768 631.193 615.84C629.827 604.912 627.55 595.577 624.363 587.837C621.176 580.096 620.265 574.86 621.631 572.128C622.997 569.396 626.867 566.436 633.242 563.249C639.617 560.061 649.406 553.687 662.611 544.125C675.816 534.563 688.565 523.862 700.859 512.024C713.153 500.185 723.626 488.802 732.277 477.874C740.928 466.946 748.897 455.107 756.182 442.358C763.467 429.608 770.07 415.038 775.989 398.646C781.908 382.254 786.006 367.455 788.283 354.251C790.56 341.046 791.698 325.565 791.698 307.807C791.698 290.049 790.104 272.518 786.917 255.216C783.73 237.913 779.176 221.293 773.257 205.357C767.338 189.42 761.191 175.532 754.816 163.694C748.441 151.855 743.888 144.342 741.156 141.155C738.424 137.967 737.058 135.235 737.058 132.959C737.058 130.682 732.049 123.852 722.032 112.469C712.015 101.085 702.225 91.5233 692.663 83.7826C683.101 76.042 669.441 67.163 651.683 57.1456C633.925 47.1283 617.761 39.6153 603.19 34.6066C588.619 29.598 573.593 25.7276 558.112 22.9956C542.631 20.2636 526.466 18.67 509.619 18.2146C492.772 17.7593 479.339 17.987 469.322 18.8976ZM448.149 58.5116C429.48 62.1543 411.039 67.846 392.826 75.5866C374.613 83.3273 358.448 92.2063 344.333 102.224C330.218 112.241 316.33 124.535 302.67 139.106C289.01 153.676 277.171 169.841 267.154 187.599C257.137 205.357 250.307 219.472 246.664 229.945C243.021 240.417 240.062 251.345 237.785 262.729C235.508 274.112 234.37 290.504 234.37 311.905C234.37 333.305 236.191 351.974 239.834 367.911C243.477 383.847 249.396 400.467 257.592 417.77C265.788 435.072 275.122 450.554 285.595 464.214C296.068 477.874 308.134 490.623 321.794 502.462C335.454 514.3 349.569 524.09 364.14 531.831C371.425 535.701 378.711 539.571 385.996 543.442C385.996 542.986 385.996 542.531 385.996 542.076C385.996 541.165 382.353 539.116 375.068 535.929C367.783 532.741 360.27 528.643 352.529 523.635C344.788 518.626 333.86 509.747 319.745 496.998C305.63 484.248 293.791 471.271 284.229 458.067C274.667 444.862 266.471 430.974 259.641 416.404C252.811 401.833 247.575 387.262 243.932 372.692C240.289 358.121 238.013 343.095 237.102 327.614C236.191 312.132 236.647 296.879 238.468 281.853C240.289 266.827 243.704 251.573 248.713 236.092C253.722 220.61 260.324 205.584 268.52 191.014C276.716 176.443 286.733 162.328 298.572 148.668C310.411 135.008 323.16 122.941 336.82 112.469C350.48 101.996 363.457 93.5723 375.751 87.1976C388.045 80.823 402.843 74.9036 420.146 69.4396C437.449 63.9756 454.524 60.333 471.371 58.5116C488.218 56.6903 504.383 56.235 519.864 57.1456C535.345 58.0563 551.965 60.7883 569.723 65.3416C587.481 69.895 600.686 73.993 609.337 77.6356C617.988 81.2783 628.689 86.97 641.438 94.7106C654.187 102.451 663.977 109.054 670.807 114.518C677.637 119.982 686.744 128.861 698.127 141.155C709.51 153.449 718.162 164.149 724.081 173.256C730 182.362 735.464 192.152 740.473 202.625C745.482 213.097 750.035 225.164 754.133 238.824C758.231 252.484 760.963 263.639 762.329 272.291C763.695 280.942 764.378 293.236 764.378 309.173C764.378 325.109 763.695 337.631 762.329 346.738C760.963 355.844 758.459 366.545 754.816 378.839C751.173 391.133 747.075 402.288 742.522 412.306C737.969 422.323 729.545 435.983 717.251 453.286C704.957 470.588 693.346 484.248 682.418 494.266C671.49 504.283 660.107 512.934 648.268 520.22C642.349 523.862 636.429 527.505 630.51 531.148C630.965 531.831 631.421 532.514 631.876 533.197C632.787 534.563 638.251 532.058 648.268 525.684C658.285 519.309 668.986 511.113 680.369 501.096C691.752 491.078 702.908 479.012 713.836 464.897C724.764 450.781 733.415 437.577 739.79 425.283C746.165 412.989 751.856 398.873 756.865 382.937C761.874 367 765.061 353.112 766.427 341.274C767.793 329.435 768.248 316.003 767.793 300.977C767.338 285.951 765.289 270.242 761.646 253.85C758.003 237.458 752.539 221.293 745.254 205.357C737.969 189.42 730.456 175.988 722.715 165.06C714.974 154.132 706.778 144.114 698.127 135.008C689.476 125.901 678.775 116.567 666.026 107.005C653.277 97.4426 640.755 89.4743 628.461 83.0996C616.167 76.725 604.101 71.4886 592.262 67.3906C580.423 63.2926 566.536 59.8776 550.599 57.1456C534.662 54.4136 518.27 53.0476 501.423 53.0476C484.576 53.0476 466.818 54.869 448.149 58.5116ZM497.325 83.7826C497.097 89.9296 496.87 96.0766 496.642 102.224C497.097 102.224 497.553 102.224 498.008 102.224C498.919 102.224 499.602 99.0363 500.057 92.6616C500.512 86.287 500.74 80.5953 500.74 75.5866C500.74 70.578 500.285 67.6183 499.374 66.7076C498.919 66.2523 498.463 65.797 498.008 65.3416C497.78 71.4886 497.553 77.6356 497.325 83.7826ZM388.728 107.688C393.281 116.794 396.469 122.031 398.29 123.397C399.201 124.08 400.111 124.763 401.022 125.446C399.428 121.803 397.835 118.16 396.241 114.518C393.054 107.232 389.866 101.996 386.679 98.8086C385.085 97.215 383.492 95.6213 381.898 94.0276C384.175 98.581 386.451 103.134 388.728 107.688ZM616.167 113.152C610.248 122.258 607.288 127.722 607.288 129.544C607.288 130.454 607.288 131.365 607.288 132.276C610.248 128.633 613.207 124.99 616.167 121.348C622.086 114.062 625.729 109.054 627.095 106.322C628.461 103.59 628.461 101.768 627.095 100.858C626.412 100.402 625.729 99.947 625.046 99.4916C622.086 104.045 619.127 108.598 616.167 113.152ZM321.111 128.861C319.745 130.227 319.517 132.959 320.428 137.057C321.339 141.155 348.659 169.613 402.388 222.432C429.253 248.841 456.117 275.25 482.982 301.66C472.054 308.717 461.126 315.775 450.198 322.833C428.342 336.948 416.731 344.689 415.365 346.055C413.999 347.421 413.316 350.153 413.316 354.251C413.316 358.349 415.593 361.081 420.146 362.447C424.699 363.813 438.359 356.983 461.126 341.957C483.893 326.931 497.325 318.735 501.423 317.369C505.521 316.003 508.025 312.815 508.936 307.807C509.847 302.798 508.936 299.383 506.204 297.562C503.472 295.74 500.74 295.057 498.008 295.513C495.276 295.968 492.999 297.562 491.178 300.294C489.357 303.026 488.901 305.985 489.812 309.173C490.723 312.36 491.861 314.181 493.227 314.637C493.91 314.864 494.593 315.092 495.276 315.32C494.821 316.003 494.365 316.686 493.91 317.369C492.999 318.735 481.616 326.248 459.76 339.908C437.904 353.568 424.927 359.715 420.829 358.349C418.78 357.666 416.731 356.983 414.682 356.3C415.137 354.934 415.593 353.568 416.048 352.202C416.959 349.47 428.57 341.046 450.881 326.931C473.192 312.815 484.348 304.619 484.348 302.343C484.348 300.066 457.483 272.291 403.754 219.017C350.025 165.743 322.932 137.967 322.477 135.691C322.022 133.414 322.249 131.82 323.16 130.91C324.071 129.999 325.664 129.544 327.941 129.544C330.218 129.544 355.489 154.132 403.754 203.308C452.019 252.484 479.112 279.804 485.031 285.268C490.95 290.732 494.365 293.008 495.276 292.098C495.731 291.642 496.187 291.187 496.642 290.732C469.777 263.639 442.913 236.547 416.048 209.455C362.319 155.27 333.405 127.95 329.307 127.495C325.209 127.039 322.477 127.495 321.111 128.861ZM289.693 178.72C290.148 180.541 292.425 182.135 296.523 183.501C300.621 184.867 305.174 187.371 310.183 191.014C315.192 194.656 318.607 196.478 320.428 196.478C321.339 196.478 322.249 196.478 323.16 196.478C323.16 196.022 323.16 195.567 323.16 195.112C323.16 194.656 323.16 194.201 323.16 193.746C322.477 193.746 321.794 193.746 321.111 193.746C319.745 193.746 316.785 191.924 312.232 188.282C307.679 184.639 302.67 181.679 297.206 179.403C294.474 178.264 291.742 177.126 289.01 175.988C289.238 176.898 289.465 177.809 289.693 178.72ZM698.127 197.844C692.891 201.031 687.654 204.218 682.418 207.406C683.556 207.406 684.695 207.406 685.833 207.406C688.11 207.406 692.891 205.584 700.176 201.942C707.461 198.299 712.242 195.567 714.519 193.746C716.796 191.924 717.934 190.558 717.934 189.648C717.934 189.192 717.934 188.737 717.934 188.282C717.251 188.282 716.568 188.282 715.885 188.282C714.519 188.282 708.6 191.469 698.127 197.844ZM500.057 297.562C502.334 297.562 504.383 298.7 506.204 300.977C508.025 303.253 508.253 305.985 506.887 309.173C505.521 312.36 503.927 314.181 502.106 314.637C500.285 315.092 498.008 314.409 495.276 312.588C492.544 310.766 491.178 308.717 491.178 306.441C491.178 304.164 492.089 302.115 493.91 300.294C495.731 298.472 497.78 297.562 500.057 297.562ZM724.081 300.294C711.787 301.204 705.64 302.115 705.64 303.026C705.64 303.481 705.64 303.936 705.64 304.392C712.242 304.164 718.845 303.936 725.447 303.709C738.652 303.253 745.254 302.343 745.254 300.977C745.254 300.294 745.254 299.611 745.254 298.928C744.799 298.928 744.343 298.928 743.888 298.928C742.977 298.928 736.375 299.383 724.081 300.294ZM251.445 300.977C250.079 301.432 249.396 302.343 249.396 303.709C249.396 304.392 249.396 305.075 249.396 305.758C256.454 305.53 263.511 305.302 270.569 305.075C284.684 304.619 291.742 303.936 291.742 303.026C291.742 302.115 289.693 301.432 285.595 300.977C281.497 300.521 275.122 300.294 266.471 300.294C257.82 300.294 252.811 300.521 251.445 300.977ZM532.158 359.715C538.533 361.081 543.997 363.13 548.55 365.862C553.103 368.594 557.884 374.285 562.893 382.937C567.902 391.588 571.544 402.288 573.821 415.038C576.098 427.787 577.236 439.17 577.236 449.188C577.236 459.205 576.553 466.718 575.187 471.727C573.821 476.735 573.366 481.972 573.821 487.436C574.276 492.9 575.187 496.77 576.553 499.047C577.919 501.323 584.066 504.966 594.994 509.975C605.922 514.983 613.663 519.992 618.216 525.001C622.769 530.009 625.274 534.563 625.729 538.661C626.184 542.759 625.729 548.678 624.363 556.419C622.997 564.159 621.631 569.168 620.265 571.445C618.899 573.721 613.89 573.266 605.239 570.079C596.588 566.891 589.075 565.298 582.7 565.298C576.325 565.298 569.04 564.387 560.844 562.566C552.648 560.744 545.59 557.785 539.671 553.687C533.752 549.589 529.881 545.718 528.06 542.076C526.239 538.433 524.873 533.88 523.962 528.416C523.051 522.952 524.19 519.764 527.377 518.854C530.564 517.943 534.435 515.666 538.988 512.024C543.541 508.381 547.412 502.462 550.599 494.266C553.786 486.07 555.38 478.557 555.38 471.727C555.38 464.897 557.201 460.116 560.844 457.384C564.487 454.652 566.763 453.513 567.674 453.969C568.585 454.424 568.812 456.473 568.357 460.116C567.902 463.758 565.853 467.173 562.21 470.361C560.389 471.954 558.567 473.548 556.746 475.142C557.429 475.369 558.112 475.597 558.795 475.825C560.161 476.28 562.665 474.459 566.308 470.361C569.951 466.263 571.772 462.165 571.772 458.067C571.772 453.969 570.634 451.692 568.357 451.237C566.08 450.781 563.348 451.92 560.161 454.652C558.567 456.018 556.974 457.384 555.38 458.75C555.608 454.879 555.835 451.009 556.063 447.139C556.518 439.398 551.054 430.747 539.671 421.185C528.288 411.623 519.864 402.061 514.4 392.499C511.668 387.718 508.936 382.937 506.204 378.156C503.244 381.798 500.285 385.441 497.325 389.084C491.406 396.369 482.527 405.476 470.688 416.404C458.849 427.332 452.93 439.853 452.93 453.969C452.93 461.026 452.93 468.084 452.93 475.142C450.653 472.41 448.377 469.678 446.1 466.946C441.547 461.482 439.27 457.839 439.27 456.018C439.27 455.107 439.27 454.196 439.27 453.286C440.181 453.286 441.091 453.286 442.002 453.286C443.823 453.286 445.872 454.652 448.149 457.384C449.287 458.75 450.426 460.116 451.564 461.482C450.653 459.66 449.743 457.839 448.832 456.018C447.011 452.375 444.506 450.781 441.319 451.237C439.725 451.464 438.132 451.692 436.538 451.92C436.538 445.09 436.538 438.26 436.538 431.43C436.538 417.77 439.042 405.02 444.051 393.182C449.06 381.343 453.613 373.375 457.711 369.277C461.809 365.179 465.907 362.447 470.005 361.081C474.103 359.715 480.705 359.259 489.812 359.715C498.919 360.17 506.659 359.942 513.034 359.032C519.409 358.121 525.783 358.349 532.158 359.715ZM504.838 382.254C505.749 382.254 506.659 383.847 507.57 387.035C508.481 390.222 511.213 394.548 515.766 400.012C518.043 402.744 520.319 405.476 522.596 408.208C521.002 409.118 519.409 410.029 517.815 410.94C514.628 412.761 512.806 414.582 512.351 416.404C512.123 417.314 511.896 418.225 511.668 419.136C512.806 419.363 513.945 419.591 515.083 419.819C517.36 420.274 520.319 419.819 523.962 418.453C527.605 417.087 533.752 420.046 542.403 427.332C551.054 434.617 555.152 443.724 554.697 454.652C554.242 465.58 553.331 474.686 551.965 481.972C550.599 489.257 547.639 496.087 543.086 502.462C538.533 508.836 532.386 513.617 524.645 516.805C516.904 519.992 510.074 521.813 504.155 522.269C498.236 522.724 492.999 522.041 488.446 520.22C483.893 518.398 478.884 515.439 473.42 511.341C467.956 507.243 464.086 503.6 461.809 500.413C459.532 497.225 457.711 491.761 456.345 484.021C454.979 476.28 454.296 466.263 454.296 453.969C454.296 441.675 455.89 433.934 459.077 430.747C462.264 427.559 465.679 425.055 469.322 423.234C472.965 421.412 477.518 420.502 482.982 420.502C488.446 420.502 491.861 419.819 493.227 418.453C494.593 417.087 494.821 415.721 493.91 414.355C492.999 412.989 490.495 412.306 486.397 412.306C484.348 412.306 482.299 412.306 480.25 412.306C480.25 411.85 480.25 411.395 480.25 410.94C480.25 410.029 483.21 406.842 489.129 401.378C495.048 395.914 498.919 391.36 500.74 387.718C502.561 384.075 503.927 382.254 504.838 382.254ZM301.304 403.427C293.108 407.525 287.644 410.94 284.912 413.672C283.546 415.038 282.18 416.404 280.814 417.77C281.725 417.77 282.635 417.77 283.546 417.77C285.367 417.77 287.189 416.859 289.01 415.038C290.831 413.216 295.84 410.484 304.036 406.842C312.232 403.199 316.33 400.695 316.33 399.329C316.33 398.646 316.33 397.963 316.33 397.28C315.875 397.28 315.419 397.28 314.964 397.28C314.053 397.28 309.5 399.329 301.304 403.427ZM678.32 410.94C679.231 412.761 681.735 415.038 685.833 417.77C689.931 420.502 695.167 423.006 701.542 425.283C704.729 426.421 707.917 427.559 711.104 428.698C710.649 428.015 710.193 427.332 709.738 426.649C708.827 425.283 703.136 421.868 692.663 416.404C687.427 413.672 682.19 410.94 676.954 408.208C677.409 409.118 677.865 410.029 678.32 410.94ZM523.279 413.672C524.417 414.127 525.556 414.582 526.694 415.038C524.645 415.493 522.596 415.948 520.547 416.404C518.498 416.859 516.449 417.314 514.4 417.77C515.311 416.859 516.221 415.948 517.132 415.038C518.953 413.216 521.002 412.761 523.279 413.672ZM486.397 414.355C489.584 414.81 491.178 415.493 491.178 416.404C491.178 417.314 488.218 417.997 482.299 418.453C479.339 418.68 476.38 418.908 473.42 419.136C474.786 418.225 476.152 417.314 477.518 416.404C480.25 414.582 483.21 413.899 486.397 414.355ZM510.302 447.139C511.213 452.375 512.123 457.611 513.034 462.848C510.757 462.62 508.481 462.392 506.204 462.165C503.927 461.937 501.651 461.709 499.374 461.482C499.602 462.165 499.829 462.848 500.057 463.531C500.512 464.897 503.017 465.352 507.57 464.897C509.847 464.669 512.123 464.441 514.4 464.214C513.717 458.75 513.034 453.286 512.351 447.822C510.985 436.894 509.847 431.43 508.936 431.43C508.481 431.43 508.025 431.43 507.57 431.43C508.481 436.666 509.391 441.902 510.302 447.139ZM519.864 438.943C519.864 440.309 520.775 441.447 522.596 442.358C524.417 443.268 528.743 443.268 535.573 442.358C542.403 441.447 545.818 440.536 545.818 439.626C545.818 439.17 545.818 438.715 545.818 438.26C542.403 438.715 538.988 439.17 535.573 439.626C528.743 440.536 524.417 440.309 522.596 438.943C521.685 438.26 520.775 437.577 519.864 436.894C519.864 437.577 519.864 438.26 519.864 438.943ZM467.273 440.992C468.639 442.813 472.282 443.724 478.201 443.724C484.12 443.724 487.763 443.268 489.129 442.358C490.495 441.447 491.178 440.536 491.178 439.626C491.178 439.17 491.178 438.715 491.178 438.26C490.267 438.715 489.357 439.17 488.446 439.626C486.625 440.536 482.982 440.992 477.518 440.992C472.054 440.992 468.639 440.536 467.273 439.626C466.59 439.17 465.907 438.715 465.224 438.26C465.907 439.17 466.59 440.081 467.273 440.992ZM436.538 458.75C438.587 461.709 440.636 464.669 442.685 467.629C446.783 473.548 449.743 476.508 451.564 476.508C452.475 476.508 453.385 476.508 454.296 476.508C454.296 479.012 454.296 481.516 454.296 484.021C454.296 489.029 455.434 493.81 457.711 498.364C459.988 502.917 464.541 507.47 471.371 512.024C478.201 516.577 481.388 520.675 480.933 524.318C480.478 527.96 478.656 532.741 475.469 538.661C472.282 544.58 468.639 549.589 464.541 553.687C460.443 557.785 457.711 559.606 456.345 559.151C455.662 558.923 454.979 558.695 454.296 558.468C454.068 559.151 453.841 559.834 453.613 560.517C453.158 561.883 445.189 563.249 429.708 564.615C414.227 565.981 403.754 567.574 398.29 569.396C395.558 570.306 392.826 571.217 390.094 572.128C389.639 568.94 389.183 565.753 388.728 562.566C387.817 556.191 388.273 550.727 390.094 546.174C391.915 541.62 395.33 536.384 400.339 530.465C405.348 524.545 409.446 520.903 412.633 519.537C415.82 518.171 419.691 515.439 424.244 511.341C428.797 507.243 431.757 503.828 433.123 501.096C434.489 498.364 435.4 490.623 435.855 477.874C436.083 471.499 436.31 465.124 436.538 458.75ZM377.8 491.534C374.613 496.998 371.425 502.462 368.238 507.926C369.149 507.47 370.059 507.015 370.97 506.56C372.791 505.649 375.979 501.551 380.532 494.266C385.085 486.98 387.817 482.427 388.728 480.606C389.639 478.784 389.639 477.418 388.728 476.508C388.273 476.052 387.817 475.597 387.362 475.142C384.175 480.606 380.987 486.07 377.8 491.534ZM501.423 481.289C500.74 481.972 500.057 482.655 499.374 483.338C501.423 483.338 503.472 483.338 505.521 483.338C507.57 483.338 509.619 483.338 511.668 483.338C511.668 482.655 511.668 481.972 511.668 481.289C511.668 480.606 511.668 479.923 511.668 479.24C510.302 479.24 508.936 479.24 507.57 479.24C504.838 479.24 502.789 479.923 501.423 481.289ZM605.239 496.315C610.248 506.787 613.663 512.707 615.484 514.073C616.395 514.756 617.305 515.439 618.216 516.122C618.216 515.211 618.216 514.3 618.216 513.39C618.216 511.568 614.801 505.649 607.971 495.632C604.556 490.623 601.141 485.614 597.726 480.606C600.23 485.842 602.735 491.078 605.239 496.315ZM491.861 523.635C496.87 525.001 503.017 525.001 510.302 523.635C513.945 522.952 517.587 522.269 521.23 521.586C521.685 524.545 522.141 527.505 522.596 530.465C523.507 536.384 525.328 541.62 528.06 546.174C530.792 550.727 534.662 554.597 539.671 557.785C544.68 560.972 548.322 562.566 550.599 562.566C551.737 562.566 552.876 562.566 554.014 562.566C553.103 570.762 552.193 578.958 551.282 587.154C549.461 603.546 546.046 614.246 541.037 619.255C536.028 624.263 528.515 627.906 518.498 630.183C508.481 632.459 500.512 633.142 494.593 632.232C488.674 631.321 482.299 629.044 475.469 625.402C468.639 621.759 464.086 618.572 461.809 615.84C459.532 613.108 457.711 609.92 456.345 606.278C454.979 602.635 454.524 594.667 454.979 582.373C455.434 570.079 458.849 560.972 465.224 555.053C471.599 549.133 476.38 542.076 479.567 533.88C482.754 525.684 486.852 522.269 491.861 523.635ZM450.198 565.298C451.564 565.298 452.93 565.298 454.296 565.298C453.841 570.534 453.385 575.77 452.93 581.007C452.019 591.479 452.702 600.131 454.979 606.961C457.256 613.791 462.72 619.938 471.371 625.402C480.022 630.866 487.08 634.053 492.544 634.964C498.008 635.874 506.432 635.191 517.815 632.915C529.198 630.638 537.167 627.678 541.72 624.036C546.273 620.393 549.688 614.018 551.965 604.912C554.242 595.805 555.38 587.154 555.38 578.958C555.38 574.86 555.38 570.762 555.38 566.664C557.201 567.119 559.023 567.574 560.844 568.03C564.487 568.94 567.674 575.77 570.406 588.52C573.138 601.269 577.691 616.75 584.066 634.964C590.441 653.177 593.4 665.471 592.945 671.846C592.49 678.22 589.758 689.148 584.749 704.63C579.74 720.111 576.781 731.039 575.87 737.414C574.959 743.788 549.916 746.52 500.74 745.61C451.564 744.699 424.699 736.048 420.146 719.656C415.593 703.264 412.633 690.514 411.267 681.408C409.901 672.301 412.405 660.235 418.78 645.209C425.155 630.183 431.302 613.108 437.221 593.984C443.14 574.86 447.466 565.298 450.198 565.298ZM567.674 566.664C572.227 567.119 576.781 567.574 581.334 568.03C590.441 568.94 599.092 571.217 607.288 574.86C615.484 578.502 620.72 583.283 622.997 589.203C625.274 595.122 626.867 603.318 627.778 613.791C628.689 624.263 635.291 641.338 647.585 665.016C659.879 688.693 667.62 704.857 670.807 713.509C672.401 717.834 673.994 722.16 675.588 726.486C683.101 721.022 690.614 715.558 698.127 710.094C713.153 699.166 722.487 693.019 726.13 691.653C729.773 690.287 735.692 686.416 743.888 680.042C752.084 673.667 762.329 666.837 774.623 659.552C786.917 652.266 800.349 642.477 814.92 630.183C829.491 617.889 842.468 611.514 853.851 611.059C859.543 610.831 865.234 610.603 870.926 610.376C870.698 611.514 870.471 612.652 870.243 613.791C869.788 616.067 866.145 617.433 859.315 617.889C852.485 618.344 849.07 619.027 849.07 619.938C849.07 620.848 855.9 623.58 869.56 628.134C876.39 630.41 883.22 632.687 890.05 634.964C889.822 635.647 889.595 636.33 889.367 637.013C888.912 638.379 887.546 639.289 885.269 639.745C882.992 640.2 880.943 642.477 879.122 646.575C877.301 650.673 875.935 652.722 875.024 652.722C874.113 652.722 869.56 649.534 861.364 643.16C853.168 636.785 845.427 633.37 838.142 632.915C830.857 632.459 826.759 632.915 825.848 634.281C825.393 634.964 824.937 635.647 824.482 636.33C828.352 636.33 832.223 636.33 836.093 636.33C843.834 636.33 851.802 639.517 859.998 645.892C868.194 652.266 873.203 655.226 875.024 654.771C876.845 654.315 878.667 652.266 880.488 648.624C882.309 644.981 883.903 643.387 885.269 643.843C886.635 644.298 887.318 645.436 887.318 647.258C887.318 649.079 886.407 651.583 884.586 654.771C882.765 657.958 872.292 658.869 853.168 657.503C834.044 656.137 803.764 672.984 762.329 708.045C720.894 743.105 695.167 763.14 685.15 768.149C675.133 773.157 668.075 775.889 663.977 776.345C659.879 776.8 655.098 774.751 649.634 770.198C644.17 765.644 636.885 756.31 627.778 742.195C618.671 728.079 610.703 714.419 603.873 701.215C597.043 688.01 594.083 680.725 594.994 679.359C595.905 677.993 596.36 674.805 596.36 669.797C596.36 664.788 595.677 659.552 594.311 654.088C592.945 648.624 594.083 641.111 597.726 631.549C599.547 626.768 601.369 621.987 603.19 617.206C602.735 617.206 602.279 617.206 601.824 617.206C600.913 617.206 599.775 618.572 598.409 621.304C597.043 624.036 595.222 628.589 592.945 634.964C591.807 638.151 590.668 641.338 589.53 644.526C585.887 631.549 582.245 618.572 578.602 605.595C574.959 592.618 571.317 579.641 567.674 566.664ZM905.076 624.036C905.759 624.263 906.442 624.491 907.125 624.719C908.491 625.174 908.719 627.678 907.808 632.232C907.353 634.508 906.897 636.785 906.442 639.062C906.214 636.557 905.987 634.053 905.759 631.549C905.531 629.044 905.304 626.54 905.076 624.036ZM99.8189 628.134C101.185 628.134 102.323 628.817 103.234 630.183C104.145 631.549 103.917 632.915 102.551 634.281C101.185 635.647 100.73 638.606 101.185 643.16C101.413 645.436 101.64 647.713 101.868 649.99C100.73 648.624 99.5913 647.258 98.4529 645.892C96.1763 643.16 95.4932 639.517 96.4039 634.964C97.3146 630.41 98.4529 628.134 99.8189 628.134ZM902.344 628.817C903.255 629.272 903.482 631.321 903.027 634.964C902.572 638.606 901.661 642.249 900.295 645.892C898.929 649.534 897.563 651.811 896.197 652.722C895.514 653.177 894.831 653.632 894.148 654.088C895.059 651.583 895.969 649.079 896.88 646.575C898.701 641.566 899.157 637.923 898.246 635.647C897.335 633.37 897.563 631.549 898.929 630.183C900.295 628.817 901.433 628.361 902.344 628.817ZM894.831 636.33C895.514 636.33 896.197 636.33 896.88 636.33C896.425 638.606 895.969 640.883 895.514 643.16C894.603 647.713 892.782 651.356 890.05 654.088C888.684 655.454 887.318 656.82 885.952 658.186C886.635 656.82 887.318 655.454 888.001 654.088C889.367 651.356 889.822 648.624 889.367 645.892C888.912 643.16 889.367 640.883 890.733 639.062C892.099 637.24 893.465 636.33 894.831 636.33ZM103.234 637.696C104.6 638.379 105.966 639.062 107.332 639.745C110.064 641.111 111.43 643.16 111.43 645.892C111.43 648.624 112.341 651.583 114.162 654.771C115.073 656.364 115.983 657.958 116.894 659.552C115.3 658.869 113.707 658.186 112.113 657.503C108.926 656.137 106.649 654.088 105.283 651.356C103.917 648.624 103.234 645.664 103.234 642.477C103.234 640.883 103.234 639.289 103.234 637.696ZM500.74 748.342C549.916 748.342 577.464 754.489 583.383 766.783C586.343 772.93 589.302 779.077 592.262 785.224C560.844 785.451 529.426 785.679 498.008 785.907C466.59 786.134 435.172 786.362 403.754 786.59C407.624 780.215 411.495 773.84 415.365 767.466C423.106 754.716 451.564 748.342 500.74 748.342ZM498.691 787.956C562.893 787.956 596.132 790.46 598.409 795.469C600.686 800.477 604.556 806.169 610.02 812.544C615.484 818.918 618.899 824.382 620.265 828.936C621.631 833.489 628.461 834.4 640.755 831.668C653.049 828.936 668.53 823.244 687.199 814.593C705.868 805.941 717.934 801.616 723.398 801.616C728.862 801.616 735.237 804.12 742.522 809.129C749.807 814.137 754.361 818.008 756.182 820.74C758.003 823.472 759.142 829.163 759.597 837.815C760.052 846.466 759.142 853.296 756.865 858.305C754.588 863.313 747.986 870.371 737.058 879.478C726.13 888.584 717.706 894.731 711.787 897.919C705.868 901.106 690.614 907.025 666.026 915.677C641.438 924.328 627.55 930.02 624.363 932.752C621.176 935.484 616.85 936.622 611.386 936.167C605.922 935.711 594.083 938.899 575.87 945.729C557.657 952.559 546.046 955.974 541.037 955.974C536.028 955.974 525.556 957.567 509.619 960.755C493.682 963.942 480.478 965.763 470.005 966.219C459.532 966.674 453.158 962.804 450.881 954.608C449.743 950.51 448.604 946.412 447.466 942.314C452.702 941.858 457.939 941.403 463.175 940.948C473.648 940.037 480.478 938.899 483.665 937.533C486.852 936.167 508.936 924.783 549.916 903.383C590.896 881.982 615.712 868.777 624.363 863.769C633.014 858.76 638.934 854.662 642.121 851.475C643.715 849.881 645.308 848.287 646.902 846.694C634.38 853.979 621.859 861.264 609.337 868.55C584.294 883.12 560.161 896.097 536.939 907.481C513.717 918.864 496.414 922.734 485.031 919.092C473.648 915.449 459.077 909.302 441.319 900.651C423.561 891.999 404.665 881.299 384.63 868.55C364.595 855.8 353.212 848.06 350.48 845.328C347.748 842.596 345.699 841.23 344.333 841.23C343.65 841.23 342.967 841.23 342.284 841.23C343.65 842.596 345.016 843.962 346.382 845.328C349.114 848.06 361.18 856.256 382.581 869.916C403.982 883.576 423.106 894.504 439.953 902.7C456.8 910.896 471.143 916.587 482.982 919.775C488.901 921.368 494.821 922.962 500.74 924.556C498.236 926.149 495.731 927.743 493.227 929.337C488.218 932.524 482.754 934.801 476.835 936.167C470.916 937.533 461.126 938.671 447.466 939.582C433.806 940.492 419.463 940.72 404.437 940.265C389.411 939.809 374.84 935.711 360.725 927.971C346.61 920.23 324.298 910.213 293.791 897.919C263.284 885.625 243.249 874.924 233.687 865.818C224.125 856.711 218.889 848.743 217.978 841.913C217.067 835.083 217.067 829.163 217.978 824.155C218.889 819.146 221.393 813.91 225.491 808.446C229.589 802.982 234.37 799.111 239.834 796.835C245.298 794.558 250.762 793.42 256.226 793.42C261.69 793.42 274.439 798.428 294.474 808.446C314.509 818.463 330.901 825.293 343.65 828.936C356.399 832.578 365.278 834.4 370.287 834.4C375.296 834.4 380.077 829.163 384.63 818.691C389.183 808.218 393.281 800.477 396.924 795.469C400.567 790.46 434.489 787.956 498.691 787.956ZM390.094 840.547C391.005 841.913 394.192 843.051 399.656 843.962C405.12 844.872 413.316 847.832 424.244 852.841C435.172 857.849 448.832 865.818 465.224 876.746C473.42 882.21 481.616 887.674 489.812 893.138C487.308 890.633 484.803 888.129 482.299 885.625C477.29 880.616 469.55 874.924 459.077 868.55C448.604 862.175 437.449 856.256 425.61 850.792C413.771 845.328 404.665 841.913 398.29 840.547C395.103 839.864 391.915 839.181 388.728 838.498C389.183 839.181 389.639 839.864 390.094 840.547ZM577.236 850.109C558.112 856.939 544.452 862.63 536.256 867.184C528.06 871.737 522.596 875.607 519.864 878.795C518.498 880.388 517.132 881.982 515.766 883.576C521.685 879.933 527.605 876.29 533.524 872.648C545.363 865.362 558.34 858.988 572.455 853.524C586.57 848.06 596.588 844.872 602.507 843.962C608.426 843.051 611.614 842.14 612.069 841.23C612.297 840.774 612.524 840.319 612.752 839.864C611.614 839.864 610.475 839.864 609.337 839.864C607.06 839.864 596.36 843.279 577.236 850.109ZM355.261 938.216C365.734 940.948 383.492 942.314 408.535 942.314C421.057 942.314 433.578 942.314 446.1 942.314C446.1 944.363 446.1 946.412 446.1 948.461C446.1 952.559 446.783 956.429 448.149 960.072C448.832 961.893 449.515 963.714 450.198 965.536C444.279 967.357 438.359 969.178 432.44 971C420.601 974.642 409.218 977.147 398.29 978.513C387.362 979.879 378.711 979.423 372.336 977.147C369.149 976.008 365.961 974.87 362.774 973.732C364.368 973.049 365.961 972.366 367.555 971.683C369.149 971 370.742 970.317 372.336 969.634C369.149 969.861 365.961 970.089 362.774 970.317C356.399 970.772 352.529 970.089 351.163 968.268C350.48 967.357 349.797 966.446 349.114 965.536C351.618 965.536 354.123 965.536 356.627 965.536C359.131 965.536 361.636 965.536 364.14 965.536C363.912 965.08 363.685 964.625 363.457 964.17C363.002 963.259 359.587 963.259 353.212 964.17C346.837 965.08 342.967 964.853 341.601 963.487C340.235 962.121 339.552 960.755 339.552 959.389C339.552 958.706 339.552 958.023 339.552 957.34C342.284 957.567 345.016 957.795 347.748 958.023C350.48 958.25 353.212 958.478 355.944 958.706C355.944 958.25 355.944 957.795 355.944 957.34C355.944 956.429 353.212 955.746 347.748 955.291C342.284 954.835 339.552 953.242 339.552 950.51C339.552 949.144 339.552 947.778 339.552 946.412C340.69 946.412 341.829 946.412 342.967 946.412C345.244 946.412 347.065 947.095 348.431 948.461C349.797 949.827 351.846 950.51 354.578 950.51C355.944 950.51 357.31 950.51 358.676 950.51C358.676 950.054 358.676 949.599 358.676 949.144C358.676 948.233 356.172 947.095 351.163 945.729C346.154 944.363 342.739 943.907 340.918 944.363C339.097 944.818 337.731 943.68 336.82 940.948C335.909 938.216 336.137 936.394 337.503 935.484C338.869 934.573 344.788 935.484 355.261 938.216ZM644.17 938.216C646.902 939.126 648.268 940.72 648.268 942.997C648.268 945.273 645.536 946.867 640.072 947.778C634.608 948.688 631.876 949.599 631.876 950.51C631.876 950.965 631.876 951.42 631.876 951.876C634.38 951.876 636.885 951.876 639.389 951.876C644.398 951.876 647.13 953.014 647.585 955.291C647.813 956.429 648.04 957.567 648.268 958.706C645.081 958.706 641.893 958.706 638.706 958.706C635.519 958.706 632.331 958.706 629.144 958.706C629.144 959.161 629.144 959.616 629.144 960.072C629.144 960.982 632.331 961.665 638.706 962.121C641.893 962.348 645.081 962.576 648.268 962.804C647.357 963.714 646.447 964.625 645.536 965.536C643.715 967.357 640.527 968.04 635.974 967.585C633.697 967.357 631.421 967.129 629.144 966.902C630.282 967.357 631.421 967.812 632.559 968.268C634.836 969.178 635.974 970.089 635.974 971C635.974 971.455 635.974 971.91 635.974 972.366C633.47 972.138 630.965 971.91 628.461 971.683C625.957 971.455 623.452 971.227 620.948 971C621.859 971.683 622.769 972.366 623.68 973.049C624.591 973.732 625.501 974.415 626.412 975.098C625.501 975.325 624.591 975.553 623.68 975.781C621.859 976.236 618.671 976.464 614.118 976.464C609.565 976.464 600.458 973.959 586.798 968.951C573.138 963.942 563.348 960.982 557.429 960.072C554.469 959.616 551.51 959.161 548.55 958.706C550.599 957.567 552.648 956.429 554.697 955.291C558.795 953.014 566.536 950.51 577.919 947.778C589.302 945.046 596.588 942.769 599.775 940.948C602.962 939.126 609.109 938.443 618.216 938.899C627.323 939.354 633.242 939.126 635.974 938.216C638.706 937.305 641.438 937.305 644.17 938.216Z" fill="#000000" fill-rule="nonzero" opacity="1" stroke="none" vectornator:layerName="Courbe 1"/>
</g>
</svg>
